<?xml version="1.0" encoding="iso-8859-1"?>
<!-- Generator: Adobe Illustrator 19.0.0, SVG Export Plug-In . SVG Version: 6.00 Build 0)  -->
<svg version="1.1" id="Capa_1" xmlns="http://www.w3.org/2000/svg" xmlns:xlink="http://www.w3.org/1999/xlink" x="0px" y="0px"
	 viewBox="0 0 480 480" style="enable-background:new 0 0 480 480;" xml:space="preserve">
<g>
	<path style="fill:#E17277;" d="M0,347.755h480V63.673H0V347.755z M19.592,93.061h440.816v39.184H19.592V93.061z M19.592,156.735
		h440.816v39.184H19.592V156.735z M19.592,220.408h440.816v39.184H19.592V220.408z M19.592,284.082h440.816v39.184H19.592V284.082z"
		/>
	<rect y="53.878" style="fill:#BF515A;" width="480" height="9.796"/>
	<polygon style="fill:#BF515A;" points="0,426.122 19.592,426.122 19.592,357.551 122.449,357.551 122.449,426.122 132.245,426.122 
		132.245,357.551 235.102,357.551 235.102,426.122 244.898,426.122 244.898,357.551 347.755,357.551 347.755,426.122 
		357.551,426.122 357.551,357.551 460.408,357.551 460.408,426.122 480,426.122 480,347.755 0,347.755 	"/>
	<path style="fill:#4B82AF;" d="M460.408,156.735H19.592v39.184h440.816V156.735z M53.878,191.02H24.49v-29.388h97.959v29.388
		H53.878z M161.633,191.037h-29.388v-0.016v-29.371v-0.016h102.857v29.388h-73.485C161.619,191.022,161.633,191.037,161.633,191.037
		z M274.286,191.037h-29.388v-0.016v-29.371v-0.016h102.857v29.388H274.27C274.272,191.022,274.286,191.037,274.286,191.037z
		 M455.51,191.02h-68.587c0.002,0.002,0.016,0.016,0.016,0.016h-29.388v-0.016v-29.371v-0.016h97.959V191.02z"/>
	<polygon style="fill:#80D7F0;" points="24.49,191.02 53.878,191.02 24.49,161.633 	"/>
	<path style="fill:#6EB1E2;" d="M235.102,161.633H132.245v0.016c0-0.812,29.03,29.021,29.372,29.371h73.485V161.633z"/>
	<path style="fill:#6EB1E2;" d="M357.551,161.649c0-0.812,29.03,29.021,29.372,29.371h68.587v-29.388h-97.959V161.649z"/>
	<path style="fill:#6EB1E2;" d="M347.755,161.633H244.898v0.016c0-0.812,29.03,29.021,29.372,29.371h73.485V161.633z"/>
	<polygon style="fill:#6EB1E2;" points="24.49,161.633 53.878,191.02 122.449,191.02 122.449,161.633 	"/>
	<path style="fill:#4B82AF;" d="M460.408,220.408H19.592v39.184h440.816V220.408z M53.878,254.694H24.49v-29.388h97.959v29.388
		H53.878z M161.633,254.694h-29.388v-29.388h102.857v29.388H161.633z M274.286,254.694h-29.388v-29.388h102.857v29.388H274.286z
		 M455.51,254.694h-68.571h-29.388v-29.388h97.959V254.694z"/>
	<polygon style="fill:#80D7F0;" points="24.49,254.694 53.878,254.694 24.49,225.306 	"/>
	<path style="fill:#6EB1E2;" d="M244.898,225.306c0-0.816,29.388,29.388,29.388,29.388h73.469v-29.388H244.898z"/>
	<path style="fill:#6EB1E2;" d="M132.245,225.306c0-0.816,29.388,29.388,29.388,29.388h73.469v-29.388H132.245z"/>
	<path style="fill:#6EB1E2;" d="M386.939,254.694h68.571v-29.388h-97.959C357.551,224.49,386.939,254.694,386.939,254.694z"/>
	<polygon style="fill:#6EB1E2;" points="24.49,225.306 53.878,254.694 122.449,254.694 122.449,225.306 	"/>
	<path style="fill:#4B82AF;" d="M460.408,284.082H19.592v39.184h440.816V284.082z M53.878,318.367H24.49V288.98h97.959v29.388
		H53.878z M161.633,318.367h-29.388V288.98h102.857v29.388H161.633z M274.286,318.367h-29.388V288.98h102.857v29.388H274.286z
		 M455.51,318.367h-68.571h-29.388V288.98h97.959V318.367z"/>
	<polygon style="fill:#80D7F0;" points="24.49,318.367 53.878,318.367 24.49,288.98 	"/>
	<path style="fill:#6EB1E2;" d="M132.245,288.98c0-0.816,29.388,29.388,29.388,29.388h73.469V288.98H132.245z"/>
	<path style="fill:#6EB1E2;" d="M244.898,288.98c0-0.816,29.388,29.388,29.388,29.388h73.469V288.98H244.898z"/>
	<polygon style="fill:#6EB1E2;" points="24.49,288.98 53.878,318.367 122.449,318.367 122.449,288.98 	"/>
	<path style="fill:#6EB1E2;" d="M386.939,318.367h68.571V288.98h-97.959C357.551,288.163,386.939,318.367,386.939,318.367z"/>
	<path style="fill:#4B82AF;" d="M460.408,93.061H19.592v39.184h440.816V93.061z M53.878,127.347H24.49V97.959h97.959v29.388H53.878z
		 M161.633,127.347h-29.388V97.959h102.857v29.388H161.633z M274.286,127.347h-29.388V97.959h102.857v29.388H274.286z
		 M455.51,127.347h-68.571h-29.388V97.959h97.959V127.347z"/>
	<polygon style="fill:#80D7F0;" points="24.49,127.347 53.878,127.347 24.49,97.959 	"/>
	<path style="fill:#6EB1E2;" d="M132.245,97.959c0-0.816,29.388,29.388,29.388,29.388h73.469V97.959H132.245z"/>
	<polygon style="fill:#6EB1E2;" points="24.49,97.959 53.878,127.347 122.449,127.347 122.449,97.959 	"/>
	<path style="fill:#6EB1E2;" d="M244.898,97.959c0-0.816,29.388,29.388,29.388,29.388h73.469V97.959H244.898z"/>
	<path style="fill:#6EB1E2;" d="M386.939,127.347h68.571V97.959h-97.959C357.551,97.143,386.939,127.347,386.939,127.347z"/>
	<polygon style="fill:#4B82AF;" points="19.592,357.551 19.592,426.122 24.49,426.122 24.49,362.449 117.551,362.449 
		117.551,426.122 122.449,426.122 122.449,357.551 	"/>
	<polygon style="fill:#80D7F0;" points="24.49,426.122 88.163,426.122 24.49,362.449 	"/>
	<polygon style="fill:#6EB1E2;" points="24.49,362.449 88.163,426.122 117.551,426.122 117.551,362.449 	"/>
	<polygon style="fill:#4B82AF;" points="132.245,357.551 132.245,426.122 137.143,426.122 137.143,362.449 230.204,362.449 
		230.204,426.122 235.102,426.122 235.102,357.551 	"/>
	<polygon style="fill:#80D7F0;" points="137.143,426.122 200.816,426.122 137.143,362.449 	"/>
	<polygon style="fill:#6EB1E2;" points="137.143,362.449 200.816,426.122 230.204,426.122 230.204,362.449 	"/>
	<polygon style="fill:#4B82AF;" points="244.898,357.551 244.898,426.122 249.796,426.122 249.796,362.449 342.857,362.449 
		342.857,426.122 347.755,426.122 347.755,357.551 	"/>
	<polygon style="fill:#80D7F0;" points="249.796,426.122 313.469,426.122 249.796,362.449 	"/>
	<polygon style="fill:#6EB1E2;" points="249.796,362.449 313.469,426.122 342.857,426.122 342.857,362.449 	"/>
	<polygon style="fill:#4B82AF;" points="357.551,357.551 357.551,426.122 362.449,426.122 362.449,362.449 455.51,362.449 
		455.51,426.122 460.408,426.122 460.408,357.551 	"/>
	<polygon style="fill:#80D7F0;" points="362.449,426.122 426.122,426.122 362.449,362.449 	"/>
	<polygon style="fill:#6EB1E2;" points="362.449,362.449 426.122,426.122 455.51,426.122 455.51,362.449 	"/>
	<path style="fill:#80D7F0;" d="M132.245,97.959v29.388h29.388C161.633,127.347,132.245,97.143,132.245,97.959z"/>
	<path style="fill:#80D7F0;" d="M244.898,97.959v29.388h29.388C274.286,127.347,244.898,97.143,244.898,97.959z"/>
	<path style="fill:#80D7F0;" d="M357.551,97.959v29.388h29.388C386.939,127.347,357.551,97.143,357.551,97.959z"/>
	<path style="fill:#80D7F0;" d="M132.245,161.649v29.371v0.016h29.388c0,0-0.014-0.014-0.016-0.016
		C161.275,190.669,132.245,160.837,132.245,161.649z"/>
	<path style="fill:#80D7F0;" d="M244.898,161.649v29.371v0.016h29.388c0,0-0.014-0.014-0.016-0.016
		C273.928,190.669,244.898,160.837,244.898,161.649z"/>
	<path style="fill:#80D7F0;" d="M357.551,161.649v29.371v0.016h29.388c0,0-0.014-0.014-0.016-0.016
		C386.581,190.669,357.551,160.837,357.551,161.649z"/>
	<path style="fill:#80D7F0;" d="M132.245,225.306v29.388h29.388C161.633,254.694,132.245,224.49,132.245,225.306z"/>
	<path style="fill:#80D7F0;" d="M244.898,225.306v29.388h29.388C274.286,254.694,244.898,224.49,244.898,225.306z"/>
	<path style="fill:#80D7F0;" d="M357.551,225.306v29.388h29.388C386.939,254.694,357.551,224.49,357.551,225.306z"/>
	<path style="fill:#80D7F0;" d="M132.245,288.98v29.388h29.388C161.633,318.367,132.245,288.163,132.245,288.98z"/>
	<path style="fill:#80D7F0;" d="M244.898,288.98v29.388h29.388C274.286,318.367,244.898,288.163,244.898,288.98z"/>
	<path style="fill:#80D7F0;" d="M357.551,288.98v29.388h29.388C386.939,318.367,357.551,288.163,357.551,288.98z"/>
</g>
<g>
</g>
<g>
</g>
<g>
</g>
<g>
</g>
<g>
</g>
<g>
</g>
<g>
</g>
<g>
</g>
<g>
</g>
<g>
</g>
<g>
</g>
<g>
</g>
<g>
</g>
<g>
</g>
<g>
</g>
</svg>
