<?xml version="1.0" encoding="UTF-8" standalone="no"?>
<!-- Created with Inkscape (http://www.inkscape.org/) -->

<svg
   xmlns:dc="http://purl.org/dc/elements/1.1/"
   xmlns:cc="http://creativecommons.org/ns#"
   xmlns:rdf="http://www.w3.org/1999/02/22-rdf-syntax-ns#"
   xmlns:svg="http://www.w3.org/2000/svg"
   xmlns="http://www.w3.org/2000/svg"
   xmlns:xlink="http://www.w3.org/1999/xlink"
   xmlns:sodipodi="http://sodipodi.sourceforge.net/DTD/sodipodi-0.dtd"
   xmlns:inkscape="http://www.inkscape.org/namespaces/inkscape"
   id="svg3390"
   version="1.1"
   inkscape:version="0.91 r13725"
   width="256"
   height="256"
   viewBox="0 0 256 256"
   sodipodi:docname="doctor_white.svg"
   inkscape:export-filename="doctor_white_coat.png"
   inkscape:export-xdpi="90"
   inkscape:export-ydpi="90">
  <title
     id="title4293">Doctor (white coat)</title>
  <metadata
     id="metadata3396">
    <rdf:RDF>
      <cc:Work
         rdf:about="">
        <dc:format>image/svg+xml</dc:format>
        <dc:type
           rdf:resource="http://purl.org/dc/dcmitype/StillImage" />
        <dc:title>Doctor (white coat)</dc:title>
        <dc:date>2015-04-02</dc:date>
        <dc:creator>
          <cc:Agent>
            <dc:title>Christoph Brill</dc:title>
          </cc:Agent>
        </dc:creator>
        <cc:license
           rdf:resource="http://creativecommons.org/publicdomain/zero/1.0/" />
      </cc:Work>
      <cc:License
         rdf:about="http://creativecommons.org/publicdomain/zero/1.0/">
        <cc:permits
           rdf:resource="http://creativecommons.org/ns#Reproduction" />
        <cc:permits
           rdf:resource="http://creativecommons.org/ns#Distribution" />
        <cc:permits
           rdf:resource="http://creativecommons.org/ns#DerivativeWorks" />
      </cc:License>
    </rdf:RDF>
  </metadata>
  <defs
     id="defs3394">
    <linearGradient
       inkscape:collect="always"
       id="linearGradient4273">
      <stop
         style="stop-color:#ef1f00;stop-opacity:1;"
         offset="0"
         id="stop4275" />
      <stop
         style="stop-color:#ff5339;stop-opacity:1"
         offset="1"
         id="stop4277" />
    </linearGradient>
    <linearGradient
       id="linearGradient4261"
       inkscape:collect="always">
      <stop
         id="stop4263"
         offset="0"
         style="stop-color:#b3d5f6;stop-opacity:1" />
      <stop
         id="stop4265"
         offset="1"
         style="stop-color:#eff6fd;stop-opacity:1" />
    </linearGradient>
    <linearGradient
       id="linearGradient4255"
       inkscape:collect="always">
      <stop
         id="stop4257"
         offset="0"
         style="stop-color:#cbc7c6;stop-opacity:1" />
      <stop
         id="stop4259"
         offset="1"
         style="stop-color:#cbc7c6;stop-opacity:0" />
    </linearGradient>
    <linearGradient
       inkscape:collect="always"
       id="linearGradient4383">
      <stop
         style="stop-color:#bfbfbf;stop-opacity:1;"
         offset="0"
         id="stop4385" />
      <stop
         style="stop-color:#000000;stop-opacity:1"
         offset="1"
         id="stop4387" />
    </linearGradient>
    <linearGradient
       inkscape:collect="always"
       id="linearGradient4373">
      <stop
         style="stop-color:#909090;stop-opacity:1"
         offset="0"
         id="stop4375" />
      <stop
         style="stop-color:#bababa;stop-opacity:0;"
         offset="1"
         id="stop4377" />
    </linearGradient>
    <linearGradient
       inkscape:collect="always"
       id="linearGradient4363">
      <stop
         style="stop-color:#010101;stop-opacity:1;"
         offset="0"
         id="stop4365" />
      <stop
         style="stop-color:#434343;stop-opacity:1"
         offset="1"
         id="stop4367" />
    </linearGradient>
    <linearGradient
       inkscape:collect="always"
       id="linearGradient4311">
      <stop
         style="stop-color:#b3d5f6;stop-opacity:1"
         offset="0"
         id="stop4313" />
      <stop
         style="stop-color:#eff6fd;stop-opacity:1"
         offset="1"
         id="stop4315" />
    </linearGradient>
    <linearGradient
       inkscape:collect="always"
       id="linearGradient4297">
      <stop
         style="stop-color:#b3d5f6;stop-opacity:1"
         offset="0"
         id="stop4299" />
      <stop
         style="stop-color:#eff6fd;stop-opacity:1"
         offset="1"
         id="stop4301" />
    </linearGradient>
    <linearGradient
       id="linearGradient4282"
       inkscape:collect="always">
      <stop
         id="stop4281"
         offset="0"
         style="stop-color:#d3824d;stop-opacity:1" />
      <stop
         style="stop-color:#eeb585;stop-opacity:1"
         offset="0.44125214"
         id="stop4283" />
      <stop
         style="stop-color:#e29964;stop-opacity:1"
         offset="0.75707978"
         id="stop4285" />
      <stop
         id="stop4287"
         offset="1"
         style="stop-color:#ab7042;stop-opacity:1" />
    </linearGradient>
    <linearGradient
       inkscape:collect="always"
       id="linearGradient4221">
      <stop
         style="stop-color:#f4c093;stop-opacity:1"
         offset="0"
         id="stop4223" />
      <stop
         style="stop-color:#c67b4c;stop-opacity:0.98431373"
         offset="1"
         id="stop4225" />
    </linearGradient>
    <linearGradient
       inkscape:collect="always"
       id="linearGradient4227">
      <stop
         style="stop-color:#443024;stop-opacity:1"
         offset="0"
         id="stop4229" />
      <stop
         style="stop-color:#a27356;stop-opacity:1"
         offset="1"
         id="stop4231" />
    </linearGradient>
    <linearGradient
       inkscape:collect="always"
       id="linearGradient4420">
      <stop
         style="stop-color:#000000;stop-opacity:0.67500001"
         offset="0"
         id="stop4422" />
      <stop
         style="stop-color:#000000;stop-opacity:0;"
         offset="1"
         id="stop4424" />
    </linearGradient>
    <linearGradient
       id="linearGradient4370"
       inkscape:collect="always">
      <stop
         id="stop4372"
         offset="0"
         style="stop-color:#ffffff;stop-opacity:0.8" />
      <stop
         id="stop4374"
         offset="1"
         style="stop-color:#ffffff;stop-opacity:0" />
    </linearGradient>
    <linearGradient
       inkscape:collect="always"
       id="linearGradient4346">
      <stop
         style="stop-color:#cbc7c6;stop-opacity:1"
         offset="0"
         id="stop4348" />
      <stop
         style="stop-color:#cbc7c6;stop-opacity:0"
         offset="1"
         id="stop4350" />
    </linearGradient>
    <linearGradient
       inkscape:collect="always"
       id="linearGradient4204">
      <stop
         style="stop-color:#ffffff;stop-opacity:1"
         offset="0"
         id="stop4206" />
      <stop
         style="stop-color:#ffffff;stop-opacity:0"
         offset="1"
         id="stop4208" />
    </linearGradient>
    <linearGradient
       inkscape:collect="always"
       xlink:href="#linearGradient4204"
       id="linearGradient4210"
       x1="124.68366"
       y1="18.0229"
       x2="158.94888"
       y2="126.66331"
       gradientUnits="userSpaceOnUse" />
    <linearGradient
       inkscape:collect="always"
       xlink:href="#linearGradient4282"
       id="linearGradient4288"
       x1="215.81595"
       y1="236.1985"
       x2="138.03119"
       y2="206.88547"
       gradientUnits="userSpaceOnUse"
       gradientTransform="matrix(0.68274091,0,0,0.68274091,-0.09019972,-0.10756256)" />
    <radialGradient
       inkscape:collect="always"
       xlink:href="#linearGradient4221"
       id="radialGradient4302"
       cx="354.20822"
       cy="123.41123"
       fx="354.20822"
       fy="123.41123"
       r="74.279022"
       gradientTransform="matrix(1.4089325,0.155536,-0.1984212,1.7974108,-318.85232,-151.75915)"
       gradientUnits="userSpaceOnUse" />
    <linearGradient
       inkscape:collect="always"
       xlink:href="#linearGradient4204"
       id="linearGradient4312"
       x1="200.97676"
       y1="265.16467"
       x2="169.87947"
       y2="182.49315"
       gradientUnits="userSpaceOnUse" />
    <linearGradient
       inkscape:collect="always"
       xlink:href="#linearGradient4204"
       id="linearGradient4316"
       gradientUnits="userSpaceOnUse"
       x1="261.45596"
       y1="188.3443"
       x2="186.55757"
       y2="192.60109"
       gradientTransform="translate(24.595995,-55.593688)" />
    <linearGradient
       inkscape:collect="always"
       xlink:href="#linearGradient4346"
       id="linearGradient4352"
       x1="92.656151"
       y1="229.36137"
       x2="96.699326"
       y2="311.23572"
       gradientUnits="userSpaceOnUse" />
    <linearGradient
       inkscape:collect="always"
       xlink:href="#linearGradient4255"
       id="linearGradient4356"
       gradientUnits="userSpaceOnUse"
       x1="102.42716"
       y1="222.28581"
       x2="96.699326"
       y2="311.23572"
       gradientTransform="translate(130.39247,52.898236)" />
    <radialGradient
       inkscape:collect="always"
       xlink:href="#linearGradient4370"
       id="radialGradient4368"
       cx="254.97543"
       cy="269.76462"
       fx="254.97543"
       fy="269.76462"
       r="19.62767"
       gradientTransform="matrix(1,0,0,2.0409139,0,-281.57501)"
       gradientUnits="userSpaceOnUse" />
    <linearGradient
       inkscape:collect="always"
       xlink:href="#linearGradient4204"
       id="linearGradient4414"
       x1="234.29726"
       y1="261.17865"
       x2="324.43256"
       y2="267.84955"
       gradientUnits="userSpaceOnUse" />
    <linearGradient
       inkscape:collect="always"
       xlink:href="#linearGradient4420"
       id="linearGradient4426"
       x1="263.88748"
       y1="349.09402"
       x2="317.63522"
       y2="271.90216"
       gradientUnits="userSpaceOnUse"
       gradientTransform="translate(0,-119)" />
    <filter
       inkscape:collect="always"
       style="color-interpolation-filters:sRGB"
       id="filter4448"
       x="-0.037415694"
       width="1.0748314"
       y="-0.066934779"
       height="1.1338696">
      <feGaussianBlur
         inkscape:collect="always"
         stdDeviation="2.2304809"
         id="feGaussianBlur4450" />
    </filter>
    <linearGradient
       inkscape:collect="always"
       xlink:href="#linearGradient4227"
       id="linearGradient4233"
       x1="242.29617"
       y1="115.98917"
       x2="167.85733"
       y2="12.211713"
       gradientUnits="userSpaceOnUse" />
    <linearGradient
       inkscape:collect="always"
       xlink:href="#linearGradient4204"
       id="linearGradient4236"
       x1="168.55617"
       y1="-97.231216"
       x2="198.67758"
       y2="84.007401"
       gradientUnits="userSpaceOnUse" />
    <linearGradient
       inkscape:collect="always"
       xlink:href="#linearGradient4370"
       id="linearGradient4277"
       x1="138.64851"
       y1="6.5447259"
       x2="165.4435"
       y2="109.96112"
       gradientUnits="userSpaceOnUse" />
    <linearGradient
       inkscape:collect="always"
       xlink:href="#linearGradient4297"
       id="linearGradient4303"
       x1="139.90161"
       y1="252.85652"
       x2="137.91846"
       y2="215.17683"
       gradientUnits="userSpaceOnUse" />
    <linearGradient
       inkscape:collect="always"
       xlink:href="#linearGradient4261"
       id="linearGradient4307"
       gradientUnits="userSpaceOnUse"
       x1="158.2589"
       y1="239.47101"
       x2="141.99785"
       y2="216.45164"
       gradientTransform="translate(27.408447,0.2549623)" />
    <linearGradient
       inkscape:collect="always"
       xlink:href="#linearGradient4311"
       id="linearGradient4317"
       x1="163.33873"
       y1="268.45123"
       x2="122.24197"
       y2="283.25983"
       gradientUnits="userSpaceOnUse" />
    <linearGradient
       inkscape:collect="always"
       xlink:href="#linearGradient4370"
       id="linearGradient4333"
       x1="108.86891"
       y1="226.35698"
       x2="142.65141"
       y2="303.35559"
       gradientUnits="userSpaceOnUse" />
    <linearGradient
       inkscape:collect="always"
       xlink:href="#linearGradient4370"
       id="linearGradient4343"
       x1="185.69415"
       y1="337.77103"
       x2="215.98212"
       y2="318.66077"
       gradientUnits="userSpaceOnUse" />
    <linearGradient
       inkscape:collect="always"
       xlink:href="#linearGradient4370"
       id="linearGradient4349"
       gradientUnits="userSpaceOnUse"
       x1="108.86891"
       y1="226.35698"
       x2="142.65141"
       y2="303.35559"
       gradientTransform="translate(54.052007,33.145099)" />
    <linearGradient
       inkscape:collect="always"
       xlink:href="#linearGradient4370"
       id="linearGradient4359"
       x1="247.73579"
       y1="231.55077"
       x2="234.43567"
       y2="211.98978"
       gradientUnits="userSpaceOnUse" />
    <linearGradient
       inkscape:collect="always"
       xlink:href="#linearGradient4363"
       id="linearGradient4369"
       x1="211.21996"
       y1="339.80957"
       x2="195.76497"
       y2="319.28513"
       gradientUnits="userSpaceOnUse"
       gradientTransform="translate(0.2549621,0.12748116)" />
    <linearGradient
       inkscape:collect="always"
       xlink:href="#linearGradient4373"
       id="linearGradient4379"
       x1="209.70648"
       y1="334.71594"
       x2="202.69502"
       y2="326.30219"
       gradientUnits="userSpaceOnUse"
       gradientTransform="matrix(1.3695652,0,0,1.3695652,-77.15381,-122.11141)" />
    <radialGradient
       inkscape:collect="always"
       xlink:href="#linearGradient4383"
       id="radialGradient4391"
       cx="168.56766"
       cy="301.93802"
       fx="168.56766"
       fy="301.93802"
       r="14.963702"
       gradientUnits="userSpaceOnUse"
       gradientTransform="matrix(2.0783879,-1.8812591,1.1309583,1.2494666,-496.96352,260.94388)" />
    <linearGradient
       inkscape:collect="always"
       xlink:href="#linearGradient4370"
       id="linearGradient4421"
       x1="132.91774"
       y1="293.35004"
       x2="143.79958"
       y2="308.92142"
       gradientUnits="userSpaceOnUse"
       gradientTransform="matrix(0.63901754,0,0,0.63901754,96.32529,91.111746)" />
    <linearGradient
       inkscape:collect="always"
       xlink:href="#linearGradient4370"
       id="linearGradient4425"
       gradientUnits="userSpaceOnUse"
       gradientTransform="matrix(0.63901754,0,0,0.63901754,17.942012,106.97058)"
       x1="140.58649"
       y1="290.50546"
       x2="143.79958"
       y2="308.92142" />
    <linearGradient
       inkscape:collect="always"
       xlink:href="#linearGradient4370"
       id="linearGradient4435"
       x1="95.0858"
       y1="202.67267"
       x2="131.93427"
       y2="271.36148"
       gradientUnits="userSpaceOnUse" />
    <linearGradient
       inkscape:collect="always"
       xlink:href="#linearGradient4420"
       id="linearGradient4259"
       x1="109.21745"
       y1="158.89418"
       x2="111.7891"
       y2="187.71973"
       gradientUnits="userSpaceOnUse" />
    <linearGradient
       inkscape:collect="always"
       xlink:href="#linearGradient4420"
       id="linearGradient4263"
       gradientUnits="userSpaceOnUse"
       x1="105.77412"
       y1="161.5141"
       x2="101.53397"
       y2="186.07292"
       gradientTransform="translate(-9.1040374,-2.3289398)" />
    <linearGradient
       inkscape:collect="always"
       xlink:href="#linearGradient4273"
       id="linearGradient4279"
       x1="139.04779"
       y1="210.3828"
       x2="129.86943"
       y2="209.3828"
       gradientUnits="userSpaceOnUse"
       gradientTransform="matrix(1.1863936,0,0,1.1863936,-21.835524,-41.752101)" />
  </defs>
  <sodipodi:namedview
     pagecolor="#ffffff"
     bordercolor="#666666"
     borderopacity="1"
     objecttolerance="10"
     gridtolerance="10"
     guidetolerance="10"
     inkscape:pageopacity="0"
     inkscape:pageshadow="2"
     inkscape:window-width="1920"
     inkscape:window-height="944"
     id="namedview3392"
     showgrid="false"
     inkscape:zoom="4.0000002"
     inkscape:cx="95.262923"
     inkscape:cy="40.936186"
     inkscape:window-x="0"
     inkscape:window-y="27"
     inkscape:window-maximized="1"
     inkscape:current-layer="svg3390" />
  <path
     style="fill:url(#linearGradient4288);fill-opacity:1;fill-rule:evenodd;stroke:#cd7c4b;stroke-width:1.02411139;stroke-linecap:butt;stroke-linejoin:miter;stroke-miterlimit:4;stroke-dasharray:none;stroke-opacity:1"
     d="m 135.17148,102.94575 c 9.72408,6.50578 2.79569,20.91773 18.86302,31.97512 14.87405,10.2362 -15.82221,38.3519 -31.28502,46.23741 -66.97466,28.41049 -11.63543,-86.019113 12.422,-78.21253 z"
     id="neck_darker"
     inkscape:connector-curvature="0"
     sodipodi:nodetypes="cscc" />
  <path
     style="fill:url(#linearGradient4426);fill-opacity:1;fill-rule:evenodd;stroke:none;stroke-width:1px;stroke-linecap:butt;stroke-linejoin:miter;stroke-opacity:1;filter:url(#filter4448)"
     d="m 280.65438,233.60483 c 20.26363,-5.63657 40.75553,-13.54398 57.17917,-26.68361 6.89642,-5.51744 18.16803,-12.35566 16.20076,-20.96569 -4.58836,-20.08158 -34.70095,-26.58495 -55.27319,-27.6366 -109.72805,-5.60928 -116.99109,102.79177 -18.10674,75.2859 z"
     id="shadow"
     inkscape:connector-curvature="0"
     sodipodi:nodetypes="sssss"
     transform="matrix(0.6827409,0,0,0.6827409,-0.09028882,81.138604)" />
  <g
     id="shirt"
     transform="matrix(0.6827409,0,0,0.6827409,-0.09028882,-0.10756226)">
    <path
       sodipodi:nodetypes="ccccccccc"
       inkscape:connector-curvature="0"
       id="path4309"
       d="m 130.70704,212.92327 8.47342,2.88457 6.85085,29.56683 12.80028,1.62257 28.84569,-18.02855 12.25942,14.9637 -30.64855,77.5228 -46.33339,-6.31 z"
       style="fill:url(#linearGradient4317);fill-opacity:1;fill-rule:evenodd;stroke:none;stroke-width:1px;stroke-linecap:butt;stroke-linejoin:miter;stroke-opacity:1" />
    <path
       sodipodi:nodetypes="sssssscsccss"
       inkscape:connector-curvature="0"
       id="path4270"
       d="m 74.124954,307.27678 c -0.28053,6.52548 37.355246,31.93202 69.070936,42.7903 36.98293,12.66159 85.74448,16.42839 127.36009,3.70624 8.59902,-2.62877 39.13681,-16.49035 40.09484,-19.87895 4.96393,-17.55774 0.20388,-82.38952 -18.1943,-98.38398 -9.85133,-8.56425 -20.53922,-17.76483 -39.51903,-27.64886 -6.74547,-3.51281 -2.62796,-4.76884 -29.31552,-18.81806 -16.39645,20.23353 -37.89331,52.6527 -45.5151,63.79226 -17.12385,25.02721 -19.37545,37.48131 -33.37413,61.90004 -23.58676,-40.30714 -15.29783,-107.69619 -5.52678,-115.41889 -18.23533,6.91785 -49.946701,31.26688 -53.932651,37.94908 -10.12378,16.97187 -10.305235,50.39905 -11.148355,70.01082 z"
       style="fill:#fbfbfa;fill-opacity:1;fill-rule:evenodd;stroke:#cbc7c6;stroke-width:1.5;stroke-linecap:butt;stroke-linejoin:round;stroke-miterlimit:4;stroke-dasharray:none;stroke-opacity:1" />
    <path
       sodipodi:nodetypes="ssccccccccss"
       inkscape:connector-curvature="0"
       id="path4283"
       d="m 147.36821,347.71903 c -10.23011,16.24474 17.21452,-34.26434 29.57563,-48.95276 16.44136,-19.5369 33.16343,-33.21424 59.15125,-50.22757 -2.87847,-3.2632 -12.42418,-9.20454 -16.23009,-12.98761 5.714,-2.38205 16.88628,-4.47414 28.72324,-3.8399 -0.0622,-10.89191 -1.54133,-19.09 -0.99731,-28.42897 0.82651,0.27142 1.74779,1.11305 2.52709,2.16785 0.87107,8.71067 1.72719,16.90885 0.9761,27.88369 -8.32759,0.0297 -24.79766,0.19533 -30.33035,2.51604 4.93361,3.47889 12.36561,7.25851 17.48944,12.61157 -29.73065,21.28985 -40.15601,33.47375 -57.99486,52.3446 -13.22081,13.98565 -19.81408,26.14913 -32.89014,46.91306 z"
       style="fill:#999390;fill-opacity:1;fill-rule:evenodd;stroke:none;stroke-width:1px;stroke-linecap:butt;stroke-linejoin:miter;stroke-opacity:1" />
    <path
       style="fill:none;fill-rule:evenodd;stroke:#779fc7;stroke-width:1px;stroke-linecap:butt;stroke-linejoin:miter;stroke-opacity:1"
       d="m 150.93768,302.84567 c 1.51148,-20.8766 2.25885,-37.98779 4.97176,-55.58178"
       id="path4293"
       inkscape:connector-curvature="0"
       sodipodi:nodetypes="cc" />
    <path
       style="fill:url(#linearGradient4307);fill-opacity:1;fill-rule:evenodd;stroke:#779fc7;stroke-width:1px;stroke-linecap:round;stroke-linejoin:round;stroke-opacity:1"
       d="m 156.21233,246.93629 10.43249,23.45562 c 10.6626,-19.04978 30.27682,-49.71271 60.22611,-82.16264 l -12.70218,-10.59266 c -1.4533,7.52777 -0.96558,27.6218 -57.95642,69.29968 z"
       id="path4305"
       inkscape:connector-curvature="0"
       sodipodi:nodetypes="ccccc" />
    <path
       sodipodi:nodetypes="csc"
       inkscape:connector-curvature="0"
       id="path4287"
       d="m 131.94299,345.04193 c 11.36303,-25.91169 22.93206,-51.80811 37.52924,-77.48023 15.08025,-26.5217 33.3924,-52.80401 58.04816,-78.61641"
       style="fill:none;fill-rule:evenodd;stroke:#7fa2ba;stroke-width:1.5;stroke-linecap:butt;stroke-linejoin:miter;stroke-miterlimit:4;stroke-dasharray:none;stroke-opacity:1" />
    <path
       sodipodi:nodetypes="cc"
       inkscape:connector-curvature="0"
       id="path4291"
       d="m 142.77889,308.19988 c -0.0183,-22.02393 1.8764,-44.36185 4.97176,-61.95584"
       style="fill:none;fill-rule:evenodd;stroke:#779fc7;stroke-width:1px;stroke-linecap:butt;stroke-linejoin:miter;stroke-opacity:1" />
    <path
       sodipodi:nodetypes="cc"
       inkscape:connector-curvature="0"
       id="path4289"
       d="M 145.67074,314.78462 C 121.92767,270.48208 130.3362,235.73697 134.85361,208.05556"
       style="fill:none;fill-rule:evenodd;stroke:#7fa2ba;stroke-width:1.5;stroke-linecap:round;stroke-linejoin:round;stroke-miterlimit:4;stroke-dasharray:none;stroke-opacity:1" />
    <path
       sodipodi:nodetypes="ccccc"
       inkscape:connector-curvature="0"
       id="path4295"
       d="m 131.60847,263.7638 c 5.86034,-6.69742 11.62836,-13.31124 18.20884,-17.84827 -7.67419,-13.07706 -8.09053,-23.33163 -7.21142,-33.0824 l -8.11286,-2.43386 c -5.5392,42.86581 -2.61773,41.03457 -2.88456,53.36453 z"
       style="fill:url(#linearGradient4303);fill-opacity:1;fill-rule:evenodd;stroke:#779fc7;stroke-width:1;stroke-linecap:round;stroke-linejoin:round;stroke-miterlimit:4;stroke-dasharray:none;stroke-opacity:1" />
    <circle
       r="2.2535696"
       cy="254.20866"
       cx="150.71873"
       id="path4319"
       style="opacity:0.8;fill:#779fc7;fill-opacity:1;stroke:none;stroke-width:8;stroke-linecap:round;stroke-linejoin:round;stroke-miterlimit:4;stroke-dasharray:none;stroke-opacity:1" />
    <circle
       style="opacity:0.8;fill:#779fc7;fill-opacity:1;stroke:none;stroke-width:8;stroke-linecap:round;stroke-linejoin:round;stroke-miterlimit:4;stroke-dasharray:none;stroke-opacity:1"
       id="circle4321"
       cx="148.55531"
       cy="275.48236"
       r="2.2535696" />
    <circle
       r="2.2535696"
       cy="298.46878"
       cx="147.11302"
       id="circle4323"
       style="opacity:0.8;fill:#779fc7;fill-opacity:1;stroke:none;stroke-width:1.5;stroke-linecap:round;stroke-linejoin:round;stroke-miterlimit:4;stroke-dasharray:none;stroke-opacity:1" />
    <path
       sodipodi:nodetypes="sssss"
       inkscape:connector-curvature="0"
       id="path4325"
       d="m 131.56055,214.37375 c 3.18171,-14.88049 -4.92637,30.35454 -3.56948,45.51077 1.62585,18.16039 8.06704,35.62831 13.89545,52.90468 5.08397,15.06971 -16.69255,-33.79248 -18.2298,-52.13979 -1.30656,-15.59396 3.08326,-23.73037 7.90383,-46.27566 z"
       style="fill:url(#linearGradient4333);fill-opacity:1;fill-rule:evenodd;stroke:none;stroke-width:1px;stroke-linecap:butt;stroke-linejoin:miter;stroke-opacity:1" />
    <path
       sodipodi:nodetypes="ssss"
       inkscape:connector-curvature="0"
       id="path4335"
       d="m 168.56701,323.97918 c 6.63684,4.35795 17.0879,7.21735 23.25684,7.39171 7.81577,0.22092 18.61087,-0.24463 24.15827,-5.58885 3.9463,-3.80177 -51.34023,-4.38021 -47.41511,-1.80286 z"
       style="fill:url(#linearGradient4343);fill-opacity:1;fill-rule:evenodd;stroke:none;stroke-width:1px;stroke-linecap:round;stroke-linejoin:round;stroke-opacity:1" />
    <path
       sodipodi:nodetypes="cssc"
       inkscape:connector-curvature="0"
       id="path4345"
       d="m 167.84586,324.97076 c 4.8057,2.84088 11.86786,6.03547 18.47927,7.03113 6.00458,0.90427 15.01669,0.29546 21.00328,-0.72113 4.37925,-0.74365 10.13319,-3.97093 10.09599,-5.22829"
       style="fill:none;fill-rule:evenodd;stroke:#b6c2cd;stroke-width:1px;stroke-linecap:round;stroke-linejoin:round;stroke-opacity:1" />
    <path
       style="fill:url(#linearGradient4349);fill-opacity:1;fill-rule:evenodd;stroke:none;stroke-width:1px;stroke-linecap:butt;stroke-linejoin:miter;stroke-opacity:1"
       d="m 228.52052,251.48513 c -16.25205,11.74467 -28.01968,20.87691 -40.16745,33.07107 -9.29343,9.32893 -34.90568,46.23107 -25.04623,30.54927 7.1283,-11.33782 13.5064,-23.45966 22.87531,-33.02952 12.08747,-12.34673 57.82974,-41.78578 42.33837,-30.59082 z"
       id="path4347"
       inkscape:connector-curvature="0"
       sodipodi:nodetypes="sssss" />
    <path
       sodipodi:nodetypes="sssss"
       inkscape:connector-curvature="0"
       id="path4351"
       d="m 224.95132,232.70961 c 4.87514,-0.96869 15.09278,-4.1348 19.42577,-4.28178 1.74361,-0.0591 1.98541,-10.03752 1.71271,-15.68484 -0.28129,-5.82523 1.5882,17.53583 0.54086,17.4877 -6.06083,-0.2785 -28.32136,3.7987 -21.67934,2.47892 z"
       style="fill:url(#linearGradient4359);fill-opacity:1;fill-rule:evenodd;stroke:none;stroke-width:1px;stroke-linecap:butt;stroke-linejoin:miter;stroke-opacity:1" />
  </g>
  <path
     style="opacity:1;fill:url(#linearGradient4279);fill-opacity:1;stroke:#901300;stroke-width:1.18639362;stroke-linecap:round;stroke-linejoin:round;stroke-miterlimit:4;stroke-dasharray:none;stroke-opacity:1"
     d="m 136.84462,219.40279 c -12.89261,-0.85988 -11.77567,-21.50627 1.03809,-21.05848 15.05543,0.52611 12.01765,21.92925 -1.03809,21.05848 z"
     id="path4262"
     inkscape:connector-curvature="0"
     sodipodi:nodetypes="sss" />
  <g
     id="highlights_blue"
     transform="matrix(0.6827409,0,0,0.6827409,-0.09028882,-0.10756226)">
    <path
       sodipodi:nodetypes="cccc"
       inkscape:connector-curvature="0"
       id="path4344"
       d="m 93.161543,235.67885 c 1.023926,17.26225 0.145339,35.98809 -1.17926,66.88089 l 8.760217,1.34773 C 99.178496,272.0271 96.245985,252.76221 93.161543,235.67885 Z"
       style="fill:url(#linearGradient4352);fill-opacity:1;fill-rule:evenodd;stroke:none;stroke-width:1px;stroke-linecap:butt;stroke-linejoin:miter;stroke-opacity:1" />
    <path
       style="fill:url(#linearGradient4356);fill-opacity:1;fill-rule:evenodd;stroke:none;stroke-width:1px;stroke-linecap:butt;stroke-linejoin:miter;stroke-opacity:1"
       d="m 282.51701,227.92943 c -18.89894,10.24235 -34.99576,30.9058 -44.4316,53.03818 -11.57423,27.14812 -15.07376,56.17256 -15.71066,74.49037 l 8.76022,1.34773 c 1.60544,-20.47978 4.79195,-46.93391 14.8104,-73.05511 7.55489,-19.69795 20.34259,-44.59749 36.57164,-55.82117 z"
       id="path4354"
       inkscape:connector-curvature="0"
       sodipodi:nodetypes="csccsc" />
    <path
       sodipodi:nodetypes="sssssss"
       inkscape:connector-curvature="0"
       id="path4358"
       d="m 246.29688,308.79297 c 0.69836,-12.12987 5.98496,-29.05558 11.11874,-40.93717 5.51663,-12.76765 9.40918,-19.46708 19.71049,-34.03007 5.18217,-7.32604 -2.44364,0.33371 -10.6936,11.64291 -4.75526,6.5186 -9.71789,14.81216 -12.55467,20.7025 -6.69204,13.89545 -12.09308,30.45592 -13.30879,42.2849 -0.19553,1.90256 5.6179,2.24635 5.72783,0.33693 z"
       style="fill:url(#radialGradient4368);fill-opacity:1;fill-rule:evenodd;stroke:none;stroke-width:1px;stroke-linecap:butt;stroke-linejoin:miter;stroke-opacity:1" />
    <path
       sodipodi:nodetypes="ssccss"
       inkscape:connector-curvature="0"
       id="path4406"
       d="m 249.92058,220.61626 c 18.00982,12.03523 21.72316,21.50023 27.39835,35.26049 10.21929,24.77803 10.21603,45.93119 9.76811,79.81258 4.85021,2.60379 12.25395,-2.49 14.77128,-7.38565 4.21434,-30.67292 -4.20902,-63.61182 -10.95934,-77.43011 -7.71695,-15.79704 -55.59606,-40.0257 -40.9784,-30.25731 z"
       style="fill:url(#linearGradient4414);fill-opacity:1;fill-rule:evenodd;stroke:none;stroke-width:1px;stroke-linecap:butt;stroke-linejoin:miter;stroke-opacity:1" />
  </g>
  <path
     inkscape:connector-curvature="0"
     id="path4284"
     d="m 136.93007,201.61609 -1.01712,5.12429 -4.39747,-0.80848 -0.62417,3.96624 4.10795,0.71023 -1.08494,5.04431 3.96624,0.62418 0.78934,-5.06865 4.0158,0.92585 0.81456,-4.47136 -4.47745,-0.74066 0.92498,-4.90868 z"
     style="fill:none;fill-opacity:1;fill-rule:evenodd;stroke:#000000;stroke-width:1.18639362px;stroke-linecap:butt;stroke-linejoin:round;stroke-opacity:0.57994582" />
  <path
     style="fill:#f6f6f6;fill-opacity:1;fill-rule:evenodd;stroke:#d5d5d5;stroke-width:1.18639362px;stroke-linecap:butt;stroke-linejoin:round;stroke-opacity:1"
     d="m 136.54646,201.16363 -1.01713,5.1243 -4.39746,-0.80848 -0.62418,3.96623 4.10796,0.71025 -1.08494,5.0443 3.96623,0.62417 0.78934,-5.06865 4.0158,0.92586 0.81457,-4.47137 -4.47745,-0.74066 0.92497,-4.90868 z"
     id="path4281"
     inkscape:connector-curvature="0" />
  <g
     id="stetoskop"
     transform="matrix(0.6827409,0,0,0.6827409,-0.09028882,-0.10756226)">
    <path
       style="fill:#999390;fill-opacity:1;fill-rule:evenodd;stroke:none;stroke-width:1px;stroke-linecap:butt;stroke-linejoin:miter;stroke-opacity:1"
       d="m 136.47618,336.59917 c -3.29029,-4.85002 -14.06616,-20.50109 -19.01138,-31.82563 -7.14091,-16.35269 -11.03736,-32.61058 -15.59064,-49.86372 -1.11953,-4.24211 -2.124931,-9.8651 -1.78473,-14.2335 2.00378,-1.49014 3.61566,-1.42616 7.54106,-4.49621 -3.31626,-2.20769 -5.82527,-3.3 -8.473426,-4.68742 4.295836,-4.77435 6.603256,-8.08748 12.385026,-15.52456 -0.90495,0.34735 -1.18461,0.56777 -2.20731,1.09518 -2.69681,4.0659 -9.13776,11.48163 -11.94964,14.73902 3.19548,1.22204 6.26168,2.32751 9.16551,4.35591 -3.86984,2.28246 -6.23797,3.73386 -7.670421,4.31779 -0.837945,4.35209 0.749631,9.99996 1.802851,14.83942 3.75929,17.27369 5.56596,34.09135 13.07712,50.09432 4.08641,8.70633 13.45507,22.01215 21.49532,33.87813 0.35913,-0.66947 0.82326,-1.79293 1.22066,-2.68873 z"
       id="path4285"
       inkscape:connector-curvature="0"
       sodipodi:nodetypes="csccccccccccscc" />
    <path
       sodipodi:nodetypes="cc"
       inkscape:connector-curvature="0"
       id="path4439"
       d="M 105.65614,322.40256 C 73.203754,307.57363 79.680557,285.53252 82.32671,265.93034"
       style="fill:none;fill-rule:evenodd;stroke:#5d5d5d;stroke-width:4;stroke-linecap:butt;stroke-linejoin:miter;stroke-miterlimit:4;stroke-dasharray:none;stroke-opacity:1" />
    <path
       sodipodi:nodetypes="cc"
       inkscape:connector-curvature="0"
       id="path4443"
       d="M 102.62233,319.80066 C 78.857039,307.30884 77.330496,290.44452 80.950529,270.46546"
       style="fill:none;fill-rule:evenodd;stroke:#ffffff;stroke-width:1px;stroke-linecap:round;stroke-linejoin:round;stroke-opacity:0.41666667" />
    <path
       style="fill:none;fill-rule:evenodd;stroke:#5d5d5d;stroke-width:4;stroke-linecap:butt;stroke-linejoin:miter;stroke-miterlimit:4;stroke-dasharray:none;stroke-opacity:1"
       d="m 76.080511,314.24376 c 27.402569,0.58529 36.723639,-13.46372 43.088249,-37.85997"
       id="path4437"
       inkscape:connector-curvature="0"
       sodipodi:nodetypes="cc" />
    <circle
       r="16.586271"
       cy="329.74832"
       cx="206.427"
       id="circle4393"
       style="opacity:1;fill:#090c0e;fill-opacity:1;stroke:none;stroke-width:1.5;stroke-linecap:round;stroke-linejoin:round;stroke-miterlimit:4;stroke-dasharray:none;stroke-opacity:1" />
    <circle
       style="opacity:1;fill:url(#radialGradient4391);fill-opacity:1;stroke:none;stroke-width:1.5;stroke-linecap:round;stroke-linejoin:round;stroke-miterlimit:4;stroke-dasharray:none;stroke-opacity:1"
       id="path4381"
       cx="204.44385"
       cy="330.46945"
       r="16.2257" />
    <circle
       style="opacity:1;fill:#f6f6f6;fill-opacity:1;stroke:url(#linearGradient4369);stroke-width:1.5;stroke-linecap:round;stroke-linejoin:round;stroke-miterlimit:4;stroke-dasharray:none;stroke-opacity:1"
       id="path4361"
       cx="204.63979"
       cy="329.73856"
       r="9.8797894" />
    <circle
       style="opacity:1;fill:url(#linearGradient4379);fill-opacity:1;stroke:none;stroke-width:1.5;stroke-linecap:round;stroke-linejoin:round;stroke-miterlimit:4;stroke-dasharray:none;stroke-opacity:1"
       id="path4371"
       cx="204.98969"
       cy="330.89154"
       r="8.0313129" />
    <path
       style="fill:none;fill-rule:evenodd;stroke:#000000;stroke-width:8;stroke-linecap:round;stroke-linejoin:round;stroke-miterlimit:4;stroke-dasharray:none;stroke-opacity:1"
       d="m 209.67212,312.26063 c 0,0 8.63052,-30.10264 11.1777,-47.77568 3.47912,-24.13912 9.118,-58.79571 1.262,-82.02994 -2.74967,-8.1322 -10.45656,-9.73543 -10.45656,-9.73543"
       id="path4397"
       inkscape:connector-curvature="0"
       sodipodi:nodetypes="cssc" />
    <path
       style="fill:none;fill-rule:evenodd;stroke:#000000;stroke-width:8;stroke-linecap:round;stroke-linejoin:round;stroke-miterlimit:4;stroke-dasharray:none;stroke-opacity:1"
       d="m 129.77581,198.82105 c 0,0 -4.84154,3.03951 -6.88398,6.37406 -5.7076,9.31835 -10.45346,33.1451 -10.45346,33.1451"
       id="path4404"
       inkscape:connector-curvature="0"
       sodipodi:nodetypes="csc" />
    <path
       style="fill:none;fill-rule:evenodd;stroke:#000000;stroke-width:8;stroke-linecap:round;stroke-linejoin:round;stroke-miterlimit:4;stroke-dasharray:none;stroke-opacity:1"
       d="m 118.55747,278.11433 c 0,0 7.13765,-15.26838 6.11909,-23.20157 -0.6833,-5.32198 -3.00374,-9.99301 -7.36297,-13.1215 -4.07608,-2.92528 -10.41183,-4.70417 -15.32867,-3.70601 -4.504513,0.91445 -8.569458,4.08592 -11.473304,7.64886 -4.57645,5.61518 -8.158793,20.14203 -8.158793,20.14203"
       id="path4407"
       inkscape:connector-curvature="0"
       sodipodi:nodetypes="cssssc" />
    <ellipse
       style="opacity:1;fill:#090c0e;fill-opacity:1;stroke:none;stroke-width:8;stroke-linecap:round;stroke-linejoin:round;stroke-miterlimit:4;stroke-dasharray:none;stroke-opacity:1"
       id="path4409"
       cx="103.99168"
       cy="304.22223"
       rx="9.7354212"
       ry="4.1465683"
       transform="matrix(0.99382389,0.11096884,-0.11096884,0.99382389,0,0)" />
    <ellipse
       transform="matrix(0.96901129,0.24701645,-0.24701645,0.96901129,0,0)"
       ry="4.1465683"
       rx="9.7354212"
       cy="286.19507"
       cx="188.86551"
       id="ellipse4411"
       style="opacity:1;fill:#090c0e;fill-opacity:1;stroke:none;stroke-width:8;stroke-linecap:round;stroke-linejoin:round;stroke-miterlimit:4;stroke-dasharray:none;stroke-opacity:1" />
    <ellipse
       style="opacity:1;fill:url(#linearGradient4421);fill-opacity:1;stroke:none;stroke-width:8;stroke-linecap:round;stroke-linejoin:round;stroke-miterlimit:4;stroke-dasharray:none;stroke-opacity:1"
       id="ellipse4413"
       cx="187.1151"
       cy="285.89706"
       rx="6.2211051"
       ry="2.64973"
       transform="matrix(0.96901129,0.24701645,-0.24701645,0.96901129,0,0)" />
    <ellipse
       transform="matrix(0.991051,0.1334838,-0.1334838,0.991051,0,0)"
       ry="2.64973"
       rx="6.2211051"
       cy="301.75592"
       cx="108.73182"
       id="ellipse4423"
       style="opacity:1;fill:url(#linearGradient4425);fill-opacity:1;stroke:none;stroke-width:8;stroke-linecap:round;stroke-linejoin:round;stroke-miterlimit:4;stroke-dasharray:none;stroke-opacity:1" />
    <path
       style="fill:url(#linearGradient4435);fill-opacity:1;fill-rule:evenodd;stroke:none;stroke-width:1px;stroke-linecap:butt;stroke-linejoin:miter;stroke-opacity:1"
       d="m 92.125927,240.68725 c 5.372762,-4.84014 10.623143,-5.47509 18.208843,-4.68743 0.58624,-3.21528 2.53604,-12.97356 5.25893,-21.08399 3.00427,-8.9485 9.68777,-17.47619 6.27935,-11.18712 -2.42201,4.46898 -3.41493,6.11023 -5.11583,11.06591 -2.20589,6.427 -3.33661,16.63719 -4.43932,21.92634 2.65933,1.05844 8.61728,6.36993 10.12694,10.53125 2.58361,7.12164 1.16752,19.26715 -2.84989,24.15826 -3.80261,4.6296 11.10061,-15.02464 -3.43824,-28.97317 -6.93026,-6.64887 -17.126119,-5.40261 -24.052657,0.84867 -1.408307,1.27101 -3.342629,3.59506 -5.083822,6.9505 -3.883021,7.48295 -7.312075,17.05618 -5.393924,9.98321 2.670883,-9.84859 5.848172,-15.3421 10.49962,-19.53243 z"
       id="path4427"
       inkscape:connector-curvature="0"
       sodipodi:nodetypes="scssscsssssss" />
    <path
       style="fill:none;fill-rule:evenodd;stroke:#ffffff;stroke-width:1px;stroke-linecap:round;stroke-linejoin:round;stroke-opacity:0.41666667"
       d="m 79.548237,313.4266 c 20.457663,-0.83255 30.008013,-8.95173 36.969533,-30.72295"
       id="path4441"
       inkscape:connector-curvature="0"
       sodipodi:nodetypes="cc" />
  </g>
  <g
     id="head_darker"
     transform="matrix(0.6827409,0,0,0.6827409,-0.09028882,-0.10756226)">
    <path
       sodipodi:nodetypes="sssssssss"
       inkscape:connector-curvature="0"
       id="path3400"
       d="m 104.24382,64.737365 c -9.193944,28.748545 -10.093095,70.691005 -2.57232,89.851665 8.48021,21.605 19.51592,49.76924 35.65693,63.58135 10.99732,9.41057 30.76615,0.44042 43.60371,-6.2452 18.87576,-9.83024 26.77753,-23.17765 37.06246,-37.39939 11.44978,-15.83247 24.78194,-32.77199 26.61759,-52.22437 C 246.68914,100.292 239.56964,76.136624 226.08096,58.621378 215.04571,44.291939 197.64649,31.589549 179.58442,30.656069 153.94445,29.33095 111.54088,41.920204 104.24382,64.737365 Z"
       style="fill:url(#radialGradient4302);fill-opacity:1;fill-rule:evenodd;stroke:#cd7c4b;stroke-width:1.5;stroke-linecap:round;stroke-linejoin:round;stroke-miterlimit:4;stroke-dasharray:none;stroke-opacity:1" />
    <path
       sodipodi:nodetypes="sccs"
       inkscape:connector-curvature="0"
       id="path3402"
       d="m 100.54003,123.41169 c -2.491588,-26.057174 0.15489,-60.255459 17.05965,-76.180316 61.89976,-57.875801 99.97793,24.141925 54.26045,54.157396 -16.41183,10.33688 -69.96315,36.21403 -71.3201,22.02292 z"
       style="fill:url(#linearGradient4210);fill-opacity:1;fill-rule:evenodd;stroke:none;stroke-width:1px;stroke-linecap:butt;stroke-linejoin:miter;stroke-opacity:1" />
    <path
       sodipodi:nodetypes="ssssss"
       inkscape:connector-curvature="0"
       id="path4304"
       d="m 140.56544,213.23062 c -5.21742,-4.35545 -3.78686,4.18761 3.83319,4.95634 8.32952,0.84031 22.19864,-1.8445 35.47748,-9.48302 16.14912,-9.28961 22.6654,-23.2118 37.4047,-42.64613 9.92738,-13.08964 -20.92151,30.80457 -42.16963,40.9784 -12.37852,5.92697 -30.9496,9.19643 -34.54574,6.19441 z"
       style="fill:url(#linearGradient4312);fill-opacity:1;fill-rule:evenodd;stroke:none;stroke-width:1px;stroke-linecap:butt;stroke-linejoin:miter;stroke-opacity:1" />
    <path
       sodipodi:nodetypes="sssss"
       inkscape:connector-curvature="0"
       id="path4314"
       d="m 215.53268,124.95458 c 4.12483,-3.71019 8.60203,-4.17282 10.16611,-3.17896 15.72438,9.99176 -10.18541,46.02762 -3.53247,38.72282 11.06204,-12.1459 21.89599,-45.60896 0.78913,-42.74906 -4.55852,0.61766 -8.76766,8.4149 -7.42277,7.2052 z"
       style="fill:url(#linearGradient4316);fill-opacity:1;fill-rule:evenodd;stroke:none;stroke-width:1px;stroke-linecap:butt;stroke-linejoin:miter;stroke-opacity:1" />
  </g>
  <g
     id="hair_brown"
     transform="matrix(0.6827409,0,0,0.6827409,-0.09028882,-0.10756226)">
    <path
       sodipodi:nodetypes="sssssssssssss"
       inkscape:connector-curvature="0"
       id="path4212"
       d="m 185.43933,64.944168 c 29.48537,16.54668 19.05093,28.56687 21.11043,63.695782 0.0799,1.36267 1.1355,3.05574 2.15418,1.68089 26.56151,-35.84844 44.16877,7.79447 11.43583,35.26048 -1.85724,1.5584 2.23426,8.03529 3.81195,6.19441 14.51632,-16.93791 24.97835,-33.91486 27.62656,-56.52317 2.9871,-25.501554 -1.25116,-62.823262 -19.39865,-80.986985 -17.86173,-17.87771 -43.94025,-20.045048 -68.98077,-16.635334 -20.73102,2.822898 -38.92087,10.257504 -54.62725,20.395318 -7.3753,4.76045 -15.653859,15.050678 -19.519376,18.083413 -4.538932,3.56107 12.812976,11.69801 15.977566,11.974322 14.71348,1.284687 32.20049,0.723318 48.28243,-1.559446 12.33468,-1.750854 23.96921,-6.157745 32.1271,-1.57968 z"
       style="fill:url(#linearGradient4233);fill-opacity:1;fill-rule:evenodd;stroke:#451900;stroke-width:1.5;stroke-linecap:butt;stroke-linejoin:miter;stroke-miterlimit:4;stroke-dasharray:none;stroke-opacity:1" />
    <path
       sodipodi:nodetypes="ssssssssss"
       style="fill:url(#linearGradient4236);fill-opacity:1;fill-rule:evenodd;stroke:none;stroke-width:1px;stroke-linecap:butt;stroke-linejoin:miter;stroke-opacity:1"
       d="m 195.85253,68.0711 c 12.51764,0.216313 29.2176,-22.977327 31.33641,-20.704411 18.49199,19.836917 16.34984,58.065191 15.94799,86.454901 -0.0176,1.24416 3.45443,0.39141 3.63726,-0.83936 4.91022,-33.053973 6.54983,-67.922609 -11.47136,-93.729431 C 223.77398,22.743176 200.39818,15.99185 178.22581,17.429231 147.57697,19.41612 111.68893,32.126618 93.169848,53.941739 c -5.376172,6.333026 21.156102,6.912795 33.854512,7.554312 16.77865,0.847648 38.17953,-8.577616 54.27913,-3.777156 5.7039,1.700746 8.59787,10.249365 14.54904,10.352205 z"
       id="path4227"
       inkscape:connector-curvature="0" />
    <path
       sodipodi:nodetypes="ssssssss"
       inkscape:connector-curvature="0"
       id="path4267"
       d="m 92.61027,56.459843 c 7.87889,1.613147 23.87542,4.35035 36.93219,4.19684 11.54463,-0.135732 24.42086,-3.781514 35.95293,-4.336735 5.65146,-0.272094 17.97851,1.273803 16.92726,1.259052 -5.50376,-0.07723 -11.02305,-0.885895 -16.50757,-0.419684 -11.50892,0.978314 -24.26872,4.80069 -35.81304,5.176103 -13.30201,0.432571 -29.35052,-1.362485 -37.77156,-3.637262 -0.725893,-0.196086 -0.45684,-2.389134 0.27979,-2.238314 z"
       style="fill:url(#linearGradient4277);fill-opacity:1;fill-rule:evenodd;stroke:none;stroke-width:1px;stroke-linecap:butt;stroke-linejoin:miter;stroke-opacity:1" />
  </g>
  <path
     style="fill:url(#linearGradient4259);fill-opacity:1;fill-rule:evenodd;stroke:none;stroke-width:1px;stroke-linecap:butt;stroke-linejoin:miter;stroke-opacity:1"
     d="m 106.49607,169.19407 4.65787,19.4784 2.22308,-4.02272 z"
     id="path3451"
     inkscape:connector-curvature="0"
     sodipodi:nodetypes="cccc" />
  <path
     inkscape:connector-curvature="0"
     id="path4261"
     d="m 100.21927,169.69823 c -4.339126,3.63962 -7.728702,7.65131 -10.861626,11.33016 l 0.368545,2.78841 z"
     style="fill:url(#linearGradient4263);fill-opacity:1;fill-rule:evenodd;stroke:none;stroke-width:1px;stroke-linecap:butt;stroke-linejoin:miter;stroke-opacity:1"
     sodipodi:nodetypes="cccc" />
</svg>
