<?xml version="1.0" encoding="utf-8"?>
<!-- Generator: Adobe Illustrator 20.1.0, SVG Export Plug-In . SVG Version: 6.00 Build 0)  -->
<svg version="1.1" id="Layer_1" xmlns="http://www.w3.org/2000/svg" xmlns:xlink="http://www.w3.org/1999/xlink" x="0px" y="0px"
	 viewBox="0 0 684 270" style="enable-background:new 0 0 684 270;" xml:space="preserve">
<style type="text/css">
	.st0{fill:#B9B4AC;}
	.st1{fill:#53565A;}
	.st2{fill:#7E8083;}
	.st3{fill:#F05A28;}
	.st4{fill:#D7D2CB;}
	.st5{fill:#662D91;}
	.st6{fill-rule:evenodd;clip-rule:evenodd;fill:#F05A28;}
	.st7{fill:#FCAE41;}
	.st8{fill:#FFFFFF;}
	.st9{clip-path:url(#SVGID_2_);fill:#662D91;}
</style>
<rect x="531" y="81" class="st0" width="144" height="189"/>
<rect x="553.5" y="135" class="st1" width="99" height="135"/>
<rect x="562.5" y="234" class="st2" width="36" height="27"/>
<rect x="562.5" y="180" class="st2" width="36" height="45"/>
<rect x="562.5" y="144" class="st2" width="36" height="27"/>
<rect x="607.5" y="234" class="st2" width="36" height="27"/>
<rect x="607.5" y="180" class="st2" width="36" height="45"/>
<rect x="607.5" y="144" class="st2" width="36" height="27"/>
<rect x="553.5" y="99" class="st3" width="99" height="36"/>
<rect x="153" y="18" class="st4" width="378" height="252"/>
<rect x="292.5" y="135" class="st1" width="99" height="135"/>
<rect x="409.5" y="135" class="st1" width="99" height="135"/>
<rect x="144" class="st5" width="396" height="18"/>
<rect x="301.5" y="180" class="st2" width="36" height="81"/>
<rect x="346.5" y="180" class="st2" width="36" height="81"/>
<rect x="301.5" y="144" class="st2" width="81" height="27"/>
<rect x="418.5" y="234" class="st2" width="36" height="27"/>
<rect x="418.5" y="180" class="st2" width="36" height="45"/>
<rect x="418.5" y="144" class="st2" width="36" height="27"/>
<rect x="463.5" y="234" class="st2" width="36" height="27"/>
<rect x="463.5" y="180" class="st2" width="36" height="45"/>
<rect x="463.5" y="144" class="st2" width="36" height="27"/>
<rect x="175.5" y="135" class="st1" width="99" height="135"/>
<rect x="184.5" y="234" class="st2" width="36" height="27"/>
<rect x="184.5" y="180" class="st2" width="36" height="45"/>
<rect x="184.5" y="144" class="st2" width="36" height="27"/>
<rect x="229.5" y="234" class="st2" width="36" height="27"/>
<rect x="229.5" y="180" class="st2" width="36" height="45"/>
<rect x="229.5" y="144" class="st2" width="36" height="27"/>
<rect x="175.5" y="99" class="st3" width="333" height="36"/>
<rect x="531" y="63" class="st5" width="153" height="18"/>
<rect x="9" y="81" class="st0" width="144" height="189"/>
<rect x="31.5" y="135" class="st1" width="99" height="135"/>
<rect x="40.5" y="234" class="st2" width="36" height="27"/>
<rect x="40.5" y="180" class="st2" width="36" height="45"/>
<rect x="40.5" y="144" class="st2" width="36" height="27"/>
<rect x="85.5" y="234" class="st2" width="36" height="27"/>
<rect x="85.5" y="180" class="st2" width="36" height="45"/>
<rect x="85.5" y="144" class="st2" width="36" height="27"/>
<rect x="31.5" y="99" class="st3" width="99" height="36"/>
<rect y="63" class="st5" width="153" height="18"/>
<g>
	<g>
		<path class="st6" d="M238.9,90c-1.9,0.3-17.9-30.9-21.4-34.6c-1.7-1.7-3.6-3.2-3.8-3.2c0-0.2,0.1-0.2,0.2-0.3
			c11.6-7.4,27.5-11.5,34.8-21.9c0.7-1,1.7-2.2,2.5-3.1c0.1,0,0.2,0.1,0.2,0.2c7.2,11.5,11.3,28,21.5,35.1c0.5,0.4,3.2,1.9,3.3,2.5
			c-0.1,0.1-0.1,0.1-0.2,0.2c-7.1,10.2-26.7,11.5-34.5,21.2C240.8,87.1,239.5,88.6,238.9,90"/>
		<path class="st7" d="M263.1,59.5c0,10.4-8.4,18.9-18.7,18.9c-10.3,0-18.7-8.5-18.7-18.9c0-10.4,8.4-18.9,18.7-18.9
			C254.7,40.6,263.1,49,263.1,59.5"/>
		<path class="st8" d="M247,57.5c-0.8-4.7,10.2-9.2,11.9-9.9c-0.1-0.2-0.3-0.3-0.4-0.5c-1.8,0.6-12.4,3.9-14.2,3.9
			c-1.8,0-12.3-3.3-14.2-3.9c-0.1,0.2-0.3,0.3-0.4,0.5c1.7,0.7,12.7,5.2,11.9,9.9c-0.4,2.2-1.2,5.4-3.3,9.9c-1.4,3-3.6,6.9-4.2,7.9
			c0.2,0.1,0.3,0.2,0.5,0.3c1-1.4,5.9-8.4,9.6-8.4c3.8,0,8.7,7,9.6,8.4c0.2-0.1,0.3-0.2,0.5-0.3c-0.6-1.1-2.9-4.9-4.2-7.9
			C248.2,62.9,247.4,59.8,247,57.5"/>
		<g>
			<g>
				<g>
					<path class="st5" d="M259.1,51.3l0-0.5c0,0-12.6,0.2-14.7,0.2c-2.1,0-14.7-0.2-14.7-0.2l0,0.5c0,0,12,1.2,12.2,6
						c0.1,2.3,0.1,4.3-1.4,9c-0.3,1-0.5,2.2-0.7,3.5c-0.5,3.3-0.7,7-0.7,7.8c0.2,0.1,0.4,0.1,0.6,0.2c0.1-1.3,0.9-10.4,4.8-10.4
						c3.8,0,4.7,9,4.8,10.4c0.2-0.1,0.4-0.1,0.6-0.2c0-0.8-0.2-4.5-0.7-7.8c-0.2-1.3-0.4-2.5-0.7-3.5c-1.5-4.7-1.5-6.7-1.4-9
						C247.1,52.5,259.1,51.3,259.1,51.3"/>
				</g>
			</g>
		</g>
		<g>
			<g>
				<g>
					<defs>
						<rect id="SVGID_1_" x="242.6" y="45.6" width="3.6" height="5.5"/>
					</defs>
					<clipPath id="SVGID_2_">
						<use xlink:href="#SVGID_1_"  style="overflow:visible;"/>
					</clipPath>
					<path class="st9" d="M246.1,48.5c0,1.6-0.8,2.6-1.8,2.6c-1,0-1.8-1-1.8-2.6c0-1.6,0.8-2.9,1.8-2.9
						C245.3,45.6,246.1,46.9,246.1,48.5"/>
				</g>
			</g>
		</g>
	</g>
	<g>
		<path class="st5" d="M288,36.7h20.1l-1.7,6.1h-13.1l-1.1,4.3H304l-1.5,5.8h-11.9l-2.4,9h-7L288,36.7z"/>
		<path class="st5" d="M319.1,36.5h6.8l3.9,25.3h-7.3l-0.6-4.5h-9.7l-3,4.5h-7.6L319.1,36.5z M321.3,51.9l-0.9-7.2l-4.7,7.2H321.3z"
			/>
		<path class="st5" d="M331.6,57.7l4.5-4.6c2.4,2.3,5,3.4,7.8,3.4c1.7,0,2.8-0.7,2.8-1.9c0-1-0.7-1.5-4.2-2.8
			c-4-1.5-6.5-3.2-6.5-6.9c0-5,4.5-8.6,10.7-8.6c4.4,0,7.9,1.4,10.3,3.7l-4.3,4.8c-1.9-1.7-4.1-2.8-6.6-2.8c-1.7,0-2.7,0.8-2.7,1.8
			c0,1,0.8,1.4,4.2,2.7c3.9,1.5,6.5,3.2,6.5,7c0,5.2-4.5,8.7-10.7,8.7C338.3,62.3,334.3,60.6,331.6,57.7z"/>
		<path class="st5" d="M366.2,42.8h-7.5l1.7-6.1h22l-1.6,6.1h-7.5l-5.1,19h-7L366.2,42.8z"/>
		<path class="st3" d="M385,36.7h7.4l6,9.7l6-9.7h7.4v25.2h-6.9V47.4l-6.4,9.8h-0.1l-6.4-9.8v14.4H385V36.7z"/>
		<path class="st3" d="M417,36.7h20.2v5.9h-13.3v3.8H436v5.5h-12.1v4h13.5v5.9H417V36.7z"/>
		<path class="st3" d="M441.9,36.7h9.7c9,0,14.2,5.2,14.2,12.4v0.1c0,7.3-5.3,12.6-14.3,12.6h-9.6V36.7z M451.7,55.6
			c4.2,0,6.9-2.3,6.9-6.4v-0.1c0-4-2.8-6.4-6.9-6.4h-2.8v12.8H451.7z"/>
	</g>
	<g>
		<path class="st3" d="M464.9,39.1c0,0.2,0.1,0.3,0.1,0.4c0.1,0.2,0.4,0.3,0.7,0.3c0.2,0,0.3,0,0.4-0.1c0.2-0.1,0.4-0.2,0.4-0.5
			c0-0.2-0.1-0.3-0.2-0.4c-0.1-0.1-0.3-0.1-0.5-0.2l-0.4-0.1c-0.3-0.1-0.5-0.1-0.6-0.2c-0.2-0.1-0.3-0.3-0.3-0.6
			c0-0.3,0.1-0.5,0.3-0.7c0.2-0.2,0.5-0.3,0.8-0.3c0.3,0,0.6,0.1,0.8,0.2c0.2,0.2,0.3,0.4,0.3,0.7h-0.4c0-0.2-0.1-0.3-0.1-0.4
			c-0.1-0.2-0.3-0.2-0.6-0.2c-0.2,0-0.4,0.1-0.5,0.2c-0.1,0.1-0.2,0.2-0.2,0.4c0,0.1,0.1,0.3,0.2,0.3c0.1,0,0.3,0.1,0.5,0.2l0.4,0.1
			c0.2,0,0.4,0.1,0.5,0.2c0.2,0.1,0.3,0.3,0.3,0.6c0,0.3-0.1,0.6-0.4,0.7c-0.2,0.1-0.5,0.2-0.9,0.2c-0.4,0-0.7-0.1-0.9-0.3
			c-0.2-0.2-0.3-0.5-0.3-0.8H464.9z M467.4,37.1h0.6l0.9,2.6l0.9-2.6h0.6v3h-0.4v-1.8c0-0.1,0-0.2,0-0.3c0-0.1,0-0.3,0-0.5l-0.9,2.6
			h-0.4l-0.9-2.6v0.1c0,0.1,0,0.2,0,0.3c0,0.2,0,0.3,0,0.3v1.8h-0.4V37.1z"/>
	</g>
	<g>
		<path class="st3" d="M281.1,78.2v-9.6h4.8v9.5c0,2.5,1.3,3.7,3.2,3.7c1.9,0,3.2-1.1,3.2-3.5v-9.7h4.8v9.5c0,5.5-3.2,8-8.1,8
			C284.2,86.1,281.1,83.6,281.1,78.2z"/>
		<path class="st3" d="M300,68.6h8.1c2.6,0,4.4,0.7,5.6,1.9c1,1,1.5,2.3,1.5,4v0c0,2.6-1.4,4.4-3.5,5.3l4.1,6h-5.5l-3.5-5.2h0h-2
			v5.2H300V68.6z M307.9,76.8c1.6,0,2.6-0.8,2.6-2v0c0-1.4-1-2-2.6-2h-3.1v4.1H307.9z"/>
		<path class="st3" d="M317.2,77.2L317.2,77.2c0-5.1,3.9-9,9.3-9c3,0,5.2,0.9,7,2.5l-2.8,3.4c-1.2-1-2.5-1.6-4.1-1.6
			c-2.5,0-4.4,2.1-4.4,4.7v0c0,2.8,1.9,4.8,4.7,4.8c1.2,0,2-0.2,2.7-0.7v-2.1h-3.4v-3.5h7.9v7.7c-1.8,1.5-4.3,2.7-7.5,2.7
			C321.2,86.1,317.2,82.4,317.2,77.2z"/>
		<path class="st3" d="M336.8,68.6h13.8v4.1h-9.1v2.6h8.2V79h-8.2v2.7h9.2v4.1h-13.9V68.6z"/>
		<path class="st3" d="M353.2,68.6h4.4l7.1,9.1v-9.1h4.7v17.2h-4.2l-7.3-9.4v9.4h-4.7V68.6z"/>
		<path class="st3" d="M376.8,72.8h-5.2v-4.2h15.1v4.2h-5.2v13h-4.8V72.8z"/>
		<path class="st3" d="M393.7,77.2L393.7,77.2c0-5.1,3.9-9,9.1-9c3.5,0,5.8,1.5,7.3,3.6l-3.6,2.8c-1-1.2-2.1-2-3.8-2
			c-2.4,0-4.1,2-4.1,4.5v0c0,2.6,1.7,4.6,4.1,4.6c1.8,0,2.8-0.8,3.9-2.1l3.6,2.6c-1.6,2.2-3.8,3.9-7.6,3.9
			C397.7,86.1,393.7,82.4,393.7,77.2z"/>
		<path class="st3" d="M418.1,68.5h4.6l7.3,17.3h-5.1l-1.3-3.1h-6.6l-1.2,3.1h-5L418.1,68.5z M422.3,79l-1.9-4.9l-1.9,4.9H422.3z"/>
		<path class="st3" d="M431.8,68.6h8.1c2.6,0,4.4,0.7,5.6,1.9c1,1,1.5,2.3,1.5,4v0c0,2.6-1.4,4.4-3.5,5.3l4.1,6h-5.5l-3.5-5.2h0h-2
			v5.2h-4.8V68.6z M439.7,76.8c1.6,0,2.6-0.8,2.6-2v0c0-1.4-1-2-2.6-2h-3.1v4.1H439.7z"/>
		<path class="st3" d="M449.6,68.6h13.8v4.1h-9.1v2.6h8.2V79h-8.2v2.7h9.2v4.1h-13.9V68.6z"/>
	</g>
</g>
</svg>
