<?xml version="1.0" encoding="UTF-8"?>
<!DOCTYPE svg PUBLIC "-//W3C//DTD SVG 1.1//EN" "http://www.w3.org/Graphics/SVG/1.1/DTD/svg11.dtd">
<svg version="1.1" xmlns="http://www.w3.org/2000/svg" xmlns:xlink="http://www.w3.org/1999/xlink" x="0" y="0" width="150" height="150" viewBox="0, 0, 150, 150">
  <defs>
    <linearGradient id="Gradient_1" gradientUnits="userSpaceOnUse" x1="28.497" y1="107.405" x2="28.497" y2="10.916">
      <stop offset="0" stop-color="#FFFFFE"/>
      <stop offset="0.242" stop-color="#FCDF1E"/>
      <stop offset="0.621" stop-color="#D2262D"/>
      <stop offset="1" stop-color="#D7262D"/>
    </linearGradient>
    <linearGradient id="Gradient_2" gradientUnits="userSpaceOnUse" x1="16.043" y1="93.261" x2="16.043" y2="20.066">
      <stop offset="0" stop-color="#FFFFFE"/>
      <stop offset="0.242" stop-color="#FCDF1E"/>
      <stop offset="0.621" stop-color="#D2262D"/>
      <stop offset="1" stop-color="#D7262D"/>
    </linearGradient>
    <clipPath id="Clip_1">
      <path d="M28.268,25.968 C23.015,32.237 11.493,44.437 9.629,54.942 C7.765,65.448 11.493,76.293 17.423,83.409 C9.958,77.936 4.737,69.744 3.878,60.474 L3.878,58.312 C4.324,50.245 8.974,43.219 14.712,37.83 C23.862,29.696 26.404,28.002 28.268,25.968 z"/>
    </clipPath>
    <linearGradient id="Gradient_3" gradientUnits="userSpaceOnUse" x1="45.062" y1="107.405" x2="45.062" y2="6.341">
      <stop offset="0" stop-color="#FFFFFE"/>
      <stop offset="0.242" stop-color="#FCDF1E"/>
      <stop offset="0.621" stop-color="#D2262D"/>
      <stop offset="1" stop-color="#D7262D"/>
    </linearGradient>
    <clipPath id="Clip_2">
      <path d="M47.754,28.848 C53.007,36.135 61.479,57.823 51.82,74.599 C54.87,72.733 59.276,68.497 60.97,63.924 C59.622,79.833 50.402,90.533 34.379,91.652 L33.481,91.652 C29.203,84.544 28.081,77.446 30.366,69.373 C30.6,68.545 31.001,67.773 31.318,66.973 C33.351,63.076 40.468,54.605 43.857,46.809 C47.245,39.014 47.923,34.27 47.754,28.848 z"/>
    </clipPath>
    <linearGradient id="Gradient_4" gradientUnits="userSpaceOnUse" x1="40.09" y1="89.448" x2="40.09" y2="44.464">
      <stop offset="0" stop-color="#FFFBE5"/>
      <stop offset="0.753" stop-color="#FFE21A"/>
      <stop offset="1" stop-color="#E3732B"/>
    </linearGradient>
    <linearGradient id="Gradient_5" gradientUnits="userSpaceOnUse" x1="28.832" y1="82.23" x2="28.832" y2="-16.963">
      <stop offset="0" stop-color="#FFFFFE"/>
      <stop offset="0.242" stop-color="#FFE21A"/>
      <stop offset="0.621" stop-color="#D2262D"/>
      <stop offset="1" stop-color="#D7262D"/>
    </linearGradient>
    <linearGradient id="Gradient_6" gradientUnits="userSpaceOnUse" x1="31.155" y1="84.024" x2="31.155" y2="15.796">
      <stop offset="0" stop-color="#FFFBE5"/>
      <stop offset="0.692" stop-color="#FFE215"/>
      <stop offset="1" stop-color="#EC912D"/>
    </linearGradient>
  </defs>
  <g id="Layer_4">
    <path d="M37.079,3.348 C37.079,3.348 46.229,18.09 44.704,32.577 C43.094,47.15 33.266,53.758 28.437,64.941 C23.608,76.124 26.403,87.731 30.47,90.781 C25.133,86.967 11.153,79.852 12.17,61.044 C12.679,55.197 16.237,44.777 24.88,34.61 C33.52,24.443 39.112,20.377 37.079,3.348 z" fill="url(#Gradient_1)"/>
    <g clip-path="url(#Clip_1)">
      <path d="M28.268,25.968 C23.015,32.237 11.493,44.437 9.629,54.942 C7.765,65.448 11.493,76.293 17.423,83.409 C9.958,77.937 4.736,69.743 3.878,60.472 L3.878,58.312 C4.324,50.245 8.974,43.219 14.712,37.83 C23.862,29.696 26.404,28.002 28.268,25.968 z" fill="url(#Gradient_2)"/>
    </g>
    <g clip-path="url(#Clip_2)">
      <path d="M47.754,28.848 C53.007,36.135 61.479,57.823 51.82,74.599 C54.87,72.733 59.276,68.497 60.97,63.924 C59.621,79.833 50.402,90.532 34.379,91.652 L33.481,91.652 C29.203,84.545 28.082,77.445 30.366,69.373 C30.6,68.545 31.001,67.773 31.318,66.973 C33.351,63.076 40.468,54.605 43.857,46.809 C47.245,39.014 47.923,34.27 47.754,28.848 z" fill="url(#Gradient_3)"/>
    </g>
    <path d="M34.368,89.848 C34.368,89.848 29.191,80.578 35.045,71.379 C39.79,63.925 44.704,62.399 47.585,54.266 C48.093,62.737 47.754,73.921 40.468,83.41 C43.518,82.902 45.382,81.885 47.923,80.191 C46.229,83.749 43.009,88.324 34.368,89.848 z" fill="url(#Gradient_4)"/>
    <path d="M25.855,85.51 C25.855,85.51 11.153,68.838 21.49,51.725 C28.607,39.354 37.772,38.584 39.803,20.663 C39.803,33.595 41.159,39.939 30.073,54.349 C22.799,63.807 21.11,76.529 25.855,85.51 z" fill="url(#Gradient_5)"/>
    <path d="M44.075,4.983 C44.075,4.983 48.199,16.979 35.841,34.201 C26.869,46.704 9.154,65.291 27.953,87.969 C20.329,80.08 12.958,66.342 21.183,50.107 C28.676,35.317 46.884,25.786 44.075,4.983 z" fill="url(#Gradient_6)"/>
  </g>
  <g id="Layer_1">
    <path d="M64.785,47.744 L79.628,47.744 L79.628,50.428 L67.87,50.428 L67.87,61.56 L79.091,61.56 L79.091,64.242 L67.87,64.242 L67.87,78.951 L64.785,78.951 L64.785,47.744" fill="#D8232A"/>
    <path d="M85.127,47.744 L88.212,47.744 L88.212,61.56 L103.995,61.56 L103.995,47.744 L107.079,47.744 L107.079,78.951 L103.995,78.951 L103.995,64.242 L88.212,64.242 L88.212,78.951 L85.127,78.951 L85.127,47.744" fill="#D8232A"/>
    <path d="M113.821,47.744 L116.905,47.744 L116.905,78.951 L113.821,78.951 z" fill="#D8232A"/>
    <path d="M127.959,61.56 L131.223,61.56 C134.844,61.56 139.002,60.174 139.002,55.837 C139.002,50.74 135.379,50.428 131.133,50.428 L127.959,50.428 L127.959,61.56 z M124.873,47.744 L132.92,47.744 C138.465,47.744 142.086,50.114 142.086,55.837 C142.086,59.861 139.002,62.543 135.157,63.035 L135.157,63.125 C137.661,63.437 138.198,64.779 139.18,66.88 L144.5,78.951 L141.102,78.951 L136.586,68.4 C134.799,64.377 133.457,64.242 130.506,64.242 L127.959,64.242 L127.959,78.951 L124.873,78.951 L124.873,47.744" fill="#D8232A"/>
    <g>
      <path d="M143.804,49.651 L143.804,48.784 L144.588,48.784 Q144.828,48.784 144.945,48.901 Q145.063,49.018 145.063,49.222 Q145.063,49.324 145.024,49.403 Q144.986,49.481 144.921,49.537 Q144.856,49.592 144.77,49.622 Q144.683,49.651 144.588,49.651 z M143.594,48.605 L143.594,50.808 L143.804,50.808 L143.804,49.83 L144.6,49.83 Q144.748,49.824 144.833,49.879 Q144.918,49.935 144.962,50.026 Q145.007,50.117 145.021,50.232 Q145.035,50.348 145.041,50.465 Q145.044,50.499 145.047,50.545 Q145.05,50.592 145.055,50.639 Q145.06,50.687 145.07,50.732 Q145.081,50.777 145.1,50.808 L145.331,50.808 Q145.297,50.767 145.277,50.695 Q145.257,50.622 145.248,50.541 Q145.238,50.459 145.235,50.379 Q145.232,50.299 145.229,50.243 Q145.223,50.144 145.203,50.06 Q145.183,49.975 145.138,49.91 Q145.093,49.845 145.023,49.803 Q144.952,49.762 144.844,49.746 L144.844,49.74 Q145.056,49.697 145.164,49.543 Q145.272,49.389 145.272,49.179 Q145.272,49.031 145.218,48.921 Q145.164,48.812 145.073,48.742 Q144.982,48.673 144.861,48.639 Q144.739,48.605 144.603,48.605 z" fill="#D8232A"/>
      <path d="M143.804,49.651 L143.804,48.784 L144.588,48.784 Q144.828,48.784 144.945,48.901 Q145.063,49.018 145.063,49.222 Q145.063,49.324 145.024,49.403 Q144.986,49.481 144.921,49.537 Q144.856,49.592 144.77,49.622 Q144.683,49.651 144.588,49.651 z M143.594,48.605 L143.594,50.808 L143.804,50.808 L143.804,49.83 L144.6,49.83 Q144.748,49.824 144.833,49.879 Q144.918,49.935 144.962,50.026 Q145.007,50.117 145.021,50.232 Q145.035,50.348 145.041,50.465 Q145.044,50.499 145.047,50.545 Q145.05,50.592 145.055,50.639 Q145.06,50.687 145.07,50.732 Q145.081,50.777 145.1,50.808 L145.331,50.808 Q145.297,50.767 145.277,50.695 Q145.257,50.622 145.248,50.541 Q145.238,50.459 145.235,50.379 Q145.232,50.299 145.229,50.243 Q145.223,50.144 145.203,50.06 Q145.183,49.975 145.138,49.91 Q145.093,49.845 145.023,49.803 Q144.952,49.762 144.844,49.746 L144.844,49.74 Q145.056,49.697 145.164,49.543 Q145.272,49.389 145.272,49.179 Q145.272,49.031 145.218,48.921 Q145.164,48.812 145.073,48.742 Q144.982,48.673 144.861,48.639 Q144.739,48.605 144.603,48.605 z" fill-opacity="0" stroke="#D8232A" stroke-width="0.25"/>
    </g>
    <path d="M144.463,51.669 C143.379,51.669 142.5,50.79 142.5,49.706 C142.5,48.623 143.379,47.744 144.463,47.744 C145.546,47.744 146.425,48.623 146.425,49.706 C146.425,50.79 145.546,51.669 144.463,51.669 z" fill-opacity="0" stroke="#D8232A" stroke-width="0.5"/>
  </g>
  <g id="Layer_2">
    <g>
      <path d="M7.555,118.042 L7.555,104.096 L18.642,104.096 Q26.27,104.096 26.27,111.425 Q26.27,112.792 25.796,113.995 Q25.322,115.198 24.375,116.1 Q23.427,117.003 22.006,117.522 Q20.584,118.042 18.642,118.042 z M4.333,100.924 L4.333,139.972 L18.642,139.972 Q21.39,139.972 23.356,139.398 Q25.322,138.823 26.673,137.921 Q28.023,137.019 28.829,135.816 Q29.634,134.612 30.06,133.382 Q30.487,132.151 30.629,130.976 Q30.771,129.8 30.771,128.87 Q30.771,125.042 28.829,122.444 Q26.886,119.847 23.617,119.354 L23.617,119.245 Q24.943,118.917 26.009,118.097 Q27.076,117.276 27.857,116.1 Q28.639,114.925 29.066,113.475 Q29.492,112.026 29.492,110.495 Q29.492,107.76 28.592,105.928 Q27.691,104.096 26.199,102.975 Q24.707,101.854 22.74,101.389 Q20.774,100.924 18.642,100.924 z M7.555,136.8 L7.555,121.214 L18.642,121.214 Q22.953,121.214 25.251,123.101 Q27.549,124.987 27.549,128.761 Q27.549,131.112 26.839,132.671 Q26.128,134.23 24.896,135.159 Q23.664,136.089 22.053,136.445 Q20.442,136.8 18.642,136.8 z" fill="#606060"/>
      <path d="M34.344,100.542 L34.344,139.589 L37.634,139.589 L37.634,100.542 z" fill="#606060"/>
      <path d="M55.339,113.448 Q57.69,113.448 59.465,114.487 Q61.241,115.526 62.416,117.222 Q63.591,118.917 64.192,121.077 Q64.793,123.237 64.793,125.479 Q64.793,127.722 64.192,129.882 Q63.591,132.042 62.416,133.737 Q61.241,135.433 59.465,136.472 Q57.69,137.511 55.339,137.511 Q52.989,137.511 51.213,136.472 Q49.438,135.433 48.262,133.737 Q47.087,132.042 46.487,129.882 Q45.886,127.722 45.886,125.479 Q45.886,123.237 46.487,121.077 Q47.087,118.917 48.262,117.222 Q49.438,115.526 51.213,114.487 Q52.989,113.448 55.339,113.448 z M55.339,110.55 Q52.258,110.55 49.882,111.753 Q47.505,112.956 45.886,114.979 Q44.267,117.003 43.431,119.71 Q42.596,122.417 42.596,125.479 Q42.596,128.542 43.431,131.249 Q44.267,133.956 45.886,135.98 Q47.505,138.003 49.882,139.179 Q52.258,140.355 55.339,140.355 Q58.421,140.355 60.797,139.179 Q63.173,138.003 64.793,135.98 Q66.412,133.956 67.247,131.249 Q68.083,128.542 68.083,125.479 Q68.083,122.417 67.247,119.71 Q66.412,117.003 64.793,114.979 Q63.173,112.956 60.797,111.753 Q58.421,110.55 55.339,110.55 z" fill="#606060"/>
      <path d="M92.003,120.229 L95.293,120.229 Q94.719,115.362 91.716,112.956 Q88.713,110.55 84.378,110.55 Q81.296,110.55 78.92,111.753 Q76.544,112.956 74.925,114.979 Q73.306,117.003 72.47,119.71 Q71.634,122.417 71.634,125.479 Q71.634,128.542 72.47,131.249 Q73.306,133.956 74.925,135.98 Q76.544,138.003 78.92,139.179 Q81.296,140.355 84.378,140.355 Q88.974,140.355 91.899,137.484 Q94.823,134.612 95.502,129.472 L92.212,129.472 Q92.055,131.222 91.376,132.698 Q90.697,134.175 89.653,135.241 Q88.608,136.308 87.25,136.909 Q85.893,137.511 84.378,137.511 Q82.028,137.511 80.252,136.472 Q78.476,135.433 77.301,133.737 Q76.126,132.042 75.525,129.882 Q74.925,127.722 74.925,125.479 Q74.925,123.237 75.525,121.077 Q76.126,118.917 77.301,117.222 Q78.476,115.526 80.252,114.487 Q82.028,113.448 84.378,113.448 Q87.668,113.448 89.496,115.253 Q91.324,117.057 92.003,120.229 z" fill="#606060"/>
      <path d="M100.098,100.542 L100.098,139.589 L103.389,139.589 L103.389,128.87 L108.716,124.222 L119.37,139.589 L123.496,139.589 L111.223,121.815 L122.713,111.37 L118.326,111.37 L103.389,125.042 L103.389,100.542 z" fill="#606060"/>
      <path d="M142.351,119.628 L145.641,119.628 Q145.536,117.331 144.753,115.636 Q143.97,113.94 142.638,112.792 Q141.306,111.643 139.556,111.096 Q137.807,110.55 135.77,110.55 Q133.994,110.55 132.192,110.987 Q130.39,111.425 128.928,112.354 Q127.466,113.284 126.552,114.815 Q125.638,116.347 125.638,118.479 Q125.638,120.284 126.212,121.515 Q126.787,122.745 127.805,123.593 Q128.824,124.44 130.182,125.015 Q131.539,125.589 133.159,126.026 L137.389,127.011 Q138.486,127.284 139.556,127.667 Q140.627,128.05 141.463,128.624 Q142.298,129.198 142.795,130.046 Q143.291,130.894 143.291,132.151 Q143.291,133.628 142.586,134.64 Q141.881,135.652 140.784,136.308 Q139.687,136.964 138.407,137.237 Q137.128,137.511 135.927,137.511 Q132.636,137.511 130.417,135.734 Q128.197,133.956 127.988,130.456 L124.698,130.456 Q125.115,135.652 128.066,138.003 Q131.017,140.355 135.77,140.355 Q137.65,140.355 139.583,139.917 Q141.515,139.48 143.056,138.468 Q144.596,137.456 145.589,135.843 Q146.581,134.23 146.581,131.933 Q146.581,130.073 145.902,128.706 Q145.223,127.339 144.152,126.409 Q143.082,125.479 141.698,124.905 Q140.314,124.331 138.904,124.112 L134.516,123.073 Q133.681,122.854 132.688,122.499 Q131.696,122.144 130.861,121.597 Q130.025,121.05 129.476,120.257 Q128.928,119.464 128.928,118.315 Q128.928,116.948 129.503,116.018 Q130.077,115.089 131.017,114.514 Q131.957,113.94 133.08,113.694 Q134.203,113.448 135.3,113.448 Q136.71,113.448 137.963,113.804 Q139.217,114.159 140.183,114.925 Q141.149,115.69 141.724,116.866 Q142.298,118.042 142.351,119.628 z" fill="#606060"/>
    </g>
  </g>
</svg>
