<?xml version="1.0" encoding="UTF-8"?>
<!DOCTYPE svg PUBLIC "-//W3C//DTD SVG 1.1//EN" "http://www.w3.org/Graphics/SVG/1.1/DTD/svg11.dtd">
<svg version="1.1" xmlns="http://www.w3.org/2000/svg" xmlns:xlink="http://www.w3.org/1999/xlink" x="0" y="0" width="148" height="89" viewBox="0, 0, 148, 89">
  <defs>
    <linearGradient id="Gradient_1" gradientUnits="userSpaceOnUse" x1="24.678" y1="104.692" x2="24.678" y2="8.204">
      <stop offset="0" stop-color="#FFFFFE"/>
      <stop offset="0.242" stop-color="#FCDF1E"/>
      <stop offset="0.621" stop-color="#D2262D"/>
      <stop offset="1" stop-color="#D7262D"/>
    </linearGradient>
    <linearGradient id="Gradient_2" gradientUnits="userSpaceOnUse" x1="12.225" y1="90.549" x2="12.225" y2="17.354">
      <stop offset="0" stop-color="#FFFFFE"/>
      <stop offset="0.242" stop-color="#FCDF1E"/>
      <stop offset="0.621" stop-color="#D2262D"/>
      <stop offset="1" stop-color="#D7262D"/>
    </linearGradient>
    <clipPath id="Clip_1">
      <path d="M24.45,23.256 C19.197,29.525 7.675,41.725 5.811,52.23 C3.947,62.736 7.675,73.581 13.605,80.697 C6.14,75.224 0.918,67.031 0.06,57.761 L0.06,55.599 C0.505,47.533 5.156,40.506 10.894,35.118 C20.044,26.984 22.586,25.29 24.45,23.256 z"/>
    </clipPath>
    <linearGradient id="Gradient_3" gradientUnits="userSpaceOnUse" x1="41.244" y1="104.692" x2="41.244" y2="3.628">
      <stop offset="0" stop-color="#FFFFFE"/>
      <stop offset="0.242" stop-color="#FCDF1E"/>
      <stop offset="0.621" stop-color="#D2262D"/>
      <stop offset="1" stop-color="#D7262D"/>
    </linearGradient>
    <clipPath id="Clip_2">
      <path d="M43.936,26.136 C49.189,33.423 57.661,55.111 48.002,71.887 C51.052,70.021 55.458,65.785 57.152,61.212 C55.803,77.12 46.583,87.82 30.56,88.94 L29.662,88.94 C25.385,81.831 24.263,74.734 26.547,66.661 C26.782,65.833 27.182,65.061 27.5,64.261 C29.533,60.364 36.65,51.893 40.039,44.097 C43.427,36.302 44.105,31.558 43.936,26.136 z"/>
    </clipPath>
    <linearGradient id="Gradient_4" gradientUnits="userSpaceOnUse" x1="36.271" y1="86.735" x2="36.271" y2="41.751">
      <stop offset="0" stop-color="#FFFBE5"/>
      <stop offset="0.753" stop-color="#FFE21A"/>
      <stop offset="1" stop-color="#E3732B"/>
    </linearGradient>
    <linearGradient id="Gradient_5" gradientUnits="userSpaceOnUse" x1="25.013" y1="79.518" x2="25.013" y2="-19.675">
      <stop offset="0" stop-color="#FFFFFE"/>
      <stop offset="0.242" stop-color="#FFE21A"/>
      <stop offset="0.621" stop-color="#D2262D"/>
      <stop offset="1" stop-color="#D7262D"/>
    </linearGradient>
    <linearGradient id="Gradient_6" gradientUnits="userSpaceOnUse" x1="27.336" y1="81.312" x2="27.336" y2="13.083">
      <stop offset="0" stop-color="#FFFBE5"/>
      <stop offset="0.692" stop-color="#FFE215"/>
      <stop offset="1" stop-color="#EC912D"/>
    </linearGradient>
  </defs>
  <g id="Layer_1">
    <path d="M64.785,47.744 L79.628,47.744 L79.628,50.428 L67.87,50.428 L67.87,61.56 L79.091,61.56 L79.091,64.242 L67.87,64.242 L67.87,78.951 L64.785,78.951 L64.785,47.744" fill="#D8232A"/>
    <path d="M85.127,47.744 L88.212,47.744 L88.212,61.56 L103.995,61.56 L103.995,47.744 L107.079,47.744 L107.079,78.951 L103.995,78.951 L103.995,64.242 L88.212,64.242 L88.212,78.951 L85.127,78.951 L85.127,47.744" fill="#D8232A"/>
    <path d="M113.821,47.744 L116.905,47.744 L116.905,78.951 L113.821,78.951 z" fill="#D8232A"/>
    <path d="M127.959,61.56 L131.223,61.56 C134.844,61.56 139.002,60.174 139.002,55.837 C139.002,50.74 135.379,50.428 131.133,50.428 L127.959,50.428 L127.959,61.56 z M124.873,47.744 L132.92,47.744 C138.465,47.744 142.086,50.114 142.086,55.837 C142.086,59.861 139.002,62.543 135.157,63.035 L135.157,63.125 C137.661,63.437 138.198,64.779 139.18,66.88 L144.5,78.951 L141.102,78.951 L136.586,68.4 C134.799,64.377 133.457,64.242 130.506,64.242 L127.959,64.242 L127.959,78.951 L124.873,78.951 L124.873,47.744" fill="#D8232A"/>
    <path d="M33.261,0.635 C33.261,0.635 42.411,15.377 40.886,29.864 C39.276,44.437 29.448,51.045 24.619,62.228 C19.79,73.411 22.585,85.018 26.652,88.068 C21.315,84.254 7.335,77.139 8.352,58.331 C8.861,52.484 12.419,42.064 21.062,31.897 C29.702,21.73 35.294,17.664 33.261,0.635 z" fill="url(#Gradient_1)"/>
    <g clip-path="url(#Clip_1)">
      <path d="M24.45,23.256 C19.197,29.525 7.675,41.725 5.811,52.23 C3.947,62.736 7.675,73.581 13.605,80.697 C6.14,75.224 0.918,67.03 0.06,57.76 L0.06,55.599 C0.505,47.533 5.156,40.506 10.894,35.118 C20.044,26.984 22.586,25.29 24.45,23.256 z" fill="url(#Gradient_2)"/>
    </g>
    <g clip-path="url(#Clip_2)">
      <path d="M43.936,26.136 C49.189,33.423 57.661,55.111 48.002,71.887 C51.052,70.021 55.458,65.785 57.152,61.212 C55.803,77.12 46.584,87.82 30.56,88.94 L29.662,88.94 C25.385,81.832 24.263,74.733 26.547,66.661 C26.782,65.833 27.182,65.061 27.5,64.261 C29.533,60.364 36.65,51.893 40.039,44.097 C43.427,36.302 44.105,31.558 43.936,26.136 z" fill="url(#Gradient_3)"/>
    </g>
    <path d="M30.55,87.135 C30.55,87.135 25.373,77.865 31.227,68.666 C35.972,61.212 40.886,59.686 43.767,51.553 C44.275,60.024 43.936,71.208 36.65,80.697 C39.7,80.189 41.564,79.172 44.105,77.478 C42.411,81.036 39.191,85.611 30.55,87.135 z" fill="url(#Gradient_4)"/>
    <path d="M22.037,82.797 C22.037,82.797 7.335,66.125 17.672,49.012 C24.789,36.641 33.954,35.871 35.985,17.95 C35.985,30.882 37.341,37.226 26.255,51.636 C18.981,61.094 17.292,73.816 22.037,82.797 z" fill="url(#Gradient_5)"/>
    <path d="M40.257,2.27 C40.257,2.27 44.381,14.266 32.023,31.488 C23.051,43.991 5.336,62.578 24.135,85.256 C16.511,77.367 9.14,63.629 17.365,47.394 C24.858,32.604 43.066,23.073 40.257,2.27 z" fill="url(#Gradient_6)"/>
    <g>
      <path d="M143.804,49.651 L143.804,48.784 L144.588,48.784 Q144.828,48.784 144.945,48.901 Q145.063,49.018 145.063,49.222 Q145.063,49.324 145.024,49.403 Q144.986,49.481 144.921,49.537 Q144.856,49.592 144.77,49.622 Q144.683,49.651 144.588,49.651 z M143.594,48.605 L143.594,50.808 L143.804,50.808 L143.804,49.83 L144.6,49.83 Q144.748,49.824 144.833,49.879 Q144.918,49.935 144.962,50.026 Q145.007,50.117 145.021,50.232 Q145.035,50.348 145.041,50.465 Q145.044,50.499 145.047,50.545 Q145.05,50.592 145.055,50.639 Q145.06,50.687 145.07,50.732 Q145.081,50.777 145.1,50.808 L145.331,50.808 Q145.297,50.767 145.277,50.695 Q145.257,50.622 145.248,50.541 Q145.238,50.459 145.235,50.379 Q145.232,50.299 145.229,50.243 Q145.223,50.144 145.203,50.06 Q145.183,49.975 145.138,49.91 Q145.093,49.845 145.023,49.803 Q144.952,49.762 144.844,49.746 L144.844,49.74 Q145.056,49.697 145.164,49.543 Q145.272,49.389 145.272,49.179 Q145.272,49.031 145.218,48.921 Q145.164,48.812 145.073,48.742 Q144.982,48.673 144.861,48.639 Q144.739,48.605 144.603,48.605 z" fill="#D8232A"/>
      <path d="M143.804,49.651 L143.804,48.784 L144.588,48.784 Q144.828,48.784 144.945,48.901 Q145.063,49.018 145.063,49.222 Q145.063,49.324 145.024,49.403 Q144.986,49.481 144.921,49.537 Q144.856,49.592 144.77,49.622 Q144.683,49.651 144.588,49.651 z M143.594,48.605 L143.594,50.808 L143.804,50.808 L143.804,49.83 L144.6,49.83 Q144.748,49.824 144.833,49.879 Q144.918,49.935 144.962,50.026 Q145.007,50.117 145.021,50.232 Q145.035,50.348 145.041,50.465 Q145.044,50.499 145.047,50.545 Q145.05,50.592 145.055,50.639 Q145.06,50.687 145.07,50.732 Q145.081,50.777 145.1,50.808 L145.331,50.808 Q145.297,50.767 145.277,50.695 Q145.257,50.622 145.248,50.541 Q145.238,50.459 145.235,50.379 Q145.232,50.299 145.229,50.243 Q145.223,50.144 145.203,50.06 Q145.183,49.975 145.138,49.91 Q145.093,49.845 145.023,49.803 Q144.952,49.762 144.844,49.746 L144.844,49.74 Q145.056,49.697 145.164,49.543 Q145.272,49.389 145.272,49.179 Q145.272,49.031 145.218,48.921 Q145.164,48.812 145.073,48.742 Q144.982,48.673 144.861,48.639 Q144.739,48.605 144.603,48.605 z" fill-opacity="0" stroke="#D8232A" stroke-width="0.25"/>
    </g>
    <path d="M144.463,51.669 C143.379,51.669 142.5,50.79 142.5,49.706 C142.5,48.623 143.379,47.744 144.463,47.744 C145.546,47.744 146.425,48.623 146.425,49.706 C146.425,50.79 145.546,51.669 144.463,51.669 z" fill-opacity="0" stroke="#D8232A" stroke-width="0.5"/>
  </g>
</svg>
