<?xml version="1.0" encoding="UTF-8"?>
<!DOCTYPE svg PUBLIC "-//W3C//DTD SVG 1.1//EN" "http://www.w3.org/Graphics/SVG/1.1/DTD/svg11.dtd">
<svg version="1.1" xmlns="http://www.w3.org/2000/svg" xmlns:xlink="http://www.w3.org/1999/xlink" x="0" y="0" width="271" height="92" viewBox="0, 0, 271, 92">
  <defs>
    <linearGradient id="Gradient_1" gradientUnits="userSpaceOnUse" x1="28.497" y1="107.405" x2="28.497" y2="10.916">
      <stop offset="0" stop-color="#FFFFFE"/>
      <stop offset="0.242" stop-color="#FCDF1E"/>
      <stop offset="0.621" stop-color="#D2262D"/>
      <stop offset="1" stop-color="#D7262D"/>
    </linearGradient>
    <linearGradient id="Gradient_2" gradientUnits="userSpaceOnUse" x1="16.043" y1="93.261" x2="16.043" y2="20.066">
      <stop offset="0" stop-color="#FFFFFE"/>
      <stop offset="0.242" stop-color="#FCDF1E"/>
      <stop offset="0.621" stop-color="#D2262D"/>
      <stop offset="1" stop-color="#D7262D"/>
    </linearGradient>
    <clipPath id="Clip_1">
      <path d="M28.268,25.968 C23.015,32.237 11.493,44.437 9.629,54.942 C7.765,65.448 11.493,76.293 17.423,83.409 C9.958,77.936 4.737,69.744 3.878,60.474 L3.878,58.312 C4.324,50.245 8.974,43.219 14.712,37.83 C23.862,29.696 26.404,28.002 28.268,25.968 z"/>
    </clipPath>
    <linearGradient id="Gradient_3" gradientUnits="userSpaceOnUse" x1="45.062" y1="107.405" x2="45.062" y2="6.341">
      <stop offset="0" stop-color="#FFFFFE"/>
      <stop offset="0.242" stop-color="#FCDF1E"/>
      <stop offset="0.621" stop-color="#D2262D"/>
      <stop offset="1" stop-color="#D7262D"/>
    </linearGradient>
    <clipPath id="Clip_2">
      <path d="M47.754,28.848 C53.007,36.135 61.479,57.823 51.82,74.599 C54.87,72.733 59.276,68.497 60.97,63.924 C59.622,79.833 50.402,90.533 34.379,91.652 L33.481,91.652 C29.203,84.544 28.081,77.446 30.366,69.373 C30.6,68.545 31.001,67.773 31.318,66.973 C33.351,63.076 40.468,54.605 43.857,46.809 C47.245,39.014 47.923,34.27 47.754,28.848 z"/>
    </clipPath>
    <linearGradient id="Gradient_4" gradientUnits="userSpaceOnUse" x1="40.09" y1="89.448" x2="40.09" y2="44.464">
      <stop offset="0" stop-color="#FFFBE5"/>
      <stop offset="0.753" stop-color="#FFE21A"/>
      <stop offset="1" stop-color="#E3732B"/>
    </linearGradient>
    <linearGradient id="Gradient_5" gradientUnits="userSpaceOnUse" x1="28.832" y1="82.23" x2="28.832" y2="-16.963">
      <stop offset="0" stop-color="#FFFFFE"/>
      <stop offset="0.242" stop-color="#FFE21A"/>
      <stop offset="0.621" stop-color="#D2262D"/>
      <stop offset="1" stop-color="#D7262D"/>
    </linearGradient>
    <linearGradient id="Gradient_6" gradientUnits="userSpaceOnUse" x1="31.155" y1="84.024" x2="31.155" y2="15.796">
      <stop offset="0" stop-color="#FFFBE5"/>
      <stop offset="0.692" stop-color="#FFE215"/>
      <stop offset="1" stop-color="#EC912D"/>
    </linearGradient>
  </defs>
  <g id="Layer_4">
    <path d="M37.079,3.348 C37.079,3.348 46.229,18.09 44.704,32.577 C43.094,47.15 33.266,53.758 28.437,64.941 C23.608,76.124 26.403,87.731 30.47,90.781 C25.133,86.967 11.153,79.852 12.17,61.044 C12.679,55.197 16.237,44.777 24.88,34.61 C33.52,24.443 39.112,20.377 37.079,3.348 z" fill="url(#Gradient_1)"/>
    <g clip-path="url(#Clip_1)">
      <path d="M28.268,25.968 C23.015,32.237 11.493,44.437 9.629,54.942 C7.765,65.448 11.493,76.293 17.423,83.409 C9.958,77.937 4.736,69.743 3.878,60.472 L3.878,58.312 C4.324,50.245 8.974,43.219 14.712,37.83 C23.862,29.696 26.404,28.002 28.268,25.968 z" fill="url(#Gradient_2)"/>
    </g>
    <g clip-path="url(#Clip_2)">
      <path d="M47.754,28.848 C53.007,36.135 61.479,57.823 51.82,74.599 C54.87,72.733 59.276,68.497 60.97,63.924 C59.621,79.833 50.402,90.532 34.379,91.652 L33.481,91.652 C29.203,84.545 28.082,77.445 30.366,69.373 C30.6,68.545 31.001,67.773 31.318,66.973 C33.351,63.076 40.468,54.605 43.857,46.809 C47.245,39.014 47.923,34.27 47.754,28.848 z" fill="url(#Gradient_3)"/>
    </g>
    <path d="M34.368,89.848 C34.368,89.848 29.191,80.578 35.045,71.379 C39.79,63.925 44.704,62.399 47.585,54.266 C48.093,62.737 47.754,73.921 40.468,83.41 C43.518,82.902 45.382,81.885 47.923,80.191 C46.229,83.749 43.009,88.324 34.368,89.848 z" fill="url(#Gradient_4)"/>
    <path d="M25.855,85.51 C25.855,85.51 11.153,68.838 21.49,51.725 C28.607,39.354 37.772,38.584 39.803,20.663 C39.803,33.595 41.159,39.939 30.073,54.349 C22.799,63.807 21.11,76.529 25.855,85.51 z" fill="url(#Gradient_5)"/>
    <path d="M44.075,4.983 C44.075,4.983 48.199,16.979 35.841,34.201 C26.869,46.704 9.154,65.291 27.953,87.969 C20.329,80.08 12.958,66.342 21.183,50.107 C28.676,35.317 46.884,25.786 44.075,4.983 z" fill="url(#Gradient_6)"/>
  </g>
  <g id="Layer_1">
    <path d="M64.785,47.744 L79.628,47.744 L79.628,50.428 L67.87,50.428 L67.87,61.56 L79.091,61.56 L79.091,64.242 L67.87,64.242 L67.87,78.951 L64.785,78.951 L64.785,47.744" fill="#D8232A"/>
    <path d="M85.127,47.744 L88.212,47.744 L88.212,61.56 L103.995,61.56 L103.995,47.744 L107.079,47.744 L107.079,78.951 L103.995,78.951 L103.995,64.242 L88.212,64.242 L88.212,78.951 L85.127,78.951 L85.127,47.744" fill="#D8232A"/>
    <path d="M113.821,47.744 L116.905,47.744 L116.905,78.951 L113.821,78.951 z" fill="#D8232A"/>
    <path d="M127.959,61.56 L131.223,61.56 C134.844,61.56 139.002,60.174 139.002,55.837 C139.002,50.74 135.379,50.428 131.133,50.428 L127.959,50.428 L127.959,61.56 z M124.873,47.744 L132.92,47.744 C138.465,47.744 142.086,50.114 142.086,55.837 C142.086,59.861 139.002,62.543 135.157,63.035 L135.157,63.125 C137.661,63.437 138.198,64.779 139.18,66.88 L144.5,78.951 L141.102,78.951 L136.586,68.4 C134.799,64.377 133.457,64.242 130.506,64.242 L127.959,64.242 L127.959,78.951 L124.873,78.951 L124.873,47.744" fill="#D8232A"/>
    <g>
      <path d="M143.804,49.651 L143.804,48.784 L144.588,48.784 Q144.828,48.784 144.945,48.901 Q145.063,49.018 145.063,49.222 Q145.063,49.324 145.024,49.403 Q144.986,49.481 144.921,49.537 Q144.856,49.592 144.77,49.622 Q144.683,49.651 144.588,49.651 z M143.594,48.605 L143.594,50.808 L143.804,50.808 L143.804,49.83 L144.6,49.83 Q144.748,49.824 144.833,49.879 Q144.918,49.935 144.962,50.026 Q145.007,50.117 145.021,50.232 Q145.035,50.348 145.041,50.465 Q145.044,50.499 145.047,50.545 Q145.05,50.592 145.055,50.639 Q145.06,50.687 145.07,50.732 Q145.081,50.777 145.1,50.808 L145.331,50.808 Q145.297,50.767 145.277,50.695 Q145.257,50.622 145.248,50.541 Q145.238,50.459 145.235,50.379 Q145.232,50.299 145.229,50.243 Q145.223,50.144 145.203,50.06 Q145.183,49.975 145.138,49.91 Q145.093,49.845 145.023,49.803 Q144.952,49.762 144.844,49.746 L144.844,49.74 Q145.056,49.697 145.164,49.543 Q145.272,49.389 145.272,49.179 Q145.272,49.031 145.218,48.921 Q145.164,48.812 145.073,48.742 Q144.982,48.673 144.861,48.639 Q144.739,48.605 144.603,48.605 z" fill="#D8232A"/>
      <path d="M143.804,49.651 L143.804,48.784 L144.588,48.784 Q144.828,48.784 144.945,48.901 Q145.063,49.018 145.063,49.222 Q145.063,49.324 145.024,49.403 Q144.986,49.481 144.921,49.537 Q144.856,49.592 144.77,49.622 Q144.683,49.651 144.588,49.651 z M143.594,48.605 L143.594,50.808 L143.804,50.808 L143.804,49.83 L144.6,49.83 Q144.748,49.824 144.833,49.879 Q144.918,49.935 144.962,50.026 Q145.007,50.117 145.021,50.232 Q145.035,50.348 145.041,50.465 Q145.044,50.499 145.047,50.545 Q145.05,50.592 145.055,50.639 Q145.06,50.687 145.07,50.732 Q145.081,50.777 145.1,50.808 L145.331,50.808 Q145.297,50.767 145.277,50.695 Q145.257,50.622 145.248,50.541 Q145.238,50.459 145.235,50.379 Q145.232,50.299 145.229,50.243 Q145.223,50.144 145.203,50.06 Q145.183,49.975 145.138,49.91 Q145.093,49.845 145.023,49.803 Q144.952,49.762 144.844,49.746 L144.844,49.74 Q145.056,49.697 145.164,49.543 Q145.272,49.389 145.272,49.179 Q145.272,49.031 145.218,48.921 Q145.164,48.812 145.073,48.742 Q144.982,48.673 144.861,48.639 Q144.739,48.605 144.603,48.605 z" fill-opacity="0" stroke="#D8232A" stroke-width="0.25"/>
    </g>
    <path d="M144.463,51.669 C143.379,51.669 142.5,50.79 142.5,49.706 C142.5,48.623 143.379,47.744 144.463,47.744 C145.546,47.744 146.425,48.623 146.425,49.706 C146.425,50.79 145.546,51.669 144.463,51.669 z" fill-opacity="0" stroke="#D8232A" stroke-width="0.5"/>
  </g>
  <g id="Layer_2">
    <g>
      <path d="M155.749,61.224 L155.749,49.957 L164.706,49.957 Q170.869,49.957 170.869,55.878 Q170.869,56.982 170.486,57.954 Q170.104,58.926 169.338,59.655 Q168.572,60.384 167.424,60.804 Q166.276,61.224 164.706,61.224 z M153.147,47.395 L153.147,78.941 L164.706,78.941 Q166.927,78.941 168.515,78.477 Q170.104,78.013 171.194,77.284 Q172.285,76.555 172.936,75.583 Q173.587,74.611 173.931,73.617 Q174.276,72.623 174.391,71.673 Q174.505,70.723 174.505,69.972 Q174.505,66.879 172.936,64.78 Q171.367,62.682 168.726,62.284 L168.726,62.196 Q169.797,61.931 170.659,61.268 Q171.52,60.605 172.151,59.655 Q172.783,58.705 173.127,57.534 Q173.472,56.364 173.472,55.127 Q173.472,52.917 172.745,51.437 Q172.017,49.957 170.812,49.052 Q169.606,48.146 168.017,47.77 Q166.429,47.395 164.706,47.395 z M155.749,76.378 L155.749,63.786 L164.706,63.786 Q168.19,63.786 170.046,65.31 Q171.903,66.835 171.903,69.883 Q171.903,71.783 171.328,73.042 Q170.754,74.301 169.759,75.053 Q168.764,75.804 167.462,76.091 Q166.161,76.378 164.706,76.378 z" fill="#606060"/>
      <path d="M177.392,47.085 L177.392,78.631 L180.05,78.631 L180.05,47.085 z" fill="#606060"/>
      <path d="M194.354,57.512 Q196.252,57.512 197.687,58.352 Q199.122,59.191 200.071,60.561 Q201.02,61.931 201.506,63.676 Q201.991,65.421 201.991,67.232 Q201.991,69.044 201.506,70.789 Q201.02,72.534 200.071,73.904 Q199.122,75.273 197.687,76.113 Q196.252,76.952 194.354,76.952 Q192.455,76.952 191.02,76.113 Q189.586,75.273 188.636,73.904 Q187.687,72.534 187.202,70.789 Q186.717,69.044 186.717,67.232 Q186.717,65.421 187.202,63.676 Q187.687,61.931 188.636,60.561 Q189.586,59.191 191.02,58.352 Q192.455,57.512 194.354,57.512 z M194.354,55.171 Q191.864,55.171 189.944,56.143 Q188.025,57.115 186.717,58.749 Q185.409,60.384 184.733,62.571 Q184.058,64.758 184.058,67.232 Q184.058,69.707 184.733,71.894 Q185.409,74.081 186.717,75.715 Q188.025,77.35 189.944,78.3 Q191.864,79.25 194.354,79.25 Q196.843,79.25 198.763,78.3 Q200.683,77.35 201.991,75.715 Q203.299,74.081 203.974,71.894 Q204.649,69.707 204.649,67.232 Q204.649,64.758 203.974,62.571 Q203.299,60.384 201.991,58.749 Q200.683,57.115 198.763,56.143 Q196.843,55.171 194.354,55.171 z" fill="#606060"/>
      <path d="M223.974,62.991 L226.632,62.991 Q226.168,59.059 223.742,57.115 Q221.316,55.171 217.813,55.171 Q215.324,55.171 213.404,56.143 Q211.484,57.115 210.176,58.749 Q208.868,60.384 208.193,62.571 Q207.518,64.758 207.518,67.232 Q207.518,69.707 208.193,71.894 Q208.868,74.081 210.176,75.715 Q211.484,77.35 213.404,78.3 Q215.324,79.25 217.813,79.25 Q221.527,79.25 223.889,76.93 Q226.252,74.611 226.801,70.458 L224.143,70.458 Q224.016,71.871 223.467,73.064 Q222.919,74.257 222.075,75.119 Q221.231,75.98 220.134,76.466 Q219.037,76.952 217.813,76.952 Q215.915,76.952 214.48,76.113 Q213.046,75.273 212.096,73.904 Q211.147,72.534 210.662,70.789 Q210.176,69.044 210.176,67.232 Q210.176,65.421 210.662,63.676 Q211.147,61.931 212.096,60.561 Q213.046,59.191 214.48,58.352 Q215.915,57.512 217.813,57.512 Q220.472,57.512 221.948,58.97 Q223.425,60.428 223.974,62.991 z" fill="#606060"/>
      <path d="M230.514,47.085 L230.514,78.631 L233.172,78.631 L233.172,69.972 L237.476,66.216 L246.083,78.631 L249.417,78.631 L239.501,64.272 L248.784,55.833 L245.239,55.833 L233.172,66.879 L233.172,47.085 z" fill="#606060"/>
      <path d="M264.649,62.505 L267.307,62.505 Q267.223,60.649 266.59,59.28 Q265.957,57.91 264.881,56.982 Q263.805,56.054 262.391,55.613 Q260.978,55.171 259.332,55.171 Q257.898,55.171 256.442,55.524 Q254.986,55.878 253.805,56.629 Q252.623,57.38 251.885,58.617 Q251.147,59.854 251.147,61.577 Q251.147,63.035 251.611,64.029 Q252.075,65.023 252.898,65.708 Q253.72,66.393 254.817,66.857 Q255.915,67.321 257.223,67.674 L260.64,68.469 Q261.526,68.69 262.391,69 Q263.256,69.309 263.931,69.773 Q264.606,70.237 265.007,70.922 Q265.408,71.606 265.408,72.623 Q265.408,73.815 264.839,74.633 Q264.269,75.45 263.383,75.98 Q262.497,76.511 261.463,76.731 Q260.429,76.952 259.459,76.952 Q256.801,76.952 255.007,75.516 Q253.214,74.081 253.045,71.253 L250.387,71.253 Q250.725,75.45 253.109,77.35 Q255.493,79.25 259.332,79.25 Q260.851,79.25 262.412,78.896 Q263.974,78.543 265.218,77.726 Q266.463,76.908 267.265,75.605 Q268.066,74.301 268.066,72.446 Q268.066,70.944 267.518,69.839 Q266.969,68.735 266.104,67.983 Q265.239,67.232 264.121,66.768 Q263.003,66.305 261.864,66.128 L258.32,65.288 Q257.644,65.112 256.843,64.824 Q256.041,64.537 255.366,64.095 Q254.691,63.654 254.248,63.013 Q253.805,62.372 253.805,61.445 Q253.805,60.34 254.269,59.589 Q254.733,58.838 255.493,58.374 Q256.252,57.91 257.159,57.711 Q258.066,57.512 258.952,57.512 Q260.092,57.512 261.104,57.8 Q262.117,58.087 262.898,58.705 Q263.678,59.324 264.142,60.274 Q264.606,61.224 264.649,62.505 z" fill="#606060"/>
    </g>
  </g>
</svg>
