<?xml version="1.0" encoding="iso-8859-1"?>
<!-- Generator: Adobe Illustrator 19.0.0, SVG Export Plug-In . SVG Version: 6.00 Build 0)  -->
<svg version="1.1" id="Capa_1" xmlns="http://www.w3.org/2000/svg" xmlns:xlink="http://www.w3.org/1999/xlink" x="0px" y="0px"
	 viewBox="0 0 480 480" style="enable-background:new 0 0 480 480;" xml:space="preserve">
<g>
	<path style="fill:#C8B2A8;" d="M119.719,259.672h26.979v-53.958h53.958v53.958h24.73v-53.958h53.958v53.958h6.745v17.986h-4.497
		H16.3v8.993h265.293v170.867h22.482V403.56h53.958v53.958h24.731V403.56h53.958v53.958H463.7V89.93H119.719V259.672z
		 M382.764,106.792h53.958v53.958h-53.958V106.792z M382.764,205.714h53.958v53.958h-53.958V205.714z M382.764,304.637h53.958
		v53.958h-53.958V304.637z M304.075,106.792h53.958v53.958h-53.958V106.792z M304.075,205.714h53.958v53.958h-53.958V205.714z
		 M304.075,304.637h53.958v53.958h-53.958V304.637z M225.386,106.792h53.958v53.958h-53.958V106.792z M146.698,106.792h53.958
		v53.958h-53.958V106.792z"/>
	<rect x="97.236" y="403.56" style="fill:#DFD0C6;" width="13.49" height="53.958"/>
	<path style="fill:#DFD0C6;" d="M43.279,403.56h35.972v-4.496v-35.972h139.391v35.972v4.496h35.972v53.958h26.979V286.651H16.3
		v170.867h26.979V403.56z M200.656,304.637h53.958v53.958h-53.958V304.637z M121.967,304.637h53.958v53.958h-53.958V304.637z
		 M43.279,304.637h53.958v53.958H43.279V304.637z"/>
	<rect x="187.166" y="403.56" style="fill:#DFD0C6;" width="13.49" height="53.958"/>
	<polygon style="fill:#E17277;" points="281.592,277.658 286.089,277.658 286.089,259.672 279.344,259.672 225.386,259.672 
		200.656,259.672 146.698,259.672 119.719,259.672 11.803,259.672 11.803,277.658 16.3,277.658 	"/>
	<polygon style="fill:#C8B2A8;" points="187.166,403.56 151.194,403.56 148.946,403.56 146.698,403.56 110.726,403.56 
		110.726,457.518 110.726,480 115.223,480 115.223,408.056 146.698,408.056 146.698,435.035 146.698,439.532 146.698,448.525 
		146.698,480 148.946,480 151.194,480 151.194,448.525 151.194,435.035 151.194,408.056 182.67,408.056 182.67,439.532 182.67,480 
		187.166,480 187.166,457.518 	"/>
	<path style="fill:#826E77;" d="M151.194,408.056v26.979h0.496c2.209,0,4,1.791,4,4v5.489c0,2.209-1.791,4-4,4h-0.496V480h31.475
		v-40.468L151.194,408.056z"/>
	<path style="fill:#826E77;" d="M146.201,448.525c-2.209,0-4-1.791-4-4v-5.489c0-1.105,0.448-2.105,1.172-2.828l-28.15-28.151V480
		h4.496h26.979v-31.475H146.201z"/>
	<path style="fill:#695A69;" d="M143.373,436.207c0.724-0.724,1.724-1.172,2.828-1.172h0.497v-26.979h-31.475L143.373,436.207z"/>
	<polygon style="fill:#695A69;" points="182.67,408.056 151.194,408.056 182.67,439.532 	"/>
	<path style="fill:#A08A8A;" d="M155.691,444.525v-5.489c0-2.209-1.791-4-4-4h-0.496v13.489h0.496
		C153.9,448.525,155.691,446.734,155.691,444.525z"/>
	<path style="fill:#A08A8A;" d="M143.373,436.207c-0.724,0.724-1.172,1.724-1.172,2.828v5.489c0,2.209,1.791,4,4,4h0.497v-8.993
		v-4.496h-0.497C145.097,435.035,144.097,435.483,143.373,436.207z"/>
	<path style="fill:#E17277;" d="M218.642,399.063v-35.972H79.251v35.972H218.642z M196.478,372.394h2.891v16.122h8.674v2.504
		h-11.566V372.394z M187.7,372.394l6.725,18.627h-3.059l-1.704-5.034h-7.1l-1.704,5.034h-3.008l6.725-18.627H187.7z M164.93,372.394
		h14.496v2.491h-5.796v16.135h-2.892v-16.135h-5.809V372.394z M159.69,372.394h2.891v18.627h-2.891V372.394z M143.722,372.394h7.293
		c3.614,0,6.144,2.491,6.144,6.119c0,3.64-2.582,6.144-6.235,6.144h-4.312v6.364h-2.891V372.394z M134.751,383.108l-2.414-0.581
		c-3.421-0.826-5.009-2.427-5.009-5.021c0-3.214,2.801-5.422,6.777-5.422c3.937,0,6.635,2.207,6.725,5.422h-2.814
		c-0.168-1.859-1.704-2.982-3.95-2.982c-2.246,0-3.782,1.136-3.782,2.788c0,1.317,0.981,2.091,3.382,2.685l2.052,0.503
		c3.821,0.904,5.409,2.44,5.409,5.163c0,3.485-2.775,5.667-7.19,5.667c-4.131,0-6.919-2.13-7.1-5.499h2.853
		c0.207,1.846,2.001,3.059,4.453,3.059c2.349,0,4.04-1.213,4.04-2.879C138.184,384.567,137.165,383.702,134.751,383.108z
		 M104.713,391.021h-2.891v-8.248h-9.565v8.248h-2.891v-18.627h2.891v7.874h9.565v-7.874h2.891V391.021z M107.463,381.714
		c0-5.925,3.356-9.63,8.726-9.63c5.357,0,8.726,3.705,8.726,9.63s-3.369,9.617-8.726,9.617
		C110.819,391.331,107.463,387.639,107.463,381.714z"/>
	<path style="fill:#E17277;" d="M121.946,381.714c0-4.35-2.22-7.087-5.757-7.087c-3.537,0-5.77,2.737-5.77,7.087
		c0,4.337,2.233,7.074,5.77,7.074C119.726,388.788,121.946,386.051,121.946,381.714z"/>
	<polygon style="fill:#E17277;" points="186.151,375.492 186.074,375.492 183.299,383.663 188.927,383.663 	"/>
	<path style="fill:#E17277;" d="M154.203,378.526c0-2.349-1.433-3.692-3.95-3.692h-3.64v7.396h3.64
		C152.758,382.23,154.203,380.875,154.203,378.526z"/>
	<polygon style="fill:#FFFFFF;" points="101.822,380.268 92.257,380.268 92.257,372.394 89.365,372.394 89.365,391.021 
		92.257,391.021 92.257,382.772 101.822,382.772 101.822,391.021 104.713,391.021 104.713,372.394 101.822,372.394 	"/>
	<path style="fill:#FFFFFF;" d="M124.915,381.714c0-5.925-3.369-9.63-8.726-9.63c-5.37,0-8.726,3.705-8.726,9.63
		s3.356,9.617,8.726,9.617C121.546,391.331,124.915,387.639,124.915,381.714z M110.419,381.714c0-4.35,2.233-7.087,5.77-7.087
		c3.537,0,5.757,2.737,5.757,7.087c0,4.337-2.22,7.074-5.757,7.074C112.652,388.788,110.419,386.051,110.419,381.714z"/>
	<path style="fill:#FFFFFF;" d="M134.144,388.891c-2.453,0-4.247-1.213-4.453-3.059h-2.853c0.181,3.369,2.969,5.499,7.1,5.499
		c4.415,0,7.19-2.182,7.19-5.667c0-2.724-1.588-4.26-5.409-5.163l-2.052-0.503c-2.401-0.594-3.382-1.368-3.382-2.685
		c0-1.652,1.536-2.788,3.782-2.788c2.246,0,3.782,1.123,3.95,2.982h2.814c-0.09-3.214-2.788-5.422-6.725-5.422
		c-3.976,0-6.777,2.207-6.777,5.422c0,2.595,1.588,4.195,5.009,5.021l2.414,0.581c2.414,0.594,3.434,1.459,3.434,2.904
		C138.184,387.677,136.493,388.891,134.144,388.891z"/>
	<path style="fill:#FFFFFF;" d="M146.613,384.657h4.312c3.653,0,6.235-2.504,6.235-6.144c0-3.627-2.53-6.119-6.144-6.119h-7.293
		v18.627h2.891V384.657z M146.613,374.834h3.64c2.517,0,3.95,1.342,3.95,3.692s-1.446,3.705-3.95,3.705h-3.64V374.834z"/>
	<rect x="159.69" y="372.394" style="fill:#FFFFFF;" width="2.891" height="18.627"/>
	<polygon style="fill:#FFFFFF;" points="170.739,391.021 173.63,391.021 173.63,374.885 179.426,374.885 179.426,372.394 
		164.93,372.394 164.93,374.885 170.739,374.885 	"/>
	<path style="fill:#FFFFFF;" d="M180.859,391.021l1.704-5.034h7.1l1.704,5.034h3.059l-6.725-18.627h-3.124l-6.725,18.627H180.859z
		 M186.074,375.492h0.078l2.775,8.171h-5.628L186.074,375.492z"/>
	<polygon style="fill:#FFFFFF;" points="208.044,388.516 199.37,388.516 199.37,372.394 196.478,372.394 196.478,391.021 
		208.044,391.021 	"/>
	<path style="fill:#826E77;" d="M79.251,403.56H43.279v53.958h53.958V403.56H79.251z M47.775,408.056H92.74v8.993H47.775V408.056z
		 M92.74,453.021h-13.49H47.775v-31.475H92.74V453.021z"/>
	<polygon style="fill:#80D7F0;" points="79.251,453.021 92.74,453.021 92.74,421.546 47.775,421.546 	"/>
	<rect x="47.775" y="408.056" style="fill:#6EB1E2;" width="44.965" height="8.993"/>
	<polygon style="fill:#95FFFF;" points="47.775,453.021 79.251,453.021 47.775,421.546 	"/>
	<path style="fill:#826E77;" d="M218.642,403.56h-17.986v53.958h53.958V403.56H218.642z M205.152,408.056h44.965v8.993h-44.965
		V408.056z M250.117,453.021h-13.49h-31.475v-31.475h44.965V453.021z"/>
	<polygon style="fill:#80D7F0;" points="236.628,453.021 250.117,453.021 250.117,421.546 205.152,421.546 	"/>
	<rect x="205.152" y="408.056" style="fill:#6EB1E2;" width="44.965" height="8.993"/>
	<polygon style="fill:#95FFFF;" points="205.152,453.021 236.628,453.021 205.152,421.546 	"/>
	<path style="fill:#826E77;" d="M97.236,304.637H43.279v53.958h53.958V304.637z M47.775,309.133H92.74v8.993H47.775V309.133z
		 M92.74,354.098h-13.49H47.775v-31.475H92.74V354.098z"/>
	<polygon style="fill:#80D7F0;" points="79.251,354.098 92.74,354.098 92.74,322.623 47.775,322.623 	"/>
	<rect x="47.775" y="309.133" style="fill:#6EB1E2;" width="44.965" height="8.993"/>
	<polygon style="fill:#95FFFF;" points="47.775,354.098 79.251,354.098 47.775,322.623 	"/>
	<path style="fill:#826E77;" d="M175.925,304.637h-53.958v53.958h53.958V304.637z M126.464,309.133h44.965v8.993h-44.965V309.133z
		 M171.429,354.098h-13.49h-31.475v-31.475h44.965V354.098z"/>
	<polygon style="fill:#80D7F0;" points="157.939,354.098 171.429,354.098 171.429,322.623 126.464,322.623 	"/>
	<rect x="126.464" y="309.133" style="fill:#6EB1E2;" width="44.965" height="8.993"/>
	<polygon style="fill:#95FFFF;" points="126.464,354.098 157.939,354.098 126.464,322.623 	"/>
	<path style="fill:#826E77;" d="M254.614,304.637h-53.958v53.958h53.958V304.637z M205.152,309.133h44.965v8.993h-44.965V309.133z
		 M250.117,354.098h-13.49h-31.475v-31.475h44.965V354.098z"/>
	<polygon style="fill:#80D7F0;" points="236.628,354.098 250.117,354.098 250.117,322.623 205.152,322.623 	"/>
	<rect x="205.152" y="309.133" style="fill:#6EB1E2;" width="44.965" height="8.993"/>
	<polygon style="fill:#95FFFF;" points="205.152,354.098 236.628,354.098 205.152,322.623 	"/>
	<polygon style="fill:#A08A8A;" points="97.236,457.518 43.279,457.518 16.3,457.518 16.3,480 110.726,480 110.726,457.518 	"/>
	<polygon style="fill:#A08A8A;" points="254.614,457.518 200.656,457.518 187.166,457.518 187.166,480 281.592,480 281.592,457.518 
			"/>
	<polygon style="fill:#A08A8A;" points="218.642,403.56 218.642,399.063 79.251,399.063 79.251,403.56 97.236,403.56 
		110.726,403.56 146.698,403.56 148.946,403.56 151.194,403.56 187.166,403.56 200.656,403.56 	"/>
	<path style="fill:#826E77;" d="M358.033,304.637h-53.958v53.958h53.958V304.637z M308.571,309.133h44.965v8.993h-44.965V309.133z
		 M353.536,354.098h-13.49h-31.475v-31.475h44.965V354.098z"/>
	<polygon style="fill:#80D7F0;" points="340.047,354.098 353.536,354.098 353.536,322.623 308.571,322.623 	"/>
	<rect x="308.571" y="309.133" style="fill:#6EB1E2;" width="44.965" height="8.993"/>
	<polygon style="fill:#95FFFF;" points="308.571,354.098 340.047,354.098 308.571,322.623 	"/>
	<polygon style="fill:#80D7F0;" points="353.536,453.021 353.536,421.546 308.571,421.546 340.047,453.021 	"/>
	<rect x="308.571" y="408.056" style="fill:#6EB1E2;" width="44.965" height="8.993"/>
	<polygon style="fill:#95FFFF;" points="308.571,421.546 308.571,453.021 340.047,453.021 	"/>
	<path style="fill:#826E77;" d="M358.033,205.714h-53.958v53.958h53.958V205.714z M308.571,210.211h44.965v8.993h-44.965V210.211z
		 M353.536,255.176h-13.49h-31.475V223.7h44.965V255.176z"/>
	<polygon style="fill:#80D7F0;" points="340.047,255.176 353.536,255.176 353.536,223.7 308.571,223.7 	"/>
	<rect x="308.571" y="210.211" style="fill:#6EB1E2;" width="44.965" height="8.993"/>
	<polygon style="fill:#95FFFF;" points="308.571,255.176 340.047,255.176 308.571,223.7 	"/>
	<path style="fill:#826E77;" d="M358.033,106.792h-53.958v53.958h53.958V106.792z M308.571,111.288h44.965v8.993h-44.965V111.288z
		 M353.536,156.253h-13.49h-31.475v-31.475h44.965V156.253z"/>
	<polygon style="fill:#80D7F0;" points="340.047,156.253 353.536,156.253 353.536,124.778 308.571,124.778 	"/>
	<rect x="308.571" y="111.288" style="fill:#6EB1E2;" width="44.965" height="8.993"/>
	<polygon style="fill:#95FFFF;" points="308.571,156.253 340.047,156.253 308.571,124.778 	"/>
	<path style="fill:#826E77;" d="M436.721,304.637h-53.958v53.958h53.958V304.637z M387.26,309.133h44.965v8.993H387.26V309.133z
		 M432.225,354.098h-13.489H387.26v-31.475h44.965V354.098z"/>
	<polygon style="fill:#80D7F0;" points="418.735,354.098 432.225,354.098 432.225,322.623 387.26,322.623 	"/>
	<rect x="387.26" y="309.133" style="fill:#6EB1E2;" width="44.965" height="8.993"/>
	<polygon style="fill:#95FFFF;" points="387.26,354.098 418.735,354.098 387.26,322.623 	"/>
	<path style="fill:#826E77;" d="M436.721,403.56h-53.958v53.958h-24.731V403.56h-53.958v53.958h-22.482V480H463.7v-22.482h-26.979
		V403.56z M308.571,421.546h44.965v31.475h-13.49h-31.475V421.546z M308.571,408.056h44.965v8.993h-44.965V408.056z M387.26,421.546
		h44.965v31.475h-13.489H387.26V421.546z M387.26,408.056h44.965v8.993H387.26V408.056z"/>
	<polygon style="fill:#80D7F0;" points="432.225,453.021 432.225,421.546 387.26,421.546 418.735,453.021 	"/>
	<rect x="387.26" y="408.056" style="fill:#6EB1E2;" width="44.965" height="8.993"/>
	<polygon style="fill:#95FFFF;" points="387.26,421.546 387.26,453.021 418.735,453.021 	"/>
	<path style="fill:#826E77;" d="M436.721,205.714h-53.958v53.958h53.958V205.714z M387.26,210.211h44.965v8.993H387.26V210.211z
		 M432.225,255.176h-13.489H387.26V223.7h44.965V255.176z"/>
	<polygon style="fill:#80D7F0;" points="418.735,255.176 432.225,255.176 432.225,223.7 387.26,223.7 	"/>
	<rect x="387.26" y="210.211" style="fill:#6EB1E2;" width="44.965" height="8.993"/>
	<polygon style="fill:#95FFFF;" points="387.26,255.176 418.735,255.176 387.26,223.7 	"/>
	<path style="fill:#826E77;" d="M436.721,106.792h-53.958v53.958h53.958V106.792z M387.26,111.288h44.965v8.993H387.26V111.288z
		 M432.225,156.253h-13.489H387.26v-31.475h44.965V156.253z"/>
	<polygon style="fill:#80D7F0;" points="418.735,156.253 432.225,156.253 432.225,124.778 387.26,124.778 	"/>
	<rect x="387.26" y="111.288" style="fill:#6EB1E2;" width="44.965" height="8.993"/>
	<polygon style="fill:#95FFFF;" points="387.26,156.253 418.735,156.253 387.26,124.778 	"/>
	<path style="fill:#826E77;" d="M200.656,205.714h-53.958v53.958h53.958V205.714z M151.194,210.211h44.965v8.993h-44.965V210.211z
		 M196.159,255.176h-13.49h-31.475V223.7h44.965V255.176z"/>
	<polygon style="fill:#80D7F0;" points="182.67,255.176 196.159,255.176 196.159,223.7 151.194,223.7 	"/>
	<rect x="151.194" y="210.211" style="fill:#6EB1E2;" width="44.965" height="8.993"/>
	<polygon style="fill:#95FFFF;" points="151.194,255.176 182.67,255.176 151.194,223.7 	"/>
	<path style="fill:#826E77;" d="M200.656,106.792h-53.958v53.958h53.958V106.792z M151.194,111.288h44.965v8.993h-44.965V111.288z
		 M196.159,156.253h-13.49h-31.475v-31.475h44.965V156.253z"/>
	<polygon style="fill:#80D7F0;" points="182.67,156.253 196.159,156.253 196.159,124.778 151.194,124.778 	"/>
	<rect x="151.194" y="111.288" style="fill:#6EB1E2;" width="44.965" height="8.993"/>
	<polygon style="fill:#95FFFF;" points="151.194,156.253 182.67,156.253 151.194,124.778 	"/>
	<path style="fill:#826E77;" d="M279.344,205.714h-53.958v53.958h53.958V205.714z M229.883,210.211h44.965v8.993h-44.965V210.211z
		 M274.848,255.176h-13.49h-31.475V223.7h44.965V255.176z"/>
	<polygon style="fill:#80D7F0;" points="261.358,255.176 274.848,255.176 274.848,223.7 229.883,223.7 	"/>
	<rect x="229.883" y="210.211" style="fill:#6EB1E2;" width="44.965" height="8.993"/>
	<polygon style="fill:#95FFFF;" points="229.883,255.176 261.358,255.176 229.883,223.7 	"/>
	<path style="fill:#826E77;" d="M279.344,106.792h-53.958v53.958h53.958V106.792z M229.883,111.288h44.965v8.993h-44.965V111.288z
		 M274.848,156.253h-13.49h-31.475v-31.475h44.965V156.253z"/>
	<polygon style="fill:#80D7F0;" points="261.358,156.253 274.848,156.253 274.848,124.778 229.883,124.778 	"/>
	<rect x="229.883" y="111.288" style="fill:#6EB1E2;" width="44.965" height="8.993"/>
	<polygon style="fill:#95FFFF;" points="229.883,156.253 261.358,156.253 229.883,124.778 	"/>
	<polygon style="fill:#E17277;" points="311.944,61.827 307.447,61.827 275.972,61.827 271.475,61.827 115.223,61.827 
		115.223,79.813 119.719,79.813 463.7,79.813 468.197,79.813 468.197,61.827 	"/>
	<rect x="119.719" y="79.813" style="fill:#A08A8A;" width="343.981" height="10.117"/>
	<polygon style="fill:#E17277;" points="280.468,52.834 280.468,34.848 302.951,34.848 302.951,52.834 307.447,52.834 
		311.944,52.834 319.813,52.834 319.813,34.848 319.813,17.986 319.813,0 302.951,0 302.951,17.986 280.468,17.986 280.468,0 
		263.607,0 263.607,17.986 263.607,34.848 263.607,52.834 271.475,52.834 275.972,52.834 	"/>
	<rect x="271.475" y="52.834" style="fill:#826E77;" width="4.496" height="8.993"/>
	<rect x="307.447" y="52.834" style="fill:#826E77;" width="4.496" height="8.993"/>
</g>
<g>
</g>
<g>
</g>
<g>
</g>
<g>
</g>
<g>
</g>
<g>
</g>
<g>
</g>
<g>
</g>
<g>
</g>
<g>
</g>
<g>
</g>
<g>
</g>
<g>
</g>
<g>
</g>
<g>
</g>
</svg>
