<?xml version="1.0" encoding="UTF-8"?>
<!DOCTYPE svg PUBLIC "-//W3C//DTD SVG 1.1//EN" "http://www.w3.org/Graphics/SVG/1.1/DTD/svg11.dtd">
<svg version="1.1" xmlns="http://www.w3.org/2000/svg" xmlns:xlink="http://www.w3.org/1999/xlink" x="0" y="0" width="135.716" height="40.019" viewBox="0, 0, 135.716, 40.019">
  <defs>
    <linearGradient id="Gradient_1" gradientUnits="userSpaceOnUse" x1="31.8" y1="183.29" x2="15.017" y2="166.508" gradientTransform="matrix(1.002, 0, 0, 0.991, -9.796, -150.277)">
      <stop offset="0" stop-color="#00A0FF"/>
      <stop offset="0.007" stop-color="#00A1FF"/>
      <stop offset="0.26" stop-color="#00BEFF"/>
      <stop offset="0.512" stop-color="#00D2FF"/>
      <stop offset="0.76" stop-color="#00DFFF"/>
      <stop offset="1" stop-color="#00E3FF"/>
    </linearGradient>
    <linearGradient id="Gradient_2" gradientUnits="userSpaceOnUse" x1="43.834" y1="171.999" x2="19.638" y2="171.999" gradientTransform="matrix(1.002, 0, 0, 0.991, -9.796, -150.277)">
      <stop offset="0" stop-color="#FFE000"/>
      <stop offset="0.409" stop-color="#FFBD00"/>
      <stop offset="0.775" stop-color="#FFA500"/>
      <stop offset="1" stop-color="#FF9C00"/>
    </linearGradient>
    <linearGradient id="Gradient_3" gradientUnits="userSpaceOnUse" x1="34.827" y1="169.704" x2="12.069" y2="146.946" gradientTransform="matrix(1.002, 0, 0, 0.991, -9.796, -150.277)">
      <stop offset="0" stop-color="#FF3A44"/>
      <stop offset="1" stop-color="#C31162"/>
    </linearGradient>
    <linearGradient id="Gradient_4" gradientUnits="userSpaceOnUse" x1="17.297" y1="191.824" x2="27.46" y2="181.661" gradientTransform="matrix(1.002, 0, 0, 0.991, -9.796, -150.277)">
      <stop offset="0" stop-color="#32A071"/>
      <stop offset="0.068" stop-color="#2DA771"/>
      <stop offset="0.476" stop-color="#15CF74"/>
      <stop offset="0.801" stop-color="#06E775"/>
      <stop offset="1" stop-color="#00F076"/>
    </linearGradient>
    <clipPath id="Clip_1">
      <path d="M0,0 L124,0 L124,48 L0,48 L0,0 z"/>
    </clipPath>
    <pattern id="Pattern_5" patternUnits="userSpaceOnUse" x="-0" y="0" width="124" height="48" patternTransform="matrix(1.253, 0, 0, 1.238, -9.796, -9.594)">
      <g transform="translate(-0, -0)">
        <g clip-path="url(#Clip_1)" id="g140">
          <path d="M29.625,20.695 L18.012,14.098 C17.363,13.727 16.781,13.754 16.406,14.09 L16.348,14.027 L16.406,13.969 C16.781,13.633 17.363,13.609 18.012,13.98 L29.699,20.621 L29.625,20.695 z" fill="#000000" id="path144"/>
        </g>
      </g>
    </pattern>
    <clipPath id="Clip_2">
      <path d="M-9.796,49.85 L145.575,49.85 L145.575,-9.594 L-9.796,-9.594 L-9.796,49.85 z"/>
    </clipPath>
    <clipPath id="Clip_3">
      <path d="M0,0 L124,0 L124,48 L0,48 L0,0 z"/>
    </clipPath>
    <pattern id="Pattern_6" patternUnits="userSpaceOnUse" x="-0" y="0" width="124" height="48" patternTransform="matrix(1.253, 0, 0, 1.238, -9.796, -9.594)">
      <g transform="translate(-0, -0)">
        <g clip-path="url(#Clip_3)" id="g188">
          <path d="M16.348,14.145 C16.113,14.391 15.977,14.773 15.977,15.27 L15.977,15.152 C15.977,14.656 16.113,14.273 16.348,14.027 L16.406,14.09 L16.348,14.145 z" fill="#000000" id="path192"/>
        </g>
      </g>
    </pattern>
    <clipPath id="Clip_4">
      <path d="M-9.796,49.85 L145.575,49.85 L145.575,-9.594 L-9.796,-9.594 L-9.796,49.85 z"/>
    </clipPath>
    <clipPath id="Clip_5">
      <path d="M0,0 L124,0 L124,48 L0,48 L0,0 z"/>
    </clipPath>
    <pattern id="Pattern_7" patternUnits="userSpaceOnUse" x="-0" y="0" width="124" height="48" patternTransform="matrix(1.253, 0, 0, 1.238, -9.796, -9.594)">
      <g transform="translate(-0, -0)">
        <g clip-path="url(#Clip_5)" id="g236">
          <path d="M33.613,22.961 L29.625,20.695 L29.699,20.621 L33.613,22.844 C34.172,23.16 34.449,23.578 34.449,24 C34.402,23.621 34.117,23.25 33.613,22.961 z" fill="#000000" id="path240"/>
        </g>
      </g>
    </pattern>
    <clipPath id="Clip_6">
      <path d="M-9.796,49.85 L145.575,49.85 L145.575,-9.594 L-9.796,-9.594 L-9.796,49.85 z"/>
    </clipPath>
    <clipPath id="Clip_7">
      <path d="M0,0 L124,0 L124,48 L0,48 L0,0 z"/>
    </clipPath>
    <pattern id="Pattern_8" patternUnits="userSpaceOnUse" x="-0" y="0" width="124" height="48" patternTransform="matrix(1.253, 0, 0, 1.238, -9.796, -9.594)">
      <g transform="translate(-0, -0)">
        <g clip-path="url(#Clip_7)" id="g284">
          <path d="M18.012,33.902 L33.613,25.039 C34.121,24.75 34.402,24.379 34.449,24 C34.449,24.418 34.172,24.836 33.613,25.156 L18.012,34.02 C16.895,34.652 15.977,34.125 15.977,32.844 L15.977,32.73 C15.977,34.008 16.895,34.535 18.012,33.902 z" fill="#FFFFFF" id="path288"/>
        </g>
      </g>
    </pattern>
    <clipPath id="Clip_8">
      <path d="M-9.796,49.85 L145.575,49.85 L145.575,-9.594 L-9.796,-9.594 L-9.796,49.85 z"/>
    </clipPath>
  </defs>
  <g id="google-play-badge">
    <path d="M130.539,39.943 L5.24,39.943 C2.485,39.943 0.228,37.713 0.228,34.989 L0.228,5.267 C0.228,2.544 2.485,0.314 5.24,0.314 L130.539,0.314 C133.295,0.314 135.551,2.544 135.551,5.267 L135.551,34.989 C135.551,37.713 133.295,39.943 130.539,39.943 z" fill="#000000" id="path14"/>
    <path d="M130.539,1.108 C132.86,1.108 134.748,2.974 134.748,5.267 L134.748,34.989 C134.748,37.283 132.86,39.149 130.539,39.149 L5.24,39.149 C2.92,39.149 1.032,37.283 1.032,34.989 L1.032,5.267 C1.032,2.974 2.92,1.108 5.24,1.108 L130.539,1.108 M130.539,0.314 L5.24,0.314 C2.485,0.314 0.228,2.544 0.228,5.267 L0.228,34.989 C0.228,37.713 2.485,39.943 5.24,39.943 L130.539,39.943 C133.295,39.943 135.551,37.713 135.551,34.989 L135.551,5.267 C135.551,2.544 133.295,0.314 130.539,0.314 z" fill="#A6A6A6" id="path16"/>
    <g id="path20">
      <path d="M47.759,10.463 C47.759,11.29 47.509,11.952 47.015,12.446 C46.447,13.032 45.708,13.327 44.802,13.327 C43.936,13.327 43.197,13.027 42.591,12.437 C41.983,11.837 41.68,11.102 41.68,10.221 C41.68,9.341 41.983,8.605 42.591,8.01 C43.197,7.415 43.936,7.115 44.802,7.115 C45.233,7.115 45.644,7.203 46.036,7.367 C46.427,7.531 46.746,7.754 46.976,8.029 L46.452,8.552 C46.05,8.082 45.503,7.851 44.802,7.851 C44.171,7.851 43.623,8.069 43.158,8.508 C42.698,8.949 42.468,9.52 42.468,10.221 C42.468,10.922 42.698,11.498 43.158,11.939 C43.623,12.373 44.171,12.596 44.802,12.596 C45.473,12.596 46.036,12.373 46.481,11.934 C46.774,11.643 46.941,11.242 46.985,10.729 L44.802,10.729 L44.802,10.013 L47.714,10.013 C47.749,10.168 47.759,10.318 47.759,10.463 z" fill="#FFFFFF"/>
      <path d="M47.759,10.463 C47.759,11.29 47.509,11.952 47.015,12.446 C46.447,13.032 45.708,13.327 44.802,13.327 C43.936,13.327 43.197,13.027 42.591,12.437 C41.983,11.837 41.68,11.102 41.68,10.221 C41.68,9.341 41.983,8.605 42.591,8.01 C43.197,7.415 43.936,7.115 44.802,7.115 C45.233,7.115 45.644,7.203 46.036,7.367 C46.427,7.531 46.746,7.754 46.976,8.029 L46.452,8.552 C46.05,8.082 45.503,7.851 44.802,7.851 C44.171,7.851 43.623,8.069 43.158,8.508 C42.698,8.949 42.468,9.52 42.468,10.221 C42.468,10.922 42.698,11.498 43.158,11.939 C43.623,12.373 44.171,12.596 44.802,12.596 C45.473,12.596 46.036,12.373 46.481,11.934 C46.774,11.643 46.941,11.242 46.985,10.729 L44.802,10.729 L44.802,10.013 L47.714,10.013 C47.749,10.168 47.759,10.318 47.759,10.463 z" fill-opacity="0" stroke="#FFFFFF" stroke-width="0.2" stroke-miterlimit="10"/>
    </g>
    <g id="path24">
      <path d="M52.379,7.981 L49.644,7.981 L49.644,9.863 L52.11,9.863 L52.11,10.579 L49.644,10.579 L49.644,12.461 L52.379,12.461 L52.379,13.191 L48.869,13.191 L48.869,7.251 L52.379,7.251 L52.379,7.981 z" fill="#FFFFFF"/>
      <path d="M52.379,7.981 L49.644,7.981 L49.644,9.863 L52.11,9.863 L52.11,10.579 L49.644,10.579 L49.644,12.461 L52.379,12.461 L52.379,13.191 L48.869,13.191 L48.869,7.251 L52.379,7.251 L52.379,7.981 z" fill-opacity="0" stroke="#FFFFFF" stroke-width="0.2" stroke-miterlimit="10"/>
    </g>
    <g id="path28">
      <path d="M55.639,13.191 L54.865,13.191 L54.865,7.981 L53.187,7.981 L53.187,7.251 L57.318,7.251 L57.318,7.981 L55.639,7.981 L55.639,13.191 z" fill="#FFFFFF"/>
      <path d="M55.639,13.191 L54.865,13.191 L54.865,7.981 L53.187,7.981 L53.187,7.251 L57.318,7.251 L57.318,7.981 L55.639,7.981 L55.639,13.191 z" fill-opacity="0" stroke="#FFFFFF" stroke-width="0.2" stroke-miterlimit="10"/>
    </g>
    <g id="path32">
      <path d="M60.308,13.191 L60.308,7.251 L61.081,7.251 L61.081,13.191 L60.308,13.191 z" fill="#FFFFFF"/>
      <path d="M60.308,13.191 L60.308,7.251 L61.081,7.251 L61.081,13.191 L60.308,13.191 z" fill-opacity="0" stroke="#FFFFFF" stroke-width="0.2" stroke-miterlimit="10"/>
    </g>
    <g id="path36">
      <path d="M64.508,13.191 L63.74,13.191 L63.74,7.981 L62.056,7.981 L62.056,7.251 L66.192,7.251 L66.192,7.981 L64.508,7.981 L64.508,13.191 z" fill="#FFFFFF"/>
      <path d="M64.508,13.191 L63.74,13.191 L63.74,7.981 L62.056,7.981 L62.056,7.251 L66.192,7.251 L66.192,7.981 L64.508,7.981 L64.508,13.191 z" fill-opacity="0" stroke="#FFFFFF" stroke-width="0.2" stroke-miterlimit="10"/>
    </g>
    <g id="path40">
      <path d="M74.013,12.427 C73.421,13.027 72.686,13.327 71.81,13.327 C70.93,13.327 70.195,13.027 69.603,12.427 C69.011,11.827 68.717,11.092 68.717,10.221 C68.717,9.35 69.011,8.615 69.603,8.015 C70.195,7.415 70.93,7.115 71.81,7.115 C72.681,7.115 73.416,7.415 74.008,8.02 C74.605,8.625 74.899,9.355 74.899,10.221 C74.899,11.092 74.605,11.827 74.013,12.427 z M70.175,11.929 C70.621,12.373 71.164,12.596 71.81,12.596 C72.452,12.596 73,12.373 73.441,11.929 C73.885,11.484 74.111,10.913 74.111,10.221 C74.111,9.529 73.885,8.958 73.441,8.513 C73,8.069 72.452,7.846 71.81,7.846 C71.164,7.846 70.621,8.069 70.175,8.513 C69.73,8.958 69.505,9.529 69.505,10.221 C69.505,10.913 69.73,11.484 70.175,11.929 z" fill="#FFFFFF"/>
      <path d="M74.013,12.427 C73.421,13.027 72.686,13.327 71.81,13.327 C70.93,13.327 70.195,13.027 69.603,12.427 C69.011,11.827 68.717,11.092 68.717,10.221 C68.717,9.35 69.011,8.615 69.603,8.015 C70.195,7.415 70.93,7.115 71.81,7.115 C72.681,7.115 73.416,7.415 74.008,8.02 C74.605,8.625 74.899,9.355 74.899,10.221 C74.899,11.092 74.605,11.827 74.013,12.427 z M70.175,11.929 C70.621,12.373 71.164,12.596 71.81,12.596 C72.452,12.596 73,12.373 73.441,11.929 C73.885,11.484 74.111,10.913 74.111,10.221 C74.111,9.529 73.885,8.958 73.441,8.513 C73,8.069 72.452,7.846 71.81,7.846 C71.164,7.846 70.621,8.069 70.175,8.513 C69.73,8.958 69.505,9.529 69.505,10.221 C69.505,10.913 69.73,11.484 70.175,11.929 z" fill-opacity="0" stroke="#FFFFFF" stroke-width="0.2" stroke-miterlimit="10"/>
    </g>
    <g id="path44">
      <path d="M75.985,13.191 L75.985,7.251 L76.925,7.251 L79.847,11.871 L79.881,11.871 L79.847,10.729 L79.847,7.251 L80.62,7.251 L80.62,13.191 L79.813,13.191 L76.753,8.344 L76.72,8.344 L76.753,9.49 L76.753,13.191 L75.985,13.191 z" fill="#FFFFFF"/>
      <path d="M75.985,13.191 L75.985,7.251 L76.925,7.251 L79.847,11.871 L79.881,11.871 L79.847,10.729 L79.847,7.251 L80.62,7.251 L80.62,13.191 L79.813,13.191 L76.753,8.344 L76.72,8.344 L76.753,9.49 L76.753,13.191 L75.985,13.191 z" fill-opacity="0" stroke="#FFFFFF" stroke-width="0.2" stroke-miterlimit="10"/>
    </g>
    <path d="M68.526,21.865 C66.172,21.865 64.249,23.636 64.249,26.079 C64.249,28.503 66.172,30.292 68.526,30.292 C70.886,30.292 72.809,28.503 72.809,26.079 C72.809,23.636 70.886,21.865 68.526,21.865 z M68.526,28.633 C67.235,28.633 66.123,27.579 66.123,26.079 C66.123,24.559 67.235,23.524 68.526,23.524 C69.818,23.524 70.935,24.559 70.935,26.079 C70.935,27.579 69.818,28.633 68.526,28.633 z M59.193,21.865 C56.833,21.865 54.915,23.636 54.915,26.079 C54.915,28.503 56.833,30.292 59.193,30.292 C61.551,30.292 63.471,28.503 63.471,26.079 C63.471,23.636 61.551,21.865 59.193,21.865 z M59.193,28.633 C57.9,28.633 56.785,27.579 56.785,26.079 C56.785,24.559 57.9,23.524 59.193,23.524 C60.485,23.524 61.596,24.559 61.596,26.079 C61.596,27.579 60.485,28.633 59.193,28.633 z M48.086,23.156 L48.086,24.947 L52.413,24.947 C52.286,25.948 51.948,26.683 51.429,27.196 C50.798,27.815 49.814,28.503 48.086,28.503 C45.424,28.503 43.339,26.379 43.339,23.747 C43.339,21.115 45.424,18.991 48.086,18.991 C49.526,18.991 50.574,19.548 51.347,20.268 L52.623,19.006 C51.542,17.986 50.104,17.202 48.086,17.202 C44.435,17.202 41.367,20.138 41.367,23.747 C41.367,27.356 44.435,30.292 48.086,30.292 C50.06,30.292 51.542,29.653 52.707,28.454 C53.901,27.274 54.274,25.615 54.274,24.275 C54.274,23.858 54.238,23.476 54.176,23.156 L48.086,23.156 z M93.502,24.545 C93.15,23.602 92.064,21.865 89.851,21.865 C87.658,21.865 85.833,23.572 85.833,26.079 C85.833,28.439 87.639,30.292 90.061,30.292 C92.02,30.292 93.15,29.112 93.615,28.424 L92.162,27.467 C91.677,28.168 91.016,28.633 90.061,28.633 C89.113,28.633 88.433,28.203 87.997,27.356 L93.699,25.024 L93.502,24.545 z M87.688,25.948 C87.639,24.323 88.965,23.491 89.915,23.491 C90.659,23.491 91.291,23.858 91.501,24.385 L87.688,25.948 z M83.054,30.036 L84.928,30.036 L84.928,17.652 L83.054,17.652 L83.054,30.036 z M79.984,22.803 L79.921,22.803 C79.5,22.31 78.697,21.865 77.679,21.865 C75.544,21.865 73.592,23.717 73.592,26.093 C73.592,28.454 75.544,30.292 77.679,30.292 C78.697,30.292 79.5,29.842 79.921,29.335 L79.984,29.335 L79.984,29.939 C79.984,31.55 79.113,32.416 77.708,32.416 C76.563,32.416 75.853,31.599 75.559,30.911 L73.929,31.584 C74.399,32.701 75.643,34.075 77.708,34.075 C79.906,34.075 81.76,32.797 81.76,29.688 L81.76,22.121 L79.984,22.121 L79.984,22.803 z M77.84,28.633 C76.548,28.633 75.467,27.564 75.467,26.093 C75.467,24.608 76.548,23.524 77.84,23.524 C79.113,23.524 80.117,24.608 80.117,26.093 C80.117,27.564 79.113,28.633 77.84,28.633 z M102.278,17.652 L97.795,17.652 L97.795,30.036 L99.664,30.036 L99.664,25.343 L102.278,25.343 C104.354,25.343 106.39,23.858 106.39,21.497 C106.39,19.136 104.349,17.652 102.278,17.652 z M102.327,23.621 L99.664,23.621 L99.664,19.374 L102.327,19.374 C103.723,19.374 104.52,20.52 104.52,21.497 C104.52,22.455 103.723,23.621 102.327,23.621 z M113.883,21.841 C112.533,21.841 111.128,22.431 110.55,23.737 L112.209,24.424 C112.566,23.737 113.223,23.514 113.917,23.514 C114.887,23.514 115.871,24.09 115.886,25.107 L115.886,25.237 C115.547,25.044 114.823,24.758 113.932,24.758 C112.145,24.758 110.325,25.73 110.325,27.544 C110.325,29.203 111.788,30.272 113.434,30.272 C114.692,30.272 115.386,29.711 115.822,29.059 L115.886,29.059 L115.886,30.016 L117.691,30.016 L117.691,25.265 C117.691,23.07 116.032,21.841 113.883,21.841 z M113.658,28.628 C113.046,28.628 112.194,28.328 112.194,27.579 C112.194,26.62 113.257,26.252 114.177,26.252 C115,26.252 115.386,26.432 115.886,26.668 C115.739,27.815 114.74,28.628 113.658,28.628 z M124.269,22.112 L122.121,27.481 L122.057,27.481 L119.835,22.112 L117.819,22.112 L121.157,29.615 L119.252,33.789 L121.206,33.789 L126.349,22.112 L124.269,22.112 z M107.418,30.036 L109.292,30.036 L109.292,17.652 L107.418,17.652 L107.418,30.036 z" fill="#FFFFFF" id="path46"/>
    <path d="M10.688,7.783 C10.394,8.087 10.223,8.562 10.223,9.176 L10.223,31.086 C10.223,31.7 10.394,32.174 10.688,32.479 L10.761,32.546 L23.183,20.273 L23.183,19.983 L10.761,7.711 L10.688,7.783 z" fill="url(#Gradient_1)" id="path64"/>
    <path d="M27.319,24.366 L23.183,20.273 L23.183,19.983 L27.324,15.891 L27.417,15.944 L32.321,18.702 C33.721,19.484 33.721,20.772 32.321,21.56 L27.417,24.313 L27.319,24.366 z" fill="url(#Gradient_2)" id="path78"/>
    <path d="M27.417,24.313 L23.183,20.128 L10.688,32.479 C11.153,32.962 11.911,33.02 12.773,32.537 L27.417,24.313" fill="url(#Gradient_3)" id="path88"/>
    <path d="M27.417,15.944 L12.773,7.719 C11.911,7.241 11.153,7.3 10.688,7.783 L23.183,20.128 L27.417,15.944 z" fill="url(#Gradient_4)" id="path104"/>
    <g clip-path="url(#Clip_2)" id="g148">
      <path d="M-9.796,49.85 L145.575,49.85 L145.575,-9.594 L-9.796,-9.594 L-9.796,49.85 z" fill="url(#Pattern_5)" id="path152"/>
    </g>
    <g clip-path="url(#Clip_4)" id="g196">
      <path d="M-9.796,49.85 L145.575,49.85 L145.575,-9.594 L-9.796,-9.594 L-9.796,49.85 z" fill="url(#Pattern_6)" id="path200"/>
    </g>
    <g clip-path="url(#Clip_6)" id="g244">
      <path d="M-9.796,49.85 L145.575,49.85 L145.575,-9.594 L-9.796,-9.594 L-9.796,49.85 z" fill="url(#Pattern_7)" id="path248"/>
    </g>
    <g clip-path="url(#Clip_8)" id="g292">
      <path d="M-9.796,49.85 L145.575,49.85 L145.575,-9.594 L-9.796,-9.594 L-9.796,49.85 z" fill="url(#Pattern_8)" id="path296"/>
    </g>
  </g>
</svg>
