<?xml version="1.0" encoding="UTF-8" standalone="no"?>
<!-- Created with Inkscape (http://www.inkscape.org/) -->

<svg
   xmlns:dc="http://purl.org/dc/elements/1.1/"
   xmlns:cc="http://creativecommons.org/ns#"
   xmlns:rdf="http://www.w3.org/1999/02/22-rdf-syntax-ns#"
   xmlns:svg="http://www.w3.org/2000/svg"
   xmlns="http://www.w3.org/2000/svg"
   xmlns:xlink="http://www.w3.org/1999/xlink"
   version="1.1"
   width="1838.6289"
   height="1021.6275"
   id="svg2">
  <defs
     id="defs4">
    <linearGradient
       id="linearGradient4196">
      <stop
         id="stop4198"
         style="stop-color:#6bff6b;stop-opacity:0.26415095"
         offset="0" />
      <stop
         id="stop4204"
         style="stop-color:#93de93;stop-opacity:0.19496855"
         offset="0.15850711" />
      <stop
         id="stop4206"
         style="stop-color:#167016;stop-opacity:0.2"
         offset="0.75" />
      <stop
         id="stop4200"
         style="stop-color:#005a00;stop-opacity:0.6100629"
         offset="1" />
    </linearGradient>
    <linearGradient
       id="linearGradient4129">
      <stop
         id="stop4131"
         style="stop-color:#3b3b3b;stop-opacity:1"
         offset="0" />
      <stop
         id="stop4133"
         style="stop-color:#dcdcdc;stop-opacity:1"
         offset="1" />
    </linearGradient>
    <linearGradient
       id="linearGradient3964">
      <stop
         id="stop3966"
         style="stop-color:#ffffff;stop-opacity:0.33962265"
         offset="0" />
      <stop
         id="stop3968"
         style="stop-color:#404040;stop-opacity:0.35849056"
         offset="1" />
    </linearGradient>
    <linearGradient
       id="linearGradient3956">
      <stop
         id="stop3958"
         style="stop-color:#1b1b1b;stop-opacity:1"
         offset="0" />
      <stop
         id="stop3960"
         style="stop-color:#4a4a4a;stop-opacity:1"
         offset="1" />
    </linearGradient>
    <linearGradient
       id="linearGradient3924">
      <stop
         id="stop3926"
         style="stop-color:#999999;stop-opacity:1"
         offset="0" />
      <stop
         id="stop3928"
         style="stop-color:#d2d2d2;stop-opacity:1"
         offset="1" />
    </linearGradient>
    <filter
       color-interpolation-filters="sRGB"
       id="filter3916">
      <feGaussianBlur
         id="feGaussianBlur3918"
         stdDeviation="1.4050744" />
    </filter>
    <linearGradient
       x1="1266.6144"
       y1="300.25467"
       x2="1188.2301"
       y2="221.87041"
       id="linearGradient3932"
       xlink:href="#linearGradient3924"
       gradientUnits="userSpaceOnUse" />
    <linearGradient
       x1="1271.2776"
       y1="316.30405"
       x2="1211.2335"
       y2="212.30466"
       id="linearGradient3942"
       xlink:href="#linearGradient3924"
       gradientUnits="userSpaceOnUse" />
    <linearGradient
       x1="1266.6144"
       y1="300.25467"
       x2="1188.2301"
       y2="221.87041"
       id="linearGradient3946"
       xlink:href="#linearGradient3924"
       gradientUnits="userSpaceOnUse" />
    <linearGradient
       x1="1266.6144"
       y1="300.25467"
       x2="1188.2301"
       y2="221.87041"
       id="linearGradient3950"
       xlink:href="#linearGradient3956"
       gradientUnits="userSpaceOnUse" />
    <radialGradient
       cx="1359.171"
       cy="73.479027"
       r="73.094482"
       fx="1359.171"
       fy="73.479027"
       id="radialGradient3972"
       xlink:href="#linearGradient3964"
       gradientUnits="userSpaceOnUse"
       gradientTransform="matrix(-1.363439,1.0977504,-0.48545494,-0.60294933,3181.8241,-1221.3325)" />
    <linearGradient
       x1="1266.6144"
       y1="300.25467"
       x2="1188.2301"
       y2="221.87041"
       id="linearGradient3986"
       xlink:href="#linearGradient3924"
       gradientUnits="userSpaceOnUse" />
    <linearGradient
       x1="1271.2776"
       y1="316.30405"
       x2="1211.2335"
       y2="212.30466"
       id="linearGradient3988"
       xlink:href="#linearGradient3924"
       gradientUnits="userSpaceOnUse" />
    <linearGradient
       x1="1266.6144"
       y1="300.25467"
       x2="1188.2301"
       y2="221.87041"
       id="linearGradient3990"
       xlink:href="#linearGradient3924"
       gradientUnits="userSpaceOnUse" />
    <linearGradient
       x1="1266.6144"
       y1="300.25467"
       x2="1188.2301"
       y2="221.87041"
       id="linearGradient3992"
       xlink:href="#linearGradient3956"
       gradientUnits="userSpaceOnUse" />
    <radialGradient
       cx="1359.171"
       cy="73.479027"
       r="73.094482"
       fx="1359.171"
       fy="73.479027"
       id="radialGradient3994"
       xlink:href="#linearGradient3964"
       gradientUnits="userSpaceOnUse"
       gradientTransform="matrix(-1.363439,1.0977504,-0.48545494,-0.60294933,3181.8241,-1221.3325)" />
    <linearGradient
       x1="1266.6144"
       y1="300.25467"
       x2="1188.2301"
       y2="221.87041"
       id="linearGradient4008"
       xlink:href="#linearGradient3924"
       gradientUnits="userSpaceOnUse" />
    <linearGradient
       x1="1271.2776"
       y1="316.30405"
       x2="1211.2335"
       y2="212.30466"
       id="linearGradient4010"
       xlink:href="#linearGradient3924"
       gradientUnits="userSpaceOnUse" />
    <linearGradient
       x1="1266.6144"
       y1="300.25467"
       x2="1188.2301"
       y2="221.87041"
       id="linearGradient4012"
       xlink:href="#linearGradient3924"
       gradientUnits="userSpaceOnUse" />
    <linearGradient
       x1="1266.6144"
       y1="300.25467"
       x2="1188.2301"
       y2="221.87041"
       id="linearGradient4014"
       xlink:href="#linearGradient3956"
       gradientUnits="userSpaceOnUse" />
    <radialGradient
       cx="1359.171"
       cy="73.479027"
       r="73.094482"
       fx="1359.171"
       fy="73.479027"
       id="radialGradient4016"
       xlink:href="#linearGradient3964"
       gradientUnits="userSpaceOnUse"
       gradientTransform="matrix(-1.363439,1.0977504,-0.48545494,-0.60294933,3181.8241,-1221.3325)" />
    <linearGradient
       x1="1266.6144"
       y1="300.25467"
       x2="1188.2301"
       y2="221.87041"
       id="linearGradient4054"
       xlink:href="#linearGradient3924"
       gradientUnits="userSpaceOnUse" />
    <linearGradient
       x1="1271.2776"
       y1="316.30405"
       x2="1211.2335"
       y2="212.30466"
       id="linearGradient4056"
       xlink:href="#linearGradient3924"
       gradientUnits="userSpaceOnUse" />
    <linearGradient
       x1="1266.6144"
       y1="300.25467"
       x2="1188.2301"
       y2="221.87041"
       id="linearGradient4058"
       xlink:href="#linearGradient3924"
       gradientUnits="userSpaceOnUse" />
    <linearGradient
       x1="1266.6144"
       y1="300.25467"
       x2="1188.2301"
       y2="221.87041"
       id="linearGradient4060"
       xlink:href="#linearGradient3956"
       gradientUnits="userSpaceOnUse" />
    <radialGradient
       cx="1359.171"
       cy="73.479027"
       r="73.094482"
       fx="1359.171"
       fy="73.479027"
       id="radialGradient4062"
       xlink:href="#linearGradient3964"
       gradientUnits="userSpaceOnUse"
       gradientTransform="matrix(-1.363439,1.0977504,-0.48545494,-0.60294933,3181.8241,-1221.3325)" />
    <linearGradient
       x1="1266.6144"
       y1="300.25467"
       x2="1188.2301"
       y2="221.87041"
       id="linearGradient4064"
       xlink:href="#linearGradient3924"
       gradientUnits="userSpaceOnUse" />
    <linearGradient
       x1="1271.2776"
       y1="316.30405"
       x2="1211.2335"
       y2="212.30466"
       id="linearGradient4066"
       xlink:href="#linearGradient3924"
       gradientUnits="userSpaceOnUse" />
    <linearGradient
       x1="1266.6144"
       y1="300.25467"
       x2="1188.2301"
       y2="221.87041"
       id="linearGradient4068"
       xlink:href="#linearGradient3924"
       gradientUnits="userSpaceOnUse" />
    <linearGradient
       x1="1266.6144"
       y1="300.25467"
       x2="1188.2301"
       y2="221.87041"
       id="linearGradient4070"
       xlink:href="#linearGradient3956"
       gradientUnits="userSpaceOnUse" />
    <radialGradient
       cx="1359.171"
       cy="73.479027"
       r="73.094482"
       fx="1359.171"
       fy="73.479027"
       id="radialGradient4072"
       xlink:href="#linearGradient3964"
       gradientUnits="userSpaceOnUse"
       gradientTransform="matrix(-1.363439,1.0977504,-0.48545494,-0.60294933,3181.8241,-1221.3325)" />
    <linearGradient
       x1="1266.6144"
       y1="300.25467"
       x2="1188.2301"
       y2="221.87041"
       id="linearGradient4074"
       xlink:href="#linearGradient3924"
       gradientUnits="userSpaceOnUse" />
    <linearGradient
       x1="1271.2776"
       y1="316.30405"
       x2="1211.2335"
       y2="212.30466"
       id="linearGradient4076"
       xlink:href="#linearGradient3924"
       gradientUnits="userSpaceOnUse" />
    <linearGradient
       x1="1266.6144"
       y1="300.25467"
       x2="1188.2301"
       y2="221.87041"
       id="linearGradient4078"
       xlink:href="#linearGradient3924"
       gradientUnits="userSpaceOnUse" />
    <linearGradient
       x1="1266.6144"
       y1="300.25467"
       x2="1188.2301"
       y2="221.87041"
       id="linearGradient4080"
       xlink:href="#linearGradient3956"
       gradientUnits="userSpaceOnUse" />
    <radialGradient
       cx="1359.171"
       cy="73.479027"
       r="73.094482"
       fx="1359.171"
       fy="73.479027"
       id="radialGradient4082"
       xlink:href="#linearGradient3964"
       gradientUnits="userSpaceOnUse"
       gradientTransform="matrix(-1.363439,1.0977504,-0.48545494,-0.60294933,3181.8241,-1221.3325)" />
    <filter
       x="-0.050000001"
       y="-0.050000001"
       width="1.1"
       height="1.1"
       color-interpolation-filters="sRGB"
       id="filter4099">
      <feGaussianBlur
         result="result1"
         stdDeviation="1"
         id="feGaussianBlur4101" />
      <feComposite
         in2="result1"
         operator="in"
         in="result1"
         result="result4"
         id="feComposite4103" />
      <feBlend
         in2="result4"
         mode="screen"
         in="result1"
         result="result5"
         id="feBlend4105" />
      <feGaussianBlur
         in="result5"
         result="result6"
         stdDeviation="8"
         id="feGaussianBlur4107" />
      <feComposite
         in2="result5"
         operator="atop"
         in="result6"
         result="result8"
         id="feComposite4109" />
      <feComposite
         in2="result8"
         operator="in"
         in="result6"
         result="fbSourceGraphic"
         id="feComposite4111" />
      <feGaussianBlur
         stdDeviation="2.5"
         in="fbSourceGraphic"
         result="result0"
         id="feGaussianBlur4113" />
      <feSpecularLighting
         in="result0"
         result="result1"
         lighting-color="#ffffff"
         surfaceScale="1"
         specularConstant="1.5"
         specularExponent="45"
         id="feSpecularLighting4115">
        <fePointLight
           x="-6000"
           y="-9000"
           z="21000"
           id="fePointLight4117" />
      </feSpecularLighting>
      <feComposite
         in2="fbSourceGraphic"
         operator="in"
         in="result1"
         result="result2"
         id="feComposite4119" />
      <feComposite
         in2="result2"
         operator="arithmetic"
         k1="0"
         k2="1"
         k3="1"
         k4="0"
         in="fbSourceGraphic"
         result="result4"
         id="feComposite4121" />
      <feComposite
         in2="result4"
         operator="in"
         result="result91"
         id="feComposite4123" />
      <feBlend
         in2="result91"
         mode="multiply"
         id="feBlend4125" />
    </filter>
    <linearGradient
       x1="-160.46336"
       y1="74.61496"
       x2="928.42108"
       y2="740.90857"
       id="linearGradient4143"
       xlink:href="#linearGradient4129"
       gradientUnits="userSpaceOnUse" />
    <filter
       color-interpolation-filters="sRGB"
       id="filter4190">
      <feGaussianBlur
         id="feGaussianBlur4192"
         stdDeviation="2.3345957" />
    </filter>
    <radialGradient
       cx="-64.710754"
       cy="90.342812"
       r="600"
       fx="-64.710754"
       fy="90.342812"
       id="radialGradient4202"
       xlink:href="#linearGradient4196"
       gradientUnits="userSpaceOnUse"
       gradientTransform="matrix(1.2653822,0.90397724,-0.62216315,0.87088635,85.52948,194.46886)" />
  </defs>
  <metadata
     id="metadata7">
    <rdf:RDF>
      <cc:Work
         rdf:about="">
        <dc:format>image/svg+xml</dc:format>
        <dc:type
           rdf:resource="http://purl.org/dc/dcmitype/StillImage" />
        <dc:title></dc:title>
      </cc:Work>
    </rdf:RDF>
  </metadata>
  <path
     d="m -636.48792,-53.361309 2137.11282,0 0,919.887639 -2137.11282,0 z"
     transform="matrix(0.79683799,0,0,1.0088271,575.02583,100.64232)"
     id="rect4084"
     style="color:#000000;fill:#666666;fill-opacity:1;fill-rule:evenodd;stroke:#6fdf6f;stroke-width:0;stroke-linecap:round;stroke-linejoin:miter;stroke-miterlimit:4;stroke-opacity:0.73799127;stroke-dashoffset:0;marker:none;visibility:visible;display:inline;overflow:visible;filter:url(#filter4099);enable-background:accumulate" />
  <g
     transform="translate(487.24592,90.195112)"
     id="layer1"
     style="display:inline">
    <path
       d="m -86.669082,74.798099 c -86.195328,0 -83.188468,60.323891 -83.188468,81.745921 l 0,518.22446 c 0,24.34014 -1.50357,81.74592 83.188468,81.74592 341.771142,0 683.542282,0 1025.313422,0 86.22566,0 83.18846,-61.67639 83.18846,-81.74592 l 0,-518.22446 c 0,-22.97412 3.0372,-81.745921 -83.18846,-81.745921 -341.77114,0 -683.54228,0 -1025.313422,0 z"
       id="path3767"
       style="color:#000000;fill:#008000;fill-opacity:1;fill-rule:nonzero;stroke:#07316d;stroke-width:8.28369999;stroke-linecap:butt;stroke-linejoin:miter;stroke-miterlimit:4;stroke-opacity:1;stroke-dashoffset:0;marker:none;visibility:visible;display:inline;overflow:visible;enable-background:accumulate" />
    <path
       d="m -173.01219,70.656249 0,690.000001 m 30,-690.000001 0,690.000001 m 30,-690.000001 0,690.000001 m 30.000001,-690.000001 0,690.000001 m 30,-690.000001 0,690.000001 m 30,-690.000001 0,690.000001 m 30,-690.000001 0,690.000001 M 36.98781,70.656249 l 0,690.000001 m 30,-690.000001 0,690.000001 m 30,-690.000001 0,690.000001 m 30,-690.000001 0,690.000001 m 30,-690.000001 0,690.000001 m 30,-690.000001 0,690.000001 m 30,-690.000001 0,690.000001 m 30,-690.000001 0,690.000001 m 30,-690.000001 0,690.000001 m 30,-690.000001 0,690.000001 m 30,-690.000001 0,690.000001 m 30,-690.000001 0,690.000001 m 30,-690.000001 0,690.000001 m 30,-690.000001 0,690.000001 m 30,-690.000001 0,690.000001 m 30,-690.000001 0,690.000001 m 30,-690.000001 0,690.000001 m 30,-690.000001 0,690.000001 m 30,-690.000001 0,690.000001 m 30,-690.000001 0,690.000001 m 30,-690.000001 0,690.000001 m 30,-690.000001 0,690.000001 m 30,-690.000001 0,690.000001 m 30,-690.000001 0,690.000001 m 30,-690.000001 0,690.000001 m 30,-690.000001 0,690.000001 m 30,-690.000001 0,690.000001 m 30,-690.000001 0,690.000001 m 30,-690.000001 0,690.000001 m 30,-690.000001 0,690.000001 m 29.99999,-690.000001 0,690.000001 m 30,-690.000001 0,690.000001 m 30,-690.000001 0,690.000001 M -173.01219,71.156249 l 1199.99999,0 m -1199.99999,30.000001 1199.99999,0 m -1199.99999,30 1199.99999,0 m -1199.99999,30 1199.99999,0 m -1199.99999,30 1199.99999,0 m -1199.99999,30 1199.99999,0 m -1199.99999,30 1199.99999,0 m -1199.99999,30 1199.99999,0 m -1199.99999,30 1199.99999,0 m -1199.99999,30 1199.99999,0 m -1199.99999,30 1199.99999,0 m -1199.99999,30 1199.99999,0 m -1199.99999,30 1199.99999,0 m -1199.99999,30 1199.99999,0 m -1199.99999,30 1199.99999,0 m -1199.99999,30 1199.99999,0 m -1199.99999,30 1199.99999,0 m -1199.99999,30 1199.99999,0 m -1199.99999,30 1199.99999,0 m -1199.99999,30 1199.99999,0 m -1199.99999,30 1199.99999,0 m -1199.99999,30 1199.99999,0 m -1199.99999,30 1199.99999,0"
       id="path3764"
       style="fill:none;stroke:#a5ff9f;stroke-width:0.5;stroke-linecap:butt;stroke-linejoin:miter;stroke-miterlimit:4;stroke-opacity:1;stroke-dasharray:none;display:inline" />
    <path
       d="m -83.25,74.8125 0,26.09375 -29.5,0 0,-23.90625 c -0.16766,0.03108 -0.33332,0.06206 -0.5,0.09375 l 0,23.8125 -29.5,0 0,-12.40625 c -0.16861,0.112785 -0.33348,0.229934 -0.5,0.34375 l 0,12.0625 -12.875,0 c -0.132,0.17108 -0.27677,0.32805 -0.40625,0.5 l 13.28125,0 0,29.5 -25.1875,0 c -0.0273,0.16646 -0.0675,0.33401 -0.0937,0.5 l 25.28125,0 0,29.5 -26.59375,0 0,0.5 26.59375,0 0,29.5 -26.59375,0 0,0.5 26.59375,0 0,29.5 -26.59375,0 0,0.5 26.59375,0 0,29.5 -26.59375,0 0,0.5 26.59375,0 0,29.5 -26.59375,0 0,0.5 26.59375,0 0,29.5 -26.59375,0 0,0.5 26.59375,0 0,29.5 -26.59375,0 0,0.5 26.59375,0 0,29.5 -26.59375,0 0,0.5 26.59375,0 0,29.5 -26.59375,0 0,0.5 26.59375,0 0,29.5 -26.59375,0 0,0.5 26.59375,0 0,29.5 -26.59375,0 0,0.5 26.59375,0 0,29.5 -26.59375,0 0,0.5 26.59375,0 0,29.5 -26.59375,0 0,0.5 26.59375,0 0,29.5 -26.59375,0 0,0.5 26.59375,0 0,29.5 -26.59375,0 0,0.5 26.59375,0 0,29.5 -26.59375,0 0,0.5 26.59375,0 0,29.5 -26.59375,0 0,0.5 26.59375,0 0,29.5 -26.59375,0 0,0.5 26.59375,0 0,29.5 -25.03125,0 c 0.0281,0.1673 0.0647,0.33237 0.0937,0.5 l 24.9375,0 0,29.5 -12.59375,0 c 0.13141,0.16768 0.27237,0.33324 0.40625,0.5 l 12.1875,0 0,11.21875 c 0.16475,0.11196 0.3332,0.23281 0.5,0.34375 l 0,-11.5625 29.5,0 0,22.84375 c 0.16561,0.0312 0.33342,0.0632 0.5,0.0937 l 0,-22.9375 29.5,0 0,25.09375 0.5,0 0,-25.09375 29.5,0 0,25.09375 0.5,0 0,-25.09375 29.5,0 0,25.09375 0.5,0 0,-25.09375 29.5,0 0,25.09375 0.5,0 0,-25.09375 29.5,0 0,25.09375 0.5,0 0,-25.09375 29.5,0 0,25.09375 0.5,0 0,-25.09375 29.5,0 0,25.09375 0.5,0 0,-25.09375 29.5,0 0,25.09375 0.5,0 0,-25.09375 29.5,0 0,25.09375 0.5,0 0,-25.09375 29.5,0 0,25.09375 0.5,0 0,-25.09375 29.5,0 0,25.09375 0.5,0 0,-25.09375 29.5,0 0,25.09375 0.5,0 0,-25.09375 29.5,0 0,25.09375 0.5,0 0,-25.09375 29.5,0 0,25.09375 0.5,0 0,-25.09375 29.5,0 0,25.09375 0.5,0 0,-25.09375 29.5,0 0,25.09375 0.5,0 0,-25.09375 29.5,0 0,25.09375 0.5,0 0,-25.09375 29.5,0 0,25.09375 0.5,0 0,-25.09375 29.5,0 0,25.09375 0.5,0 0,-25.09375 29.5,0 0,25.09375 0.5,0 0,-25.09375 29.5,0 0,25.09375 0.5,0 0,-25.09375 29.5,0 0,25.09375 0.5,0 0,-25.09375 29.5,0 0,25.09375 0.5,0 0,-25.09375 29.5,0 0,25.09375 0.5,0 0,-25.09375 29.5,0 0,25.09375 0.5,0 0,-25.09375 29.5,0 0,25.09375 0.5,0 0,-25.09375 29.5,0 0,25.09375 0.5,0 0,-25.09375 29.5,0 0,25.09375 0.5,0 0,-25.09375 29.5,0 0,25.09375 0.5,0 0,-25.09375 29.5,0 0,25.09375 0.5,0 0,-25.09375 29.5,0 0,25.09375 0.5,0 0,-25.09375 29.5,0 0,25.09375 0.5,0 0,-25.09375 29.5,0 0,25.09375 0.5,0 0,-25.09375 29.5,0 0,25.09375 0.5,0 0,-25.09375 29.5,0 0,25.09375 0.5,0 0,-25.09375 29.5,0 0,22.4375 c 0.16692,-0.0349 0.33409,-0.0582 0.5,-0.0937 l 0,-22.34375 29.5,0 0,9.75 c 0.16994,-0.12588 0.33235,-0.24802 0.5,-0.375 l 0,-9.375 9.7188,0 c 0.1361,-0.16703 0.2726,-0.33208 0.4062,-0.5 l -10.125,0 0,-29.5 22.875,0 c 0.031,-0.1674 0.064,-0.33308 0.094,-0.5 l -22.9688,0 0,-29.5 24.5938,0 0,-0.5 -24.5938,0 0,-29.5 24.5938,0 0,-0.5 -24.5938,0 0,-29.5 24.5938,0 0,-0.5 -24.5938,0 0,-29.5 24.5938,0 0,-0.5 -24.5938,0 0,-29.5 24.5938,0 0,-0.5 -24.5938,0 0,-29.5 24.5938,0 0,-0.5 -24.5938,0 0,-29.5 24.5938,0 0,-0.5 -24.5938,0 0,-29.5 24.5938,0 0,-0.5 -24.5938,0 0,-29.5 24.5938,0 0,-0.5 -24.5938,0 0,-29.5 24.5938,0 0,-0.5 -24.5938,0 0,-29.5 24.5938,0 0,-0.5 -24.5938,0 0,-29.5 24.5938,0 0,-0.5 -24.5938,0 0,-29.5 24.5938,0 0,-0.5 -24.5938,0 0,-29.5 24.5938,0 0,-0.5 -24.5938,0 0,-29.5 24.5938,0 0,-0.5 -24.5938,0 0,-29.5 24.5938,0 0,-0.5 -24.5938,0 0,-29.5 24.5938,0 0,-0.5 -24.5938,0 0,-29.5 24.5938,0 0,-0.5 -24.5938,0 0,-29.5 23.3438,0 c -0.025,-0.16715 -0.036,-0.33242 -0.063,-0.5 l -23.2812,0 0,-29.5 11.625,0 c -0.1245,-0.16714 -0.2481,-0.33369 -0.375,-0.5 l -11.25,0 0,-10.96875 c -0.16902,-0.123802 -0.32865,-0.252309 -0.5,-0.375 l 0,11.34375 -29.5,0 0,-23.46875 c -0.16608,-0.03405 -0.33291,-0.06031 -0.5,-0.09375 l 0,23.5625 -29.5,0 0,-26.09375 -0.5,0 0,26.09375 -29.5,0 0,-26.09375 -0.5,0 0,26.09375 -29.5,0 0,-26.09375 -0.5,0 0,26.09375 -29.5,0 0,-26.09375 -0.5,0 0,26.09375 -29.5,0 0,-26.09375 -0.5,0 0,26.09375 -29.5,0 0,-26.09375 -0.5,0 0,26.09375 -29.5,0 0,-26.09375 -0.5,0 0,26.09375 -29.5,0 0,-26.09375 -0.5,0 0,26.09375 -29.5,0 0,-26.09375 -0.5,0 0,26.09375 -29.5,0 0,-26.09375 -0.5,0 0,26.09375 -29.5,0 0,-26.09375 -0.5,0 0,26.09375 -29.5,0 0,-26.09375 -0.5,0 0,26.09375 -29.5,0 0,-26.09375 -0.5,0 0,26.09375 -29.5,0 0,-26.09375 -0.5,0 0,26.09375 -29.5,0 0,-26.09375 -0.5,0 0,26.09375 -29.5,0 0,-26.09375 -0.5,0 0,26.09375 -29.5,0 0,-26.09375 -0.5,0 0,26.09375 -29.5,0 0,-26.09375 -0.5,0 0,26.09375 -29.5,0 0,-26.09375 -0.5,0 0,26.09375 -29.5,0 0,-26.09375 -0.5,0 0,26.09375 -29.5,0 0,-26.09375 -0.5,0 0,26.09375 -29.5,0 0,-26.09375 -0.5,0 0,26.09375 -29.5,0 0,-26.09375 -0.5,0 0,26.09375 -29.5,0 0,-26.09375 -0.5,0 0,26.09375 -29.5,0 0,-26.09375 -0.5,0 0,26.09375 -29.5,0 0,-26.09375 -0.5,0 0,26.09375 -29.5,0 0,-26.09375 -0.5,0 0,26.09375 -29.5,0 0,-26.09375 -0.5,0 0,26.09375 -29.5,0 0,-26.09375 -0.5,0 0,26.09375 -29.5,0 0,-26.09375 -0.5,0 0,26.09375 -29.5,0 0,-26.09375 -0.5,0 0,26.09375 -29.5,0 0,-26.09375 -0.5,0 0,26.09375 -29.5,0 0,-26.09375 -0.5,0 0,26.09375 -29.5,0 0,-26.09375 -0.5,0 0,26.09375 -29.5,0 0,-26.09375 -0.5,0 z m -59.5,26.59375 29.5,0 0,29.5 -29.5,0 0,-29.5 z m 30,0 29.5,0 0,29.5 -29.5,0 0,-29.5 z m 30,0 29.5,0 0,29.5 -29.5,0 0,-29.5 z m 30,0 29.5,0 0,29.5 -29.5,0 0,-29.5 z m 30,0 29.5,0 0,29.5 -29.5,0 0,-29.5 z m 30,0 29.5,0 0,29.5 -29.5,0 0,-29.5 z m 30,0 29.5,0 0,29.5 -29.5,0 0,-29.5 z m 30,0 29.5,0 0,29.5 -29.5,0 0,-29.5 z m 30,0 29.5,0 0,29.5 -29.5,0 0,-29.5 z m 30,0 29.5,0 0,29.5 -29.5,0 0,-29.5 z m 30,0 29.5,0 0,29.5 -29.5,0 0,-29.5 z m 30,0 29.5,0 0,29.5 -29.5,0 0,-29.5 z m 30,0 29.5,0 0,29.5 -29.5,0 0,-29.5 z m 30,0 29.5,0 0,29.5 -29.5,0 0,-29.5 z m 30,0 29.5,0 0,29.5 -29.5,0 0,-29.5 z m 30,0 29.5,0 0,29.5 -29.5,0 0,-29.5 z m 30,0 29.5,0 0,29.5 -29.5,0 0,-29.5 z m 30,0 29.5,0 0,29.5 -29.5,0 0,-29.5 z m 30,0 29.5,0 0,29.5 -29.5,0 0,-29.5 z m 30,0 29.5,0 0,29.5 -29.5,0 0,-29.5 z m 30,0 29.5,0 0,29.5 -29.5,0 0,-29.5 z m 30,0 29.5,0 0,29.5 -29.5,0 0,-29.5 z m 30,0 29.5,0 0,29.5 -29.5,0 0,-29.5 z m 30,0 29.5,0 0,29.5 -29.5,0 0,-29.5 z m 30,0 29.5,0 0,29.5 -29.5,0 0,-29.5 z m 30,0 29.5,0 0,29.5 -29.5,0 0,-29.5 z m 30,0 29.5,0 0,29.5 -29.5,0 0,-29.5 z m 30,0 29.5,0 0,29.5 -29.5,0 0,-29.5 z m 30,0 29.5,0 0,29.5 -29.5,0 0,-29.5 z m 30,0 29.5,0 0,29.5 -29.5,0 0,-29.5 z m 30,0 29.5,0 0,29.5 -29.5,0 0,-29.5 z m 30,0 29.5,0 0,29.5 -29.5,0 0,-29.5 z m 30,0 29.5,0 0,29.5 -29.5,0 0,-29.5 z m 30,0 29.5,0 0,29.5 -29.5,0 0,-29.5 z m 30,0 29.5,0 0,29.5 -29.5,0 0,-29.5 z m 30,0 29.5,0 0,29.5 -29.5,0 0,-29.5 z m 30,0 29.5,0 0,29.5 -29.5,0 0,-29.5 z m 30,0 29.5,0 0,29.5 -29.5,0 0,-29.5 z m -1110,30 29.5,0 0,29.5 -29.5,0 0,-29.5 z m 30,0 29.5,0 0,29.5 -29.5,0 0,-29.5 z m 30,0 29.5,0 0,29.5 -29.5,0 0,-29.5 z m 30,0 29.5,0 0,29.5 -29.5,0 0,-29.5 z m 30,0 29.5,0 0,29.5 -29.5,0 0,-29.5 z m 30,0 29.5,0 0,29.5 -29.5,0 0,-29.5 z m 30,0 29.5,0 0,29.5 -29.5,0 0,-29.5 z m 30,0 29.5,0 0,29.5 -29.5,0 0,-29.5 z m 30,0 29.5,0 0,29.5 -29.5,0 0,-29.5 z m 30,0 29.5,0 0,29.5 -29.5,0 0,-29.5 z m 30,0 29.5,0 0,29.5 -29.5,0 0,-29.5 z m 30,0 29.5,0 0,29.5 -29.5,0 0,-29.5 z m 30,0 29.5,0 0,29.5 -29.5,0 0,-29.5 z m 30,0 29.5,0 0,29.5 -29.5,0 0,-29.5 z m 30,0 29.5,0 0,29.5 -29.5,0 0,-29.5 z m 30,0 29.5,0 0,29.5 -29.5,0 0,-29.5 z m 30,0 29.5,0 0,29.5 -29.5,0 0,-29.5 z m 30,0 29.5,0 0,29.5 -29.5,0 0,-29.5 z m 30,0 29.5,0 0,29.5 -29.5,0 0,-29.5 z m 30,0 29.5,0 0,29.5 -29.5,0 0,-29.5 z m 30,0 29.5,0 0,29.5 -29.5,0 0,-29.5 z m 30,0 29.5,0 0,29.5 -29.5,0 0,-29.5 z m 30,0 29.5,0 0,29.5 -29.5,0 0,-29.5 z m 30,0 29.5,0 0,29.5 -29.5,0 0,-29.5 z m 30,0 29.5,0 0,29.5 -29.5,0 0,-29.5 z m 30,0 29.5,0 0,29.5 -29.5,0 0,-29.5 z m 30,0 29.5,0 0,29.5 -29.5,0 0,-29.5 z m 30,0 29.5,0 0,29.5 -29.5,0 0,-29.5 z m 30,0 29.5,0 0,29.5 -29.5,0 0,-29.5 z m 30,0 29.5,0 0,29.5 -29.5,0 0,-29.5 z m 30,0 29.5,0 0,29.5 -29.5,0 0,-29.5 z m 30,0 29.5,0 0,29.5 -29.5,0 0,-29.5 z m 30,0 29.5,0 0,29.5 -29.5,0 0,-29.5 z m 30,0 29.5,0 0,29.5 -29.5,0 0,-29.5 z m 30,0 29.5,0 0,29.5 -29.5,0 0,-29.5 z m 30,0 29.5,0 0,29.5 -29.5,0 0,-29.5 z m 30,0 29.5,0 0,29.5 -29.5,0 0,-29.5 z m 30,0 29.5,0 0,29.5 -29.5,0 0,-29.5 z m -1110,30 29.5,0 0,29.5 -29.5,0 0,-29.5 z m 30,0 29.5,0 0,29.5 -29.5,0 0,-29.5 z m 30,0 29.5,0 0,29.5 -29.5,0 0,-29.5 z m 30,0 29.5,0 0,29.5 -29.5,0 0,-29.5 z m 30,0 29.5,0 0,29.5 -29.5,0 0,-29.5 z m 30,0 29.5,0 0,29.5 -29.5,0 0,-29.5 z m 30,0 29.5,0 0,29.5 -29.5,0 0,-29.5 z m 30,0 29.5,0 0,29.5 -29.5,0 0,-29.5 z m 30,0 29.5,0 0,29.5 -29.5,0 0,-29.5 z m 30,0 29.5,0 0,29.5 -29.5,0 0,-29.5 z m 30,0 29.5,0 0,29.5 -29.5,0 0,-29.5 z m 30,0 29.5,0 0,29.5 -29.5,0 0,-29.5 z m 30,0 29.5,0 0,29.5 -29.5,0 0,-29.5 z m 30,0 29.5,0 0,29.5 -29.5,0 0,-29.5 z m 30,0 29.5,0 0,29.5 -29.5,0 0,-29.5 z m 30,0 29.5,0 0,29.5 -29.5,0 0,-29.5 z m 30,0 29.5,0 0,29.5 -29.5,0 0,-29.5 z m 30,0 29.5,0 0,29.5 -29.5,0 0,-29.5 z m 30,0 29.5,0 0,29.5 -29.5,0 0,-29.5 z m 30,0 29.5,0 0,29.5 -29.5,0 0,-29.5 z m 30,0 29.5,0 0,29.5 -29.5,0 0,-29.5 z m 30,0 29.5,0 0,29.5 -29.5,0 0,-29.5 z m 30,0 29.5,0 0,29.5 -29.5,0 0,-29.5 z m 30,0 29.5,0 0,29.5 -29.5,0 0,-29.5 z m 30,0 29.5,0 0,29.5 -29.5,0 0,-29.5 z m 30,0 29.5,0 0,29.5 -29.5,0 0,-29.5 z m 30,0 29.5,0 0,29.5 -29.5,0 0,-29.5 z m 30,0 29.5,0 0,29.5 -29.5,0 0,-29.5 z m 30,0 29.5,0 0,29.5 -29.5,0 0,-29.5 z m 30,0 29.5,0 0,29.5 -29.5,0 0,-29.5 z m 30,0 29.5,0 0,29.5 -29.5,0 0,-29.5 z m 30,0 29.5,0 0,29.5 -29.5,0 0,-29.5 z m 30,0 29.5,0 0,29.5 -29.5,0 0,-29.5 z m 30,0 29.5,0 0,29.5 -29.5,0 0,-29.5 z m 30,0 29.5,0 0,29.5 -29.5,0 0,-29.5 z m 30,0 29.5,0 0,29.5 -29.5,0 0,-29.5 z m 30,0 29.5,0 0,29.5 -29.5,0 0,-29.5 z m 30,0 29.5,0 0,29.5 -29.5,0 0,-29.5 z m -1110,30 29.5,0 0,29.5 -29.5,0 0,-29.5 z m 30,0 29.5,0 0,29.5 -29.5,0 0,-29.5 z m 30,0 29.5,0 0,29.5 -29.5,0 0,-29.5 z m 30,0 29.5,0 0,29.5 -29.5,0 0,-29.5 z m 30,0 29.5,0 0,29.5 -29.5,0 0,-29.5 z m 30,0 29.5,0 0,29.5 -29.5,0 0,-29.5 z m 30,0 29.5,0 0,29.5 -29.5,0 0,-29.5 z m 30,0 29.5,0 0,29.5 -29.5,0 0,-29.5 z m 30,0 29.5,0 0,29.5 -29.5,0 0,-29.5 z m 30,0 29.5,0 0,29.5 -29.5,0 0,-29.5 z m 30,0 29.5,0 0,29.5 -29.5,0 0,-29.5 z m 30,0 29.5,0 0,29.5 -29.5,0 0,-29.5 z m 30,0 29.5,0 0,29.5 -29.5,0 0,-29.5 z m 30,0 29.5,0 0,29.5 -29.5,0 0,-29.5 z m 30,0 29.5,0 0,29.5 -29.5,0 0,-29.5 z m 30,0 29.5,0 0,29.5 -29.5,0 0,-29.5 z m 30,0 29.5,0 0,29.5 -29.5,0 0,-29.5 z m 30,0 29.5,0 0,29.5 -29.5,0 0,-29.5 z m 30,0 29.5,0 0,29.5 -29.5,0 0,-29.5 z m 30,0 29.5,0 0,29.5 -29.5,0 0,-29.5 z m 30,0 29.5,0 0,29.5 -29.5,0 0,-29.5 z m 30,0 29.5,0 0,29.5 -29.5,0 0,-29.5 z m 30,0 29.5,0 0,29.5 -29.5,0 0,-29.5 z m 30,0 29.5,0 0,29.5 -29.5,0 0,-29.5 z m 30,0 29.5,0 0,29.5 -29.5,0 0,-29.5 z m 30,0 29.5,0 0,29.5 -29.5,0 0,-29.5 z m 30,0 29.5,0 0,29.5 -29.5,0 0,-29.5 z m 30,0 29.5,0 0,29.5 -29.5,0 0,-29.5 z m 30,0 29.5,0 0,29.5 -29.5,0 0,-29.5 z m 30,0 29.5,0 0,29.5 -29.5,0 0,-29.5 z m 30,0 29.5,0 0,29.5 -29.5,0 0,-29.5 z m 30,0 29.5,0 0,29.5 -29.5,0 0,-29.5 z m 30,0 29.5,0 0,29.5 -29.5,0 0,-29.5 z m 30,0 29.5,0 0,29.5 -29.5,0 0,-29.5 z m 30,0 29.5,0 0,29.5 -29.5,0 0,-29.5 z m 30,0 29.5,0 0,29.5 -29.5,0 0,-29.5 z m 30,0 29.5,0 0,29.5 -29.5,0 0,-29.5 z m 30,0 29.5,0 0,29.5 -29.5,0 0,-29.5 z m -1110,30 29.5,0 0,29.5 -29.5,0 0,-29.5 z m 30,0 29.5,0 0,29.5 -29.5,0 0,-29.5 z m 30,0 29.5,0 0,29.5 -29.5,0 0,-29.5 z m 30,0 29.5,0 0,29.5 -29.5,0 0,-29.5 z m 30,0 29.5,0 0,29.5 -29.5,0 0,-29.5 z m 30,0 29.5,0 0,29.5 -29.5,0 0,-29.5 z m 30,0 29.5,0 0,29.5 -29.5,0 0,-29.5 z m 30,0 29.5,0 0,29.5 -29.5,0 0,-29.5 z m 30,0 29.5,0 0,29.5 -29.5,0 0,-29.5 z m 30,0 29.5,0 0,29.5 -29.5,0 0,-29.5 z m 30,0 29.5,0 0,29.5 -29.5,0 0,-29.5 z m 30,0 29.5,0 0,29.5 -29.5,0 0,-29.5 z m 30,0 29.5,0 0,29.5 -29.5,0 0,-29.5 z m 30,0 29.5,0 0,29.5 -29.5,0 0,-29.5 z m 30,0 29.5,0 0,29.5 -29.5,0 0,-29.5 z m 30,0 29.5,0 0,29.5 -29.5,0 0,-29.5 z m 30,0 29.5,0 0,29.5 -29.5,0 0,-29.5 z m 30,0 29.5,0 0,29.5 -29.5,0 0,-29.5 z m 30,0 29.5,0 0,29.5 -29.5,0 0,-29.5 z m 30,0 29.5,0 0,29.5 -29.5,0 0,-29.5 z m 30,0 29.5,0 0,29.5 -29.5,0 0,-29.5 z m 30,0 29.5,0 0,29.5 -29.5,0 0,-29.5 z m 30,0 29.5,0 0,29.5 -29.5,0 0,-29.5 z m 30,0 29.5,0 0,29.5 -29.5,0 0,-29.5 z m 30,0 29.5,0 0,29.5 -29.5,0 0,-29.5 z m 30,0 29.5,0 0,29.5 -29.5,0 0,-29.5 z m 30,0 29.5,0 0,29.5 -29.5,0 0,-29.5 z m 30,0 29.5,0 0,29.5 -29.5,0 0,-29.5 z m 30,0 29.5,0 0,29.5 -29.5,0 0,-29.5 z m 30,0 29.5,0 0,29.5 -29.5,0 0,-29.5 z m 30,0 29.5,0 0,29.5 -29.5,0 0,-29.5 z m 30,0 29.5,0 0,29.5 -29.5,0 0,-29.5 z m 30,0 29.5,0 0,29.5 -29.5,0 0,-29.5 z m 30,0 29.5,0 0,29.5 -29.5,0 0,-29.5 z m 30,0 29.5,0 0,29.5 -29.5,0 0,-29.5 z m 30,0 29.5,0 0,29.5 -29.5,0 0,-29.5 z m 30,0 29.5,0 0,29.5 -29.5,0 0,-29.5 z m 30,0 29.5,0 0,29.5 -29.5,0 0,-29.5 z m -1110,30 29.5,0 0,29.5 -29.5,0 0,-29.5 z m 30,0 29.5,0 0,29.5 -29.5,0 0,-29.5 z m 30,0 29.5,0 0,29.5 -29.5,0 0,-29.5 z m 30,0 29.5,0 0,29.5 -29.5,0 0,-29.5 z m 30,0 29.5,0 0,29.5 -29.5,0 0,-29.5 z m 30,0 29.5,0 0,29.5 -29.5,0 0,-29.5 z m 30,0 29.5,0 0,29.5 -29.5,0 0,-29.5 z m 30,0 29.5,0 0,29.5 -29.5,0 0,-29.5 z m 30,0 29.5,0 0,29.5 -29.5,0 0,-29.5 z m 30,0 29.5,0 0,29.5 -29.5,0 0,-29.5 z m 30,0 29.5,0 0,29.5 -29.5,0 0,-29.5 z m 30,0 29.5,0 0,29.5 -29.5,0 0,-29.5 z m 30,0 29.5,0 0,29.5 -29.5,0 0,-29.5 z m 30,0 29.5,0 0,29.5 -29.5,0 0,-29.5 z m 30,0 29.5,0 0,29.5 -29.5,0 0,-29.5 z m 30,0 29.5,0 0,29.5 -29.5,0 0,-29.5 z m 30,0 29.5,0 0,29.5 -29.5,0 0,-29.5 z m 30,0 29.5,0 0,29.5 -29.5,0 0,-29.5 z m 30,0 29.5,0 0,29.5 -29.5,0 0,-29.5 z m 30,0 29.5,0 0,29.5 -29.5,0 0,-29.5 z m 30,0 29.5,0 0,29.5 -29.5,0 0,-29.5 z m 30,0 29.5,0 0,29.5 -29.5,0 0,-29.5 z m 30,0 29.5,0 0,29.5 -29.5,0 0,-29.5 z m 30,0 29.5,0 0,29.5 -29.5,0 0,-29.5 z m 30,0 29.5,0 0,29.5 -29.5,0 0,-29.5 z m 30,0 29.5,0 0,29.5 -29.5,0 0,-29.5 z m 30,0 29.5,0 0,29.5 -29.5,0 0,-29.5 z m 30,0 29.5,0 0,29.5 -29.5,0 0,-29.5 z m 30,0 29.5,0 0,29.5 -29.5,0 0,-29.5 z m 30,0 29.5,0 0,29.5 -29.5,0 0,-29.5 z m 30,0 29.5,0 0,29.5 -29.5,0 0,-29.5 z m 30,0 29.5,0 0,29.5 -29.5,0 0,-29.5 z m 30,0 29.5,0 0,29.5 -29.5,0 0,-29.5 z m 30,0 29.5,0 0,29.5 -29.5,0 0,-29.5 z m 30,0 29.5,0 0,29.5 -29.5,0 0,-29.5 z m 30,0 29.5,0 0,29.5 -29.5,0 0,-29.5 z m 30,0 29.5,0 0,29.5 -29.5,0 0,-29.5 z m 30,0 29.5,0 0,29.5 -29.5,0 0,-29.5 z m -1110,30 29.5,0 0,29.5 -29.5,0 0,-29.5 z m 30,0 29.5,0 0,29.5 -29.5,0 0,-29.5 z m 30,0 29.5,0 0,29.5 -29.5,0 0,-29.5 z m 30,0 29.5,0 0,29.5 -29.5,0 0,-29.5 z m 30,0 29.5,0 0,29.5 -29.5,0 0,-29.5 z m 30,0 29.5,0 0,29.5 -29.5,0 0,-29.5 z m 30,0 29.5,0 0,29.5 -29.5,0 0,-29.5 z m 30,0 29.5,0 0,29.5 -29.5,0 0,-29.5 z m 30,0 29.5,0 0,29.5 -29.5,0 0,-29.5 z m 30,0 29.5,0 0,29.5 -29.5,0 0,-29.5 z m 30,0 29.5,0 0,29.5 -29.5,0 0,-29.5 z m 30,0 29.5,0 0,29.5 -29.5,0 0,-29.5 z m 30,0 29.5,0 0,29.5 -29.5,0 0,-29.5 z m 30,0 29.5,0 0,29.5 -29.5,0 0,-29.5 z m 30,0 29.5,0 0,29.5 -29.5,0 0,-29.5 z m 30,0 29.5,0 0,29.5 -29.5,0 0,-29.5 z m 30,0 29.5,0 0,29.5 -29.5,0 0,-29.5 z m 30,0 29.5,0 0,29.5 -29.5,0 0,-29.5 z m 30,0 29.5,0 0,29.5 -29.5,0 0,-29.5 z m 30,0 29.5,0 0,29.5 -29.5,0 0,-29.5 z m 30,0 29.5,0 0,29.5 -29.5,0 0,-29.5 z m 30,0 29.5,0 0,29.5 -29.5,0 0,-29.5 z m 30,0 29.5,0 0,29.5 -29.5,0 0,-29.5 z m 30,0 29.5,0 0,29.5 -29.5,0 0,-29.5 z m 30,0 29.5,0 0,29.5 -29.5,0 0,-29.5 z m 30,0 29.5,0 0,29.5 -29.5,0 0,-29.5 z m 30,0 29.5,0 0,29.5 -29.5,0 0,-29.5 z m 30,0 29.5,0 0,29.5 -29.5,0 0,-29.5 z m 30,0 29.5,0 0,29.5 -29.5,0 0,-29.5 z m 30,0 29.5,0 0,29.5 -29.5,0 0,-29.5 z m 30,0 29.5,0 0,29.5 -29.5,0 0,-29.5 z m 30,0 29.5,0 0,29.5 -29.5,0 0,-29.5 z m 30,0 29.5,0 0,29.5 -29.5,0 0,-29.5 z m 30,0 29.5,0 0,29.5 -29.5,0 0,-29.5 z m 30,0 29.5,0 0,29.5 -29.5,0 0,-29.5 z m 30,0 29.5,0 0,29.5 -29.5,0 0,-29.5 z m 30,0 29.5,0 0,29.5 -29.5,0 0,-29.5 z m 30,0 29.5,0 0,29.5 -29.5,0 0,-29.5 z m -1110,30 29.5,0 0,29.5 -29.5,0 0,-29.5 z m 30,0 29.5,0 0,29.5 -29.5,0 0,-29.5 z m 30,0 29.5,0 0,29.5 -29.5,0 0,-29.5 z m 30,0 29.5,0 0,29.5 -29.5,0 0,-29.5 z m 30,0 29.5,0 0,29.5 -29.5,0 0,-29.5 z m 30,0 29.5,0 0,29.5 -29.5,0 0,-29.5 z m 30,0 29.5,0 0,29.5 -29.5,0 0,-29.5 z m 30,0 29.5,0 0,29.5 -29.5,0 0,-29.5 z m 30,0 29.5,0 0,29.5 -29.5,0 0,-29.5 z m 30,0 29.5,0 0,29.5 -29.5,0 0,-29.5 z m 30,0 29.5,0 0,29.5 -29.5,0 0,-29.5 z m 30,0 29.5,0 0,29.5 -29.5,0 0,-29.5 z m 30,0 29.5,0 0,29.5 -29.5,0 0,-29.5 z m 30,0 29.5,0 0,29.5 -29.5,0 0,-29.5 z m 30,0 29.5,0 0,29.5 -29.5,0 0,-29.5 z m 30,0 29.5,0 0,29.5 -29.5,0 0,-29.5 z m 30,0 29.5,0 0,29.5 -29.5,0 0,-29.5 z m 30,0 29.5,0 0,29.5 -29.5,0 0,-29.5 z m 30,0 29.5,0 0,29.5 -29.5,0 0,-29.5 z m 30,0 29.5,0 0,29.5 -29.5,0 0,-29.5 z m 30,0 29.5,0 0,29.5 -29.5,0 0,-29.5 z m 30,0 29.5,0 0,29.5 -29.5,0 0,-29.5 z m 30,0 29.5,0 0,29.5 -29.5,0 0,-29.5 z m 30,0 29.5,0 0,29.5 -29.5,0 0,-29.5 z m 30,0 29.5,0 0,29.5 -29.5,0 0,-29.5 z m 30,0 29.5,0 0,29.5 -29.5,0 0,-29.5 z m 30,0 29.5,0 0,29.5 -29.5,0 0,-29.5 z m 30,0 29.5,0 0,29.5 -29.5,0 0,-29.5 z m 30,0 29.5,0 0,29.5 -29.5,0 0,-29.5 z m 30,0 29.5,0 0,29.5 -29.5,0 0,-29.5 z m 30,0 29.5,0 0,29.5 -29.5,0 0,-29.5 z m 30,0 29.5,0 0,29.5 -29.5,0 0,-29.5 z m 30,0 29.5,0 0,29.5 -29.5,0 0,-29.5 z m 30,0 29.5,0 0,29.5 -29.5,0 0,-29.5 z m 30,0 29.5,0 0,29.5 -29.5,0 0,-29.5 z m 30,0 29.5,0 0,29.5 -29.5,0 0,-29.5 z m 30,0 29.5,0 0,29.5 -29.5,0 0,-29.5 z m 30,0 29.5,0 0,29.5 -29.5,0 0,-29.5 z m -1110,30 29.5,0 0,29.5 -29.5,0 0,-29.5 z m 30,0 29.5,0 0,29.5 -29.5,0 0,-29.5 z m 30,0 29.5,0 0,29.5 -29.5,0 0,-29.5 z m 30,0 29.5,0 0,29.5 -29.5,0 0,-29.5 z m 30,0 29.5,0 0,29.5 -29.5,0 0,-29.5 z m 30,0 29.5,0 0,29.5 -29.5,0 0,-29.5 z m 30,0 29.5,0 0,29.5 -29.5,0 0,-29.5 z m 30,0 29.5,0 0,29.5 -29.5,0 0,-29.5 z m 30,0 29.5,0 0,29.5 -29.5,0 0,-29.5 z m 30,0 29.5,0 0,29.5 -29.5,0 0,-29.5 z m 30,0 29.5,0 0,29.5 -29.5,0 0,-29.5 z m 30,0 29.5,0 0,29.5 -29.5,0 0,-29.5 z m 30,0 29.5,0 0,29.5 -29.5,0 0,-29.5 z m 30,0 29.5,0 0,29.5 -29.5,0 0,-29.5 z m 30,0 29.5,0 0,29.5 -29.5,0 0,-29.5 z m 30,0 29.5,0 0,29.5 -29.5,0 0,-29.5 z m 30,0 29.5,0 0,29.5 -29.5,0 0,-29.5 z m 30,0 29.5,0 0,29.5 -29.5,0 0,-29.5 z m 30,0 29.5,0 0,29.5 -29.5,0 0,-29.5 z m 30,0 29.5,0 0,29.5 -29.5,0 0,-29.5 z m 30,0 29.5,0 0,29.5 -29.5,0 0,-29.5 z m 30,0 29.5,0 0,29.5 -29.5,0 0,-29.5 z m 30,0 29.5,0 0,29.5 -29.5,0 0,-29.5 z m 30,0 29.5,0 0,29.5 -29.5,0 0,-29.5 z m 30,0 29.5,0 0,29.5 -29.5,0 0,-29.5 z m 30,0 29.5,0 0,29.5 -29.5,0 0,-29.5 z m 30,0 29.5,0 0,29.5 -29.5,0 0,-29.5 z m 30,0 29.5,0 0,29.5 -29.5,0 0,-29.5 z m 30,0 29.5,0 0,29.5 -29.5,0 0,-29.5 z m 30,0 29.5,0 0,29.5 -29.5,0 0,-29.5 z m 30,0 29.5,0 0,29.5 -29.5,0 0,-29.5 z m 30,0 29.5,0 0,29.5 -29.5,0 0,-29.5 z m 30,0 29.5,0 0,29.5 -29.5,0 0,-29.5 z m 30,0 29.5,0 0,29.5 -29.5,0 0,-29.5 z m 30,0 29.5,0 0,29.5 -29.5,0 0,-29.5 z m 30,0 29.5,0 0,29.5 -29.5,0 0,-29.5 z m 30,0 29.5,0 0,29.5 -29.5,0 0,-29.5 z m 30,0 29.5,0 0,29.5 -29.5,0 0,-29.5 z m -1110,30 29.5,0 0,29.5 -29.5,0 0,-29.5 z m 30,0 29.5,0 0,29.5 -29.5,0 0,-29.5 z m 30,0 29.5,0 0,29.5 -29.5,0 0,-29.5 z m 30,0 29.5,0 0,29.5 -29.5,0 0,-29.5 z m 30,0 29.5,0 0,29.5 -29.5,0 0,-29.5 z m 30,0 29.5,0 0,29.5 -29.5,0 0,-29.5 z m 30,0 29.5,0 0,29.5 -29.5,0 0,-29.5 z m 30,0 29.5,0 0,29.5 -29.5,0 0,-29.5 z m 30,0 29.5,0 0,29.5 -29.5,0 0,-29.5 z m 30,0 29.5,0 0,29.5 -29.5,0 0,-29.5 z m 30,0 29.5,0 0,29.5 -29.5,0 0,-29.5 z m 30,0 29.5,0 0,29.5 -29.5,0 0,-29.5 z m 30,0 29.5,0 0,29.5 -29.5,0 0,-29.5 z m 30,0 29.5,0 0,29.5 -29.5,0 0,-29.5 z m 30,0 29.5,0 0,29.5 -29.5,0 0,-29.5 z m 30,0 29.5,0 0,29.5 -29.5,0 0,-29.5 z m 30,0 29.5,0 0,29.5 -29.5,0 0,-29.5 z m 30,0 29.5,0 0,29.5 -29.5,0 0,-29.5 z m 30,0 29.5,0 0,29.5 -29.5,0 0,-29.5 z m 30,0 29.5,0 0,29.5 -29.5,0 0,-29.5 z m 30,0 29.5,0 0,29.5 -29.5,0 0,-29.5 z m 30,0 29.5,0 0,29.5 -29.5,0 0,-29.5 z m 30,0 29.5,0 0,29.5 -29.5,0 0,-29.5 z m 30,0 29.5,0 0,29.5 -29.5,0 0,-29.5 z m 30,0 29.5,0 0,29.5 -29.5,0 0,-29.5 z m 30,0 29.5,0 0,29.5 -29.5,0 0,-29.5 z m 30,0 29.5,0 0,29.5 -29.5,0 0,-29.5 z m 30,0 29.5,0 0,29.5 -29.5,0 0,-29.5 z m 30,0 29.5,0 0,29.5 -29.5,0 0,-29.5 z m 30,0 29.5,0 0,29.5 -29.5,0 0,-29.5 z m 30,0 29.5,0 0,29.5 -29.5,0 0,-29.5 z m 30,0 29.5,0 0,29.5 -29.5,0 0,-29.5 z m 30,0 29.5,0 0,29.5 -29.5,0 0,-29.5 z m 30,0 29.5,0 0,29.5 -29.5,0 0,-29.5 z m 30,0 29.5,0 0,29.5 -29.5,0 0,-29.5 z m 30,0 29.5,0 0,29.5 -29.5,0 0,-29.5 z m 30,0 29.5,0 0,29.5 -29.5,0 0,-29.5 z m 30,0 29.5,0 0,29.5 -29.5,0 0,-29.5 z m -1110,30 29.5,0 0,29.5 -29.5,0 0,-29.5 z m 30,0 29.5,0 0,29.5 -29.5,0 0,-29.5 z m 30,0 29.5,0 0,29.5 -29.5,0 0,-29.5 z m 30,0 29.5,0 0,29.5 -29.5,0 0,-29.5 z m 30,0 29.5,0 0,29.5 -29.5,0 0,-29.5 z m 30,0 29.5,0 0,29.5 -29.5,0 0,-29.5 z m 30,0 29.5,0 0,29.5 -29.5,0 0,-29.5 z m 30,0 29.5,0 0,29.5 -29.5,0 0,-29.5 z m 30,0 29.5,0 0,29.5 -29.5,0 0,-29.5 z m 30,0 29.5,0 0,29.5 -29.5,0 0,-29.5 z m 30,0 29.5,0 0,29.5 -29.5,0 0,-29.5 z m 30,0 29.5,0 0,29.5 -29.5,0 0,-29.5 z m 30,0 29.5,0 0,29.5 -29.5,0 0,-29.5 z m 30,0 29.5,0 0,29.5 -29.5,0 0,-29.5 z m 30,0 29.5,0 0,29.5 -29.5,0 0,-29.5 z m 30,0 29.5,0 0,29.5 -29.5,0 0,-29.5 z m 30,0 29.5,0 0,29.5 -29.5,0 0,-29.5 z m 30,0 29.5,0 0,29.5 -29.5,0 0,-29.5 z m 30,0 29.5,0 0,29.5 -29.5,0 0,-29.5 z m 30,0 29.5,0 0,29.5 -29.5,0 0,-29.5 z m 30,0 29.5,0 0,29.5 -29.5,0 0,-29.5 z m 30,0 29.5,0 0,29.5 -29.5,0 0,-29.5 z m 30,0 29.5,0 0,29.5 -29.5,0 0,-29.5 z m 30,0 29.5,0 0,29.5 -29.5,0 0,-29.5 z m 30,0 29.5,0 0,29.5 -29.5,0 0,-29.5 z m 30,0 29.5,0 0,29.5 -29.5,0 0,-29.5 z m 30,0 29.5,0 0,29.5 -29.5,0 0,-29.5 z m 30,0 29.5,0 0,29.5 -29.5,0 0,-29.5 z m 30,0 29.5,0 0,29.5 -29.5,0 0,-29.5 z m 30,0 29.5,0 0,29.5 -29.5,0 0,-29.5 z m 30,0 29.5,0 0,29.5 -29.5,0 0,-29.5 z m 30,0 29.5,0 0,29.5 -29.5,0 0,-29.5 z m 30,0 29.5,0 0,29.5 -29.5,0 0,-29.5 z m 30,0 29.5,0 0,29.5 -29.5,0 0,-29.5 z m 30,0 29.5,0 0,29.5 -29.5,0 0,-29.5 z m 30,0 29.5,0 0,29.5 -29.5,0 0,-29.5 z m 30,0 29.5,0 0,29.5 -29.5,0 0,-29.5 z m 30,0 29.5,0 0,29.5 -29.5,0 0,-29.5 z m -1110,30 29.5,0 0,29.5 -29.5,0 0,-29.5 z m 30,0 29.5,0 0,29.5 -29.5,0 0,-29.5 z m 30,0 29.5,0 0,29.5 -29.5,0 0,-29.5 z m 30,0 29.5,0 0,29.5 -29.5,0 0,-29.5 z m 30,0 29.5,0 0,29.5 -29.5,0 0,-29.5 z m 30,0 29.5,0 0,29.5 -29.5,0 0,-29.5 z m 30,0 29.5,0 0,29.5 -29.5,0 0,-29.5 z m 30,0 29.5,0 0,29.5 -29.5,0 0,-29.5 z m 30,0 29.5,0 0,29.5 -29.5,0 0,-29.5 z m 30,0 29.5,0 0,29.5 -29.5,0 0,-29.5 z m 30,0 29.5,0 0,29.5 -29.5,0 0,-29.5 z m 30,0 29.5,0 0,29.5 -29.5,0 0,-29.5 z m 30,0 29.5,0 0,29.5 -29.5,0 0,-29.5 z m 30,0 29.5,0 0,29.5 -29.5,0 0,-29.5 z m 30,0 29.5,0 0,29.5 -29.5,0 0,-29.5 z m 30,0 29.5,0 0,29.5 -29.5,0 0,-29.5 z m 30,0 29.5,0 0,29.5 -29.5,0 0,-29.5 z m 30,0 29.5,0 0,29.5 -29.5,0 0,-29.5 z m 30,0 29.5,0 0,29.5 -29.5,0 0,-29.5 z m 30,0 29.5,0 0,29.5 -29.5,0 0,-29.5 z m 30,0 29.5,0 0,29.5 -29.5,0 0,-29.5 z m 30,0 29.5,0 0,29.5 -29.5,0 0,-29.5 z m 30,0 29.5,0 0,29.5 -29.5,0 0,-29.5 z m 30,0 29.5,0 0,29.5 -29.5,0 0,-29.5 z m 30,0 29.5,0 0,29.5 -29.5,0 0,-29.5 z m 30,0 29.5,0 0,29.5 -29.5,0 0,-29.5 z m 30,0 29.5,0 0,29.5 -29.5,0 0,-29.5 z m 30,0 29.5,0 0,29.5 -29.5,0 0,-29.5 z m 30,0 29.5,0 0,29.5 -29.5,0 0,-29.5 z m 30,0 29.5,0 0,29.5 -29.5,0 0,-29.5 z m 30,0 29.5,0 0,29.5 -29.5,0 0,-29.5 z m 30,0 29.5,0 0,29.5 -29.5,0 0,-29.5 z m 30,0 29.5,0 0,29.5 -29.5,0 0,-29.5 z m 30,0 29.5,0 0,29.5 -29.5,0 0,-29.5 z m 30,0 29.5,0 0,29.5 -29.5,0 0,-29.5 z m 30,0 29.5,0 0,29.5 -29.5,0 0,-29.5 z m 30,0 29.5,0 0,29.5 -29.5,0 0,-29.5 z m 30,0 29.5,0 0,29.5 -29.5,0 0,-29.5 z m -1110,30 29.5,0 0,29.5 -29.5,0 0,-29.5 z m 30,0 29.5,0 0,29.5 -29.5,0 0,-29.5 z m 30,0 29.5,0 0,29.5 -29.5,0 0,-29.5 z m 30,0 29.5,0 0,29.5 -29.5,0 0,-29.5 z m 30,0 29.5,0 0,29.5 -29.5,0 0,-29.5 z m 30,0 29.5,0 0,29.5 -29.5,0 0,-29.5 z m 30,0 29.5,0 0,29.5 -29.5,0 0,-29.5 z m 30,0 29.5,0 0,29.5 -29.5,0 0,-29.5 z m 30,0 29.5,0 0,29.5 -29.5,0 0,-29.5 z m 30,0 29.5,0 0,29.5 -29.5,0 0,-29.5 z m 30,0 29.5,0 0,29.5 -29.5,0 0,-29.5 z m 30,0 29.5,0 0,29.5 -29.5,0 0,-29.5 z m 30,0 29.5,0 0,29.5 -29.5,0 0,-29.5 z m 30,0 29.5,0 0,29.5 -29.5,0 0,-29.5 z m 30,0 29.5,0 0,29.5 -29.5,0 0,-29.5 z m 30,0 29.5,0 0,29.5 -29.5,0 0,-29.5 z m 30,0 29.5,0 0,29.5 -29.5,0 0,-29.5 z m 30,0 29.5,0 0,29.5 -29.5,0 0,-29.5 z m 30,0 29.5,0 0,29.5 -29.5,0 0,-29.5 z m 30,0 29.5,0 0,29.5 -29.5,0 0,-29.5 z m 30,0 29.5,0 0,29.5 -29.5,0 0,-29.5 z m 30,0 29.5,0 0,29.5 -29.5,0 0,-29.5 z m 30,0 29.5,0 0,29.5 -29.5,0 0,-29.5 z m 30,0 29.5,0 0,29.5 -29.5,0 0,-29.5 z m 30,0 29.5,0 0,29.5 -29.5,0 0,-29.5 z m 30,0 29.5,0 0,29.5 -29.5,0 0,-29.5 z m 30,0 29.5,0 0,29.5 -29.5,0 0,-29.5 z m 30,0 29.5,0 0,29.5 -29.5,0 0,-29.5 z m 30,0 29.5,0 0,29.5 -29.5,0 0,-29.5 z m 30,0 29.5,0 0,29.5 -29.5,0 0,-29.5 z m 30,0 29.5,0 0,29.5 -29.5,0 0,-29.5 z m 30,0 29.5,0 0,29.5 -29.5,0 0,-29.5 z m 30,0 29.5,0 0,29.5 -29.5,0 0,-29.5 z m 30,0 29.5,0 0,29.5 -29.5,0 0,-29.5 z m 30,0 29.5,0 0,29.5 -29.5,0 0,-29.5 z m 30,0 29.5,0 0,29.5 -29.5,0 0,-29.5 z m 30,0 29.5,0 0,29.5 -29.5,0 0,-29.5 z m 30,0 29.5,0 0,29.5 -29.5,0 0,-29.5 z m -1110,30 29.5,0 0,29.5 -29.5,0 0,-29.5 z m 30,0 29.5,0 0,29.5 -29.5,0 0,-29.5 z m 30,0 29.5,0 0,29.5 -29.5,0 0,-29.5 z m 30,0 29.5,0 0,29.5 -29.5,0 0,-29.5 z m 30,0 29.5,0 0,29.5 -29.5,0 0,-29.5 z m 30,0 29.5,0 0,29.5 -29.5,0 0,-29.5 z m 30,0 29.5,0 0,29.5 -29.5,0 0,-29.5 z m 30,0 29.5,0 0,29.5 -29.5,0 0,-29.5 z m 30,0 29.5,0 0,29.5 -29.5,0 0,-29.5 z m 30,0 29.5,0 0,29.5 -29.5,0 0,-29.5 z m 30,0 29.5,0 0,29.5 -29.5,0 0,-29.5 z m 30,0 29.5,0 0,29.5 -29.5,0 0,-29.5 z m 30,0 29.5,0 0,29.5 -29.5,0 0,-29.5 z m 30,0 29.5,0 0,29.5 -29.5,0 0,-29.5 z m 30,0 29.5,0 0,29.5 -29.5,0 0,-29.5 z m 30,0 29.5,0 0,29.5 -29.5,0 0,-29.5 z m 30,0 29.5,0 0,29.5 -29.5,0 0,-29.5 z m 30,0 29.5,0 0,29.5 -29.5,0 0,-29.5 z m 30,0 29.5,0 0,29.5 -29.5,0 0,-29.5 z m 30,0 29.5,0 0,29.5 -29.5,0 0,-29.5 z m 30,0 29.5,0 0,29.5 -29.5,0 0,-29.5 z m 30,0 29.5,0 0,29.5 -29.5,0 0,-29.5 z m 30,0 29.5,0 0,29.5 -29.5,0 0,-29.5 z m 30,0 29.5,0 0,29.5 -29.5,0 0,-29.5 z m 30,0 29.5,0 0,29.5 -29.5,0 0,-29.5 z m 30,0 29.5,0 0,29.5 -29.5,0 0,-29.5 z m 30,0 29.5,0 0,29.5 -29.5,0 0,-29.5 z m 30,0 29.5,0 0,29.5 -29.5,0 0,-29.5 z m 30,0 29.5,0 0,29.5 -29.5,0 0,-29.5 z m 30,0 29.5,0 0,29.5 -29.5,0 0,-29.5 z m 30,0 29.5,0 0,29.5 -29.5,0 0,-29.5 z m 30,0 29.5,0 0,29.5 -29.5,0 0,-29.5 z m 30,0 29.5,0 0,29.5 -29.5,0 0,-29.5 z m 30,0 29.5,0 0,29.5 -29.5,0 0,-29.5 z m 30,0 29.5,0 0,29.5 -29.5,0 0,-29.5 z m 30,0 29.5,0 0,29.5 -29.5,0 0,-29.5 z m 30,0 29.5,0 0,29.5 -29.5,0 0,-29.5 z m 30,0 29.5,0 0,29.5 -29.5,0 0,-29.5 z m -1110,30 29.5,0 0,29.5 -29.5,0 0,-29.5 z m 30,0 29.5,0 0,29.5 -29.5,0 0,-29.5 z m 30,0 29.5,0 0,29.5 -29.5,0 0,-29.5 z m 30,0 29.5,0 0,29.5 -29.5,0 0,-29.5 z m 30,0 29.5,0 0,29.5 -29.5,0 0,-29.5 z m 30,0 29.5,0 0,29.5 -29.5,0 0,-29.5 z m 30,0 29.5,0 0,29.5 -29.5,0 0,-29.5 z m 30,0 29.5,0 0,29.5 -29.5,0 0,-29.5 z m 30,0 29.5,0 0,29.5 -29.5,0 0,-29.5 z m 30,0 29.5,0 0,29.5 -29.5,0 0,-29.5 z m 30,0 29.5,0 0,29.5 -29.5,0 0,-29.5 z m 30,0 29.5,0 0,29.5 -29.5,0 0,-29.5 z m 30,0 29.5,0 0,29.5 -29.5,0 0,-29.5 z m 30,0 29.5,0 0,29.5 -29.5,0 0,-29.5 z m 30,0 29.5,0 0,29.5 -29.5,0 0,-29.5 z m 30,0 29.5,0 0,29.5 -29.5,0 0,-29.5 z m 30,0 29.5,0 0,29.5 -29.5,0 0,-29.5 z m 30,0 29.5,0 0,29.5 -29.5,0 0,-29.5 z m 30,0 29.5,0 0,29.5 -29.5,0 0,-29.5 z m 30,0 29.5,0 0,29.5 -29.5,0 0,-29.5 z m 30,0 29.5,0 0,29.5 -29.5,0 0,-29.5 z m 30,0 29.5,0 0,29.5 -29.5,0 0,-29.5 z m 30,0 29.5,0 0,29.5 -29.5,0 0,-29.5 z m 30,0 29.5,0 0,29.5 -29.5,0 0,-29.5 z m 30,0 29.5,0 0,29.5 -29.5,0 0,-29.5 z m 30,0 29.5,0 0,29.5 -29.5,0 0,-29.5 z m 30,0 29.5,0 0,29.5 -29.5,0 0,-29.5 z m 30,0 29.5,0 0,29.5 -29.5,0 0,-29.5 z m 30,0 29.5,0 0,29.5 -29.5,0 0,-29.5 z m 30,0 29.5,0 0,29.5 -29.5,0 0,-29.5 z m 30,0 29.5,0 0,29.5 -29.5,0 0,-29.5 z m 30,0 29.5,0 0,29.5 -29.5,0 0,-29.5 z m 30,0 29.5,0 0,29.5 -29.5,0 0,-29.5 z m 30,0 29.5,0 0,29.5 -29.5,0 0,-29.5 z m 30,0 29.5,0 0,29.5 -29.5,0 0,-29.5 z m 30,0 29.5,0 0,29.5 -29.5,0 0,-29.5 z m 30,0 29.5,0 0,29.5 -29.5,0 0,-29.5 z m 30,0 29.5,0 0,29.5 -29.5,0 0,-29.5 z m -1110,30 29.5,0 0,29.5 -29.5,0 0,-29.5 z m 30,0 29.5,0 0,29.5 -29.5,0 0,-29.5 z m 30,0 29.5,0 0,29.5 -29.5,0 0,-29.5 z m 30,0 29.5,0 0,29.5 -29.5,0 0,-29.5 z m 30,0 29.5,0 0,29.5 -29.5,0 0,-29.5 z m 30,0 29.5,0 0,29.5 -29.5,0 0,-29.5 z m 30,0 29.5,0 0,29.5 -29.5,0 0,-29.5 z m 30,0 29.5,0 0,29.5 -29.5,0 0,-29.5 z m 30,0 29.5,0 0,29.5 -29.5,0 0,-29.5 z m 30,0 29.5,0 0,29.5 -29.5,0 0,-29.5 z m 30,0 29.5,0 0,29.5 -29.5,0 0,-29.5 z m 30,0 29.5,0 0,29.5 -29.5,0 0,-29.5 z m 30,0 29.5,0 0,29.5 -29.5,0 0,-29.5 z m 30,0 29.5,0 0,29.5 -29.5,0 0,-29.5 z m 30,0 29.5,0 0,29.5 -29.5,0 0,-29.5 z m 30,0 29.5,0 0,29.5 -29.5,0 0,-29.5 z m 30,0 29.5,0 0,29.5 -29.5,0 0,-29.5 z m 30,0 29.5,0 0,29.5 -29.5,0 0,-29.5 z m 30,0 29.5,0 0,29.5 -29.5,0 0,-29.5 z m 30,0 29.5,0 0,29.5 -29.5,0 0,-29.5 z m 30,0 29.5,0 0,29.5 -29.5,0 0,-29.5 z m 30,0 29.5,0 0,29.5 -29.5,0 0,-29.5 z m 30,0 29.5,0 0,29.5 -29.5,0 0,-29.5 z m 30,0 29.5,0 0,29.5 -29.5,0 0,-29.5 z m 30,0 29.5,0 0,29.5 -29.5,0 0,-29.5 z m 30,0 29.5,0 0,29.5 -29.5,0 0,-29.5 z m 30,0 29.5,0 0,29.5 -29.5,0 0,-29.5 z m 30,0 29.5,0 0,29.5 -29.5,0 0,-29.5 z m 30,0 29.5,0 0,29.5 -29.5,0 0,-29.5 z m 30,0 29.5,0 0,29.5 -29.5,0 0,-29.5 z m 30,0 29.5,0 0,29.5 -29.5,0 0,-29.5 z m 30,0 29.5,0 0,29.5 -29.5,0 0,-29.5 z m 30,0 29.5,0 0,29.5 -29.5,0 0,-29.5 z m 30,0 29.5,0 0,29.5 -29.5,0 0,-29.5 z m 30,0 29.5,0 0,29.5 -29.5,0 0,-29.5 z m 30,0 29.5,0 0,29.5 -29.5,0 0,-29.5 z m 30,0 29.5,0 0,29.5 -29.5,0 0,-29.5 z m 30,0 29.5,0 0,29.5 -29.5,0 0,-29.5 z m -1110,30 29.5,0 0,29.5 -29.5,0 0,-29.5 z m 30,0 29.5,0 0,29.5 -29.5,0 0,-29.5 z m 30,0 29.5,0 0,29.5 -29.5,0 0,-29.5 z m 30,0 29.5,0 0,29.5 -29.5,0 0,-29.5 z m 30,0 29.5,0 0,29.5 -29.5,0 0,-29.5 z m 30,0 29.5,0 0,29.5 -29.5,0 0,-29.5 z m 30,0 29.5,0 0,29.5 -29.5,0 0,-29.5 z m 30,0 29.5,0 0,29.5 -29.5,0 0,-29.5 z m 30,0 29.5,0 0,29.5 -29.5,0 0,-29.5 z m 30,0 29.5,0 0,29.5 -29.5,0 0,-29.5 z m 30,0 29.5,0 0,29.5 -29.5,0 0,-29.5 z m 30,0 29.5,0 0,29.5 -29.5,0 0,-29.5 z m 30,0 29.5,0 0,29.5 -29.5,0 0,-29.5 z m 30,0 29.5,0 0,29.5 -29.5,0 0,-29.5 z m 30,0 29.5,0 0,29.5 -29.5,0 0,-29.5 z m 30,0 29.5,0 0,29.5 -29.5,0 0,-29.5 z m 30,0 29.5,0 0,29.5 -29.5,0 0,-29.5 z m 30,0 29.5,0 0,29.5 -29.5,0 0,-29.5 z m 30,0 29.5,0 0,29.5 -29.5,0 0,-29.5 z m 30,0 29.5,0 0,29.5 -29.5,0 0,-29.5 z m 30,0 29.5,0 0,29.5 -29.5,0 0,-29.5 z m 30,0 29.5,0 0,29.5 -29.5,0 0,-29.5 z m 30,0 29.5,0 0,29.5 -29.5,0 0,-29.5 z m 30,0 29.5,0 0,29.5 -29.5,0 0,-29.5 z m 30,0 29.5,0 0,29.5 -29.5,0 0,-29.5 z m 30,0 29.5,0 0,29.5 -29.5,0 0,-29.5 z m 30,0 29.5,0 0,29.5 -29.5,0 0,-29.5 z m 30,0 29.5,0 0,29.5 -29.5,0 0,-29.5 z m 30,0 29.5,0 0,29.5 -29.5,0 0,-29.5 z m 30,0 29.5,0 0,29.5 -29.5,0 0,-29.5 z m 30,0 29.5,0 0,29.5 -29.5,0 0,-29.5 z m 30,0 29.5,0 0,29.5 -29.5,0 0,-29.5 z m 30,0 29.5,0 0,29.5 -29.5,0 0,-29.5 z m 30,0 29.5,0 0,29.5 -29.5,0 0,-29.5 z m 30,0 29.5,0 0,29.5 -29.5,0 0,-29.5 z m 30,0 29.5,0 0,29.5 -29.5,0 0,-29.5 z m 30,0 29.5,0 0,29.5 -29.5,0 0,-29.5 z m 30,0 29.5,0 0,29.5 -29.5,0 0,-29.5 z m -1110,30 29.5,0 0,29.5 -29.5,0 0,-29.5 z m 30,0 29.5,0 0,29.5 -29.5,0 0,-29.5 z m 30,0 29.5,0 0,29.5 -29.5,0 0,-29.5 z m 30,0 29.5,0 0,29.5 -29.5,0 0,-29.5 z m 30,0 29.5,0 0,29.5 -29.5,0 0,-29.5 z m 30,0 29.5,0 0,29.5 -29.5,0 0,-29.5 z m 30,0 29.5,0 0,29.5 -29.5,0 0,-29.5 z m 30,0 29.5,0 0,29.5 -29.5,0 0,-29.5 z m 30,0 29.5,0 0,29.5 -29.5,0 0,-29.5 z m 30,0 29.5,0 0,29.5 -29.5,0 0,-29.5 z m 30,0 29.5,0 0,29.5 -29.5,0 0,-29.5 z m 30,0 29.5,0 0,29.5 -29.5,0 0,-29.5 z m 30,0 29.5,0 0,29.5 -29.5,0 0,-29.5 z m 30,0 29.5,0 0,29.5 -29.5,0 0,-29.5 z m 30,0 29.5,0 0,29.5 -29.5,0 0,-29.5 z m 30,0 29.5,0 0,29.5 -29.5,0 0,-29.5 z m 30,0 29.5,0 0,29.5 -29.5,0 0,-29.5 z m 30,0 29.5,0 0,29.5 -29.5,0 0,-29.5 z m 30,0 29.5,0 0,29.5 -29.5,0 0,-29.5 z m 30,0 29.5,0 0,29.5 -29.5,0 0,-29.5 z m 30,0 29.5,0 0,29.5 -29.5,0 0,-29.5 z m 30,0 29.5,0 0,29.5 -29.5,0 0,-29.5 z m 30,0 29.5,0 0,29.5 -29.5,0 0,-29.5 z m 30,0 29.5,0 0,29.5 -29.5,0 0,-29.5 z m 30,0 29.5,0 0,29.5 -29.5,0 0,-29.5 z m 30,0 29.5,0 0,29.5 -29.5,0 0,-29.5 z m 30,0 29.5,0 0,29.5 -29.5,0 0,-29.5 z m 30,0 29.5,0 0,29.5 -29.5,0 0,-29.5 z m 30,0 29.5,0 0,29.5 -29.5,0 0,-29.5 z m 30,0 29.5,0 0,29.5 -29.5,0 0,-29.5 z m 30,0 29.5,0 0,29.5 -29.5,0 0,-29.5 z m 30,0 29.5,0 0,29.5 -29.5,0 0,-29.5 z m 30,0 29.5,0 0,29.5 -29.5,0 0,-29.5 z m 30,0 29.5,0 0,29.5 -29.5,0 0,-29.5 z m 30,0 29.5,0 0,29.5 -29.5,0 0,-29.5 z m 30,0 29.5,0 0,29.5 -29.5,0 0,-29.5 z m 30,0 29.5,0 0,29.5 -29.5,0 0,-29.5 z m 30,0 29.5,0 0,29.5 -29.5,0 0,-29.5 z m -1110,30 29.5,0 0,29.5 -29.5,0 0,-29.5 z m 30,0 29.5,0 0,29.5 -29.5,0 0,-29.5 z m 30,0 29.5,0 0,29.5 -29.5,0 0,-29.5 z m 30,0 29.5,0 0,29.5 -29.5,0 0,-29.5 z m 30,0 29.5,0 0,29.5 -29.5,0 0,-29.5 z m 30,0 29.5,0 0,29.5 -29.5,0 0,-29.5 z m 30,0 29.5,0 0,29.5 -29.5,0 0,-29.5 z m 30,0 29.5,0 0,29.5 -29.5,0 0,-29.5 z m 30,0 29.5,0 0,29.5 -29.5,0 0,-29.5 z m 30,0 29.5,0 0,29.5 -29.5,0 0,-29.5 z m 30,0 29.5,0 0,29.5 -29.5,0 0,-29.5 z m 30,0 29.5,0 0,29.5 -29.5,0 0,-29.5 z m 30,0 29.5,0 0,29.5 -29.5,0 0,-29.5 z m 30,0 29.5,0 0,29.5 -29.5,0 0,-29.5 z m 30,0 29.5,0 0,29.5 -29.5,0 0,-29.5 z m 30,0 29.5,0 0,29.5 -29.5,0 0,-29.5 z m 30,0 29.5,0 0,29.5 -29.5,0 0,-29.5 z m 30,0 29.5,0 0,29.5 -29.5,0 0,-29.5 z m 30,0 29.5,0 0,29.5 -29.5,0 0,-29.5 z m 30,0 29.5,0 0,29.5 -29.5,0 0,-29.5 z m 30,0 29.5,0 0,29.5 -29.5,0 0,-29.5 z m 30,0 29.5,0 0,29.5 -29.5,0 0,-29.5 z m 30,0 29.5,0 0,29.5 -29.5,0 0,-29.5 z m 30,0 29.5,0 0,29.5 -29.5,0 0,-29.5 z m 30,0 29.5,0 0,29.5 -29.5,0 0,-29.5 z m 30,0 29.5,0 0,29.5 -29.5,0 0,-29.5 z m 30,0 29.5,0 0,29.5 -29.5,0 0,-29.5 z m 30,0 29.5,0 0,29.5 -29.5,0 0,-29.5 z m 30,0 29.5,0 0,29.5 -29.5,0 0,-29.5 z m 30,0 29.5,0 0,29.5 -29.5,0 0,-29.5 z m 30,0 29.5,0 0,29.5 -29.5,0 0,-29.5 z m 30,0 29.5,0 0,29.5 -29.5,0 0,-29.5 z m 30,0 29.5,0 0,29.5 -29.5,0 0,-29.5 z m 30,0 29.5,0 0,29.5 -29.5,0 0,-29.5 z m 30,0 29.5,0 0,29.5 -29.5,0 0,-29.5 z m 30,0 29.5,0 0,29.5 -29.5,0 0,-29.5 z m 30,0 29.5,0 0,29.5 -29.5,0 0,-29.5 z m 30,0 29.5,0 0,29.5 -29.5,0 0,-29.5 z m -1110,30 29.5,0 0,29.5 -29.5,0 0,-29.5 z m 30,0 29.5,0 0,29.5 -29.5,0 0,-29.5 z m 30,0 29.5,0 0,29.5 -29.5,0 0,-29.5 z m 30,0 29.5,0 0,29.5 -29.5,0 0,-29.5 z m 30,0 29.5,0 0,29.5 -29.5,0 0,-29.5 z m 30,0 29.5,0 0,29.5 -29.5,0 0,-29.5 z m 30,0 29.5,0 0,29.5 -29.5,0 0,-29.5 z m 30,0 29.5,0 0,29.5 -29.5,0 0,-29.5 z m 30,0 29.5,0 0,29.5 -29.5,0 0,-29.5 z m 30,0 29.5,0 0,29.5 -29.5,0 0,-29.5 z m 30,0 29.5,0 0,29.5 -29.5,0 0,-29.5 z m 30,0 29.5,0 0,29.5 -29.5,0 0,-29.5 z m 30,0 29.5,0 0,29.5 -29.5,0 0,-29.5 z m 30,0 29.5,0 0,29.5 -29.5,0 0,-29.5 z m 30,0 29.5,0 0,29.5 -29.5,0 0,-29.5 z m 30,0 29.5,0 0,29.5 -29.5,0 0,-29.5 z m 30,0 29.5,0 0,29.5 -29.5,0 0,-29.5 z m 30,0 29.5,0 0,29.5 -29.5,0 0,-29.5 z m 30,0 29.5,0 0,29.5 -29.5,0 0,-29.5 z m 30,0 29.5,0 0,29.5 -29.5,0 0,-29.5 z m 30,0 29.5,0 0,29.5 -29.5,0 0,-29.5 z m 30,0 29.5,0 0,29.5 -29.5,0 0,-29.5 z m 30,0 29.5,0 0,29.5 -29.5,0 0,-29.5 z m 30,0 29.5,0 0,29.5 -29.5,0 0,-29.5 z m 30,0 29.5,0 0,29.5 -29.5,0 0,-29.5 z m 30,0 29.5,0 0,29.5 -29.5,0 0,-29.5 z m 30,0 29.5,0 0,29.5 -29.5,0 0,-29.5 z m 30,0 29.5,0 0,29.5 -29.5,0 0,-29.5 z m 30,0 29.5,0 0,29.5 -29.5,0 0,-29.5 z m 30,0 29.5,0 0,29.5 -29.5,0 0,-29.5 z m 30,0 29.5,0 0,29.5 -29.5,0 0,-29.5 z m 30,0 29.5,0 0,29.5 -29.5,0 0,-29.5 z m 30,0 29.5,0 0,29.5 -29.5,0 0,-29.5 z m 30,0 29.5,0 0,29.5 -29.5,0 0,-29.5 z m 30,0 29.5,0 0,29.5 -29.5,0 0,-29.5 z m 30,0 29.5,0 0,29.5 -29.5,0 0,-29.5 z m 30,0 29.5,0 0,29.5 -29.5,0 0,-29.5 z m 30,0 29.5,0 0,29.5 -29.5,0 0,-29.5 z m -1110,30 29.5,0 0,29.5 -29.5,0 0,-29.5 z m 30,0 29.5,0 0,29.5 -29.5,0 0,-29.5 z m 30,0 29.5,0 0,29.5 -29.5,0 0,-29.5 z m 30,0 29.5,0 0,29.5 -29.5,0 0,-29.5 z m 30,0 29.5,0 0,29.5 -29.5,0 0,-29.5 z m 30,0 29.5,0 0,29.5 -29.5,0 0,-29.5 z m 30,0 29.5,0 0,29.5 -29.5,0 0,-29.5 z m 30,0 29.5,0 0,29.5 -29.5,0 0,-29.5 z m 30,0 29.5,0 0,29.5 -29.5,0 0,-29.5 z m 30,0 29.5,0 0,29.5 -29.5,0 0,-29.5 z m 30,0 29.5,0 0,29.5 -29.5,0 0,-29.5 z m 30,0 29.5,0 0,29.5 -29.5,0 0,-29.5 z m 30,0 29.5,0 0,29.5 -29.5,0 0,-29.5 z m 30,0 29.5,0 0,29.5 -29.5,0 0,-29.5 z m 30,0 29.5,0 0,29.5 -29.5,0 0,-29.5 z m 30,0 29.5,0 0,29.5 -29.5,0 0,-29.5 z m 30,0 29.5,0 0,29.5 -29.5,0 0,-29.5 z m 30,0 29.5,0 0,29.5 -29.5,0 0,-29.5 z m 30,0 29.5,0 0,29.5 -29.5,0 0,-29.5 z m 30,0 29.5,0 0,29.5 -29.5,0 0,-29.5 z m 30,0 29.5,0 0,29.5 -29.5,0 0,-29.5 z m 30,0 29.5,0 0,29.5 -29.5,0 0,-29.5 z m 30,0 29.5,0 0,29.5 -29.5,0 0,-29.5 z m 30,0 29.5,0 0,29.5 -29.5,0 0,-29.5 z m 30,0 29.5,0 0,29.5 -29.5,0 0,-29.5 z m 30,0 29.5,0 0,29.5 -29.5,0 0,-29.5 z m 30,0 29.5,0 0,29.5 -29.5,0 0,-29.5 z m 30,0 29.5,0 0,29.5 -29.5,0 0,-29.5 z m 30,0 29.5,0 0,29.5 -29.5,0 0,-29.5 z m 30,0 29.5,0 0,29.5 -29.5,0 0,-29.5 z m 30,0 29.5,0 0,29.5 -29.5,0 0,-29.5 z m 30,0 29.5,0 0,29.5 -29.5,0 0,-29.5 z m 30,0 29.5,0 0,29.5 -29.5,0 0,-29.5 z m 30,0 29.5,0 0,29.5 -29.5,0 0,-29.5 z m 30,0 29.5,0 0,29.5 -29.5,0 0,-29.5 z m 30,0 29.5,0 0,29.5 -29.5,0 0,-29.5 z m 30,0 29.5,0 0,29.5 -29.5,0 0,-29.5 z m 30,0 29.5,0 0,29.5 -29.5,0 0,-29.5 z"
       id="path2994"
       style="font-size:medium;font-style:normal;font-variant:normal;font-weight:normal;font-stretch:normal;text-indent:0;text-align:start;text-decoration:none;line-height:normal;letter-spacing:normal;word-spacing:normal;text-transform:none;direction:ltr;block-progression:tb;writing-mode:lr-tb;text-anchor:start;baseline-shift:baseline;color:#000000;fill:#a5ff9f;fill-opacity:1;stroke:none;stroke-width:0.5;marker:none;visibility:visible;display:inline;overflow:visible;enable-background:accumulate;font-family:Sans;-inkscape-font-specification:Sans" />
    <path
       d="m -86.669082,74.798099 c -86.195328,0 -83.188468,60.323891 -83.188468,81.745921 l 0,518.22446 c 0,24.34014 -1.50357,81.74592 83.188468,81.74592 341.771142,0 683.542282,0 1025.313422,0 86.22566,0 83.18846,-61.67639 83.18846,-81.74592 l 0,-518.22446 c 0,-22.97412 3.0372,-81.745921 -83.18846,-81.745921 -341.77114,0 -683.54228,0 -1025.313422,0 z"
       id="path4194"
       style="color:#000000;fill:url(#radialGradient4202);fill-opacity:1;fill-rule:nonzero;stroke:#07316d;stroke-width:8.28369999;stroke-linecap:butt;stroke-linejoin:miter;stroke-miterlimit:4;stroke-opacity:1;stroke-dashoffset:0;marker:none;visibility:visible;display:inline;overflow:visible;enable-background:accumulate" />
    <path
       d="M -162.6528,424.8333 C -51.169518,565.61711 18.251672,194.758 120.37168,227.0441 c 36.83027,11.64419 56.90557,263.90196 114.98009,268.18489 25.77483,1.90086 72.47486,-108.08704 108.4098,-100.2159 94.26003,20.6466 114.8074,298.63044 211.89187,294.66986 66.75835,-2.31929 6.44291,-263.98318 119.9078,-255.50201 67.5356,4.2138 108.98254,-316.70952 172.47016,-319.37752 72.4021,-2.21291 69.4405,552.71348 96.9118,551.51044 17.8548,-0.78191 9.7733,-201.4797 72.2731,-236.80674"
       id="path3858"
       style="fill:none;stroke:#6bd66b;stroke-width:10;stroke-linecap:round;stroke-miterlimit:4;stroke-opacity:1;stroke-dasharray:none;display:inline" />
    <path
       d="m -86.669082,74.798099 c -86.195328,0 -83.188468,60.323891 -83.188468,81.745921 l 0,518.22446 c 0,24.34014 -1.50357,81.74592 83.188468,81.74592 341.771142,0 683.542282,0 1025.313422,0 86.22566,0 83.18846,-61.67639 83.18846,-81.74592 l 0,-518.22446 c 0,-22.97412 3.0372,-81.745921 -83.18846,-81.745921 -341.77114,0 -683.54228,0 -1025.313422,0 z"
       id="path3774"
       style="color:#000000;fill:none;stroke:#005001;stroke-width:10;stroke-linecap:butt;stroke-linejoin:miter;stroke-miterlimit:4;stroke-opacity:1;stroke-dasharray:none;stroke-dashoffset:0;marker:none;visibility:visible;display:inline;overflow:visible;filter:url(#filter3916);enable-background:accumulate" />
    <path
       d="m -86.669082,74.798099 c -86.195328,0 -83.188468,60.323891 -83.188468,81.745921 l 0,518.22446 c 0,24.34014 -1.50357,81.74592 83.188468,81.74592 341.771142,0 683.542282,0 1025.313422,0 86.22566,0 83.18846,-61.67639 83.18846,-81.74592 l 0,-518.22446 c 0,-22.97412 3.0372,-81.745921 -83.18846,-81.745921 -341.77114,0 -683.54228,0 -1025.313422,0 z"
       transform="matrix(1.0166145,0,0,1.0403306,-7.0775841,-16.763628)"
       id="path4127"
       style="color:#000000;fill:none;stroke:url(#linearGradient4143);stroke-width:38.89521408;stroke-miterlimit:4;stroke-dasharray:none;marker:none;visibility:visible;display:inline;overflow:visible;filter:url(#filter4190);enable-background:accumulate" />
  </g>
  <g
     transform="translate(487.24592,90.195112)"
     id="layer2"
     style="display:inline" />
  <path
     d="m 1312.4155,274.60403 a 73.094482,73.094482 0 1 1 -146.1889,0 73.094482,73.094482 0 1 1 146.1889,0 z"
     transform="translate(407.24592,50.195112)"
     id="path3922"
     style="color:#000000;fill:url(#linearGradient3932);fill-opacity:1;fill-rule:evenodd;stroke:#6fdf6f;stroke-width:0;stroke-linecap:round;stroke-linejoin:miter;stroke-miterlimit:4;stroke-opacity:0.73799127;stroke-dasharray:none;stroke-dashoffset:0;marker:none;visibility:visible;display:inline;overflow:visible;enable-background:accumulate" />
  <path
     d="m 1312.4155,274.60403 a 73.094482,73.094482 0 1 1 -146.1889,0 73.094482,73.094482 0 1 1 146.1889,0 z"
     transform="matrix(0.90465976,0,0,0.90465976,525.40309,76.375927)"
     id="path3938"
     style="color:#000000;fill:url(#linearGradient3942);fill-opacity:1;fill-rule:evenodd;stroke:#6fdf6f;stroke-width:0;stroke-linecap:round;stroke-linejoin:miter;stroke-miterlimit:4;stroke-opacity:0.73799127;stroke-dasharray:none;stroke-dashoffset:0;marker:none;visibility:visible;display:inline;overflow:visible;enable-background:accumulate" />
  <path
     d="m 1312.4155,274.60403 a 73.094482,73.094482 0 1 1 -146.1889,0 73.094482,73.094482 0 1 1 146.1889,0 z"
     transform="matrix(-0.76959442,0,0,-0.76959442,2600.3415,536.13288)"
     id="path3944"
     style="color:#000000;fill:url(#linearGradient3946);fill-opacity:1;fill-rule:evenodd;stroke:#6fdf6f;stroke-width:0;stroke-linecap:round;stroke-linejoin:miter;stroke-miterlimit:4;stroke-opacity:0.73799127;stroke-dasharray:none;stroke-dashoffset:0;marker:none;visibility:visible;display:inline;overflow:visible;enable-background:accumulate" />
  <path
     d="m 1312.4155,274.60403 a 73.094482,73.094482 0 1 1 -146.1889,0 73.094482,73.094482 0 1 1 146.1889,0 z"
     transform="matrix(0.65041912,0,0,-0.65041912,840.48881,503.40686)"
     id="path3948"
     style="color:#000000;fill:url(#linearGradient3950);fill-opacity:1;fill-rule:evenodd;stroke:#6fdf6f;stroke-width:0;stroke-linecap:round;stroke-linejoin:miter;stroke-miterlimit:4;stroke-opacity:0.73799127;stroke-dasharray:none;stroke-dashoffset:0;marker:none;visibility:visible;display:inline;overflow:visible;enable-background:accumulate" />
  <path
     d="m 1312.4155,274.60403 a 73.094482,73.094482 0 1 1 -146.1889,0 73.094482,73.094482 0 1 1 146.1889,0 z"
     transform="matrix(-0.5630239,0,0,0.5630239,2344.3343,170.19051)"
     id="path3952"
     style="color:#000000;fill:#ff0000;fill-opacity:1;fill-rule:evenodd;stroke:#6fdf6f;stroke-width:0;stroke-linecap:round;stroke-linejoin:miter;stroke-miterlimit:4;stroke-opacity:0.73799127;stroke-dasharray:none;stroke-dashoffset:0;marker:none;visibility:visible;display:inline;overflow:visible;enable-background:accumulate" />
  <path
     d="m 1312.4155,274.60403 a 73.094482,73.094482 0 1 1 -146.1889,0 73.094482,73.094482 0 1 1 146.1889,0 z"
     transform="matrix(-0.5630239,0,0,0.5630239,2344.3343,170.19051)"
     id="path3970"
     style="color:#000000;fill:url(#radialGradient3972);fill-opacity:1;fill-rule:evenodd;stroke:#6fdf6f;stroke-width:0;stroke-linecap:round;stroke-linejoin:miter;stroke-miterlimit:4;stroke-opacity:0.73799127;stroke-dasharray:none;stroke-dashoffset:0;marker:none;visibility:visible;display:inline;overflow:visible;enable-background:accumulate" />
  <path
     d="m 1312.4155,274.60403 a 73.094482,73.094482 0 1 1 -146.1889,0 73.094482,73.094482 0 1 1 146.1889,0 z"
     transform="translate(407.24592,230.19511)"
     id="path3974"
     style="color:#000000;fill:url(#linearGradient3986);fill-opacity:1;fill-rule:evenodd;stroke:#6fdf6f;stroke-width:0;stroke-linecap:round;stroke-linejoin:miter;stroke-miterlimit:4;stroke-opacity:0.73799127;stroke-dasharray:none;stroke-dashoffset:0;marker:none;visibility:visible;display:inline;overflow:visible;enable-background:accumulate" />
  <path
     d="m 1312.4155,274.60403 a 73.094482,73.094482 0 1 1 -146.1889,0 73.094482,73.094482 0 1 1 146.1889,0 z"
     transform="matrix(0.90465976,0,0,0.90465976,525.40309,256.37592)"
     id="path3976"
     style="color:#000000;fill:url(#linearGradient3988);fill-opacity:1;fill-rule:evenodd;stroke:#6fdf6f;stroke-width:0;stroke-linecap:round;stroke-linejoin:miter;stroke-miterlimit:4;stroke-opacity:0.73799127;stroke-dasharray:none;stroke-dashoffset:0;marker:none;visibility:visible;display:inline;overflow:visible;enable-background:accumulate" />
  <path
     d="m 1312.4155,274.60403 a 73.094482,73.094482 0 1 1 -146.1889,0 73.094482,73.094482 0 1 1 146.1889,0 z"
     transform="matrix(-0.76959442,0,0,-0.76959442,2600.3415,716.13288)"
     id="path3978"
     style="color:#000000;fill:url(#linearGradient3990);fill-opacity:1;fill-rule:evenodd;stroke:#6fdf6f;stroke-width:0;stroke-linecap:round;stroke-linejoin:miter;stroke-miterlimit:4;stroke-opacity:0.73799127;stroke-dasharray:none;stroke-dashoffset:0;marker:none;visibility:visible;display:inline;overflow:visible;enable-background:accumulate" />
  <path
     d="m 1312.4155,274.60403 a 73.094482,73.094482 0 1 1 -146.1889,0 73.094482,73.094482 0 1 1 146.1889,0 z"
     transform="matrix(0.65041912,0,0,-0.65041912,840.48881,683.40686)"
     id="path3980"
     style="color:#000000;fill:url(#linearGradient3992);fill-opacity:1;fill-rule:evenodd;stroke:#6fdf6f;stroke-width:0;stroke-linecap:round;stroke-linejoin:miter;stroke-miterlimit:4;stroke-opacity:0.73799127;stroke-dasharray:none;stroke-dashoffset:0;marker:none;visibility:visible;display:inline;overflow:visible;enable-background:accumulate" />
  <path
     d="m 1312.4155,274.60403 a 73.094482,73.094482 0 1 1 -146.1889,0 73.094482,73.094482 0 1 1 146.1889,0 z"
     transform="matrix(-0.5630239,0,0,0.5630239,2344.3343,350.19051)"
     id="path3982"
     style="color:#000000;fill:#333333;fill-opacity:1;fill-rule:evenodd;stroke:#6fdf6f;stroke-width:0;stroke-linecap:round;stroke-linejoin:miter;stroke-miterlimit:4;stroke-opacity:0.73799127;stroke-dasharray:none;stroke-dashoffset:0;marker:none;visibility:visible;display:inline;overflow:visible;enable-background:accumulate" />
  <path
     d="m 1312.4155,274.60403 a 73.094482,73.094482 0 1 1 -146.1889,0 73.094482,73.094482 0 1 1 146.1889,0 z"
     transform="matrix(-0.5630239,0,0,0.5630239,2344.3343,350.19051)"
     id="path3984"
     style="color:#000000;fill:url(#radialGradient3994);fill-opacity:1;fill-rule:evenodd;stroke:#6fdf6f;stroke-width:0;stroke-linecap:round;stroke-linejoin:miter;stroke-miterlimit:4;stroke-opacity:0.73799127;stroke-dasharray:none;stroke-dashoffset:0;marker:none;visibility:visible;display:inline;overflow:visible;enable-background:accumulate" />
  <path
     d="m 1312.4155,274.60403 a 73.094482,73.094482 0 1 1 -146.1889,0 73.094482,73.094482 0 1 1 146.1889,0 z"
     transform="translate(407.24592,410.19511)"
     id="path3996"
     style="color:#000000;fill:url(#linearGradient4008);fill-opacity:1;fill-rule:evenodd;stroke:#6fdf6f;stroke-width:0;stroke-linecap:round;stroke-linejoin:miter;stroke-miterlimit:4;stroke-opacity:0.73799127;stroke-dasharray:none;stroke-dashoffset:0;marker:none;visibility:visible;display:inline;overflow:visible;enable-background:accumulate" />
  <path
     d="m 1312.4155,274.60403 a 73.094482,73.094482 0 1 1 -146.1889,0 73.094482,73.094482 0 1 1 146.1889,0 z"
     transform="matrix(0.90465976,0,0,0.90465976,525.40309,436.37592)"
     id="path3998"
     style="color:#000000;fill:url(#linearGradient4010);fill-opacity:1;fill-rule:evenodd;stroke:#6fdf6f;stroke-width:0;stroke-linecap:round;stroke-linejoin:miter;stroke-miterlimit:4;stroke-opacity:0.73799127;stroke-dasharray:none;stroke-dashoffset:0;marker:none;visibility:visible;display:inline;overflow:visible;enable-background:accumulate" />
  <path
     d="m 1312.4155,274.60403 a 73.094482,73.094482 0 1 1 -146.1889,0 73.094482,73.094482 0 1 1 146.1889,0 z"
     transform="matrix(-0.76959442,0,0,-0.76959442,2600.3415,896.13288)"
     id="path4000"
     style="color:#000000;fill:url(#linearGradient4012);fill-opacity:1;fill-rule:evenodd;stroke:#6fdf6f;stroke-width:0;stroke-linecap:round;stroke-linejoin:miter;stroke-miterlimit:4;stroke-opacity:0.73799127;stroke-dasharray:none;stroke-dashoffset:0;marker:none;visibility:visible;display:inline;overflow:visible;enable-background:accumulate" />
  <path
     d="m 1312.4155,274.60403 a 73.094482,73.094482 0 1 1 -146.1889,0 73.094482,73.094482 0 1 1 146.1889,0 z"
     transform="matrix(0.65041912,0,0,-0.65041912,840.48881,863.40686)"
     id="path4002"
     style="color:#000000;fill:url(#linearGradient4014);fill-opacity:1;fill-rule:evenodd;stroke:#6fdf6f;stroke-width:0;stroke-linecap:round;stroke-linejoin:miter;stroke-miterlimit:4;stroke-opacity:0.73799127;stroke-dasharray:none;stroke-dashoffset:0;marker:none;visibility:visible;display:inline;overflow:visible;enable-background:accumulate" />
  <path
     d="m 1312.4155,274.60403 a 73.094482,73.094482 0 1 1 -146.1889,0 73.094482,73.094482 0 1 1 146.1889,0 z"
     transform="matrix(-0.5630239,0,0,0.5630239,2344.3343,530.19051)"
     id="path4004"
     style="color:#000000;fill:#00d800;fill-opacity:1;fill-rule:evenodd;stroke:#6fdf6f;stroke-width:0;stroke-linecap:round;stroke-linejoin:miter;stroke-miterlimit:4;stroke-opacity:0.73799127;stroke-dasharray:none;stroke-dashoffset:0;marker:none;visibility:visible;display:inline;overflow:visible;enable-background:accumulate" />
  <path
     d="m 1312.4155,274.60403 a 73.094482,73.094482 0 1 1 -146.1889,0 73.094482,73.094482 0 1 1 146.1889,0 z"
     transform="matrix(-0.5630239,0,0,0.5630239,2344.3343,530.19051)"
     id="path4006"
     style="color:#000000;fill:url(#radialGradient4016);fill-opacity:1;fill-rule:evenodd;stroke:#6fdf6f;stroke-width:0;stroke-linecap:round;stroke-linejoin:miter;stroke-miterlimit:4;stroke-opacity:0.73799127;stroke-dasharray:none;stroke-dashoffset:0;marker:none;visibility:visible;display:inline;overflow:visible;enable-background:accumulate" />
  <path
     d="m 1312.4155,274.60403 a 73.094482,73.094482 0 1 1 -146.1889,0 73.094482,73.094482 0 1 1 146.1889,0 z"
     transform="translate(-1056.7541,50.195112)"
     id="path4018"
     style="color:#000000;fill:url(#linearGradient4054);fill-opacity:1;fill-rule:evenodd;stroke:#6fdf6f;stroke-width:0;stroke-linecap:round;stroke-linejoin:miter;stroke-miterlimit:4;stroke-opacity:0.73799127;stroke-dasharray:none;stroke-dashoffset:0;marker:none;visibility:visible;display:inline;overflow:visible;enable-background:accumulate" />
  <path
     d="m 1312.4155,274.60403 a 73.094482,73.094482 0 1 1 -146.1889,0 73.094482,73.094482 0 1 1 146.1889,0 z"
     transform="matrix(0.90465976,0,0,0.90465976,-938.59688,76.375927)"
     id="path4020"
     style="color:#000000;fill:url(#linearGradient4056);fill-opacity:1;fill-rule:evenodd;stroke:#6fdf6f;stroke-width:0;stroke-linecap:round;stroke-linejoin:miter;stroke-miterlimit:4;stroke-opacity:0.73799127;stroke-dasharray:none;stroke-dashoffset:0;marker:none;visibility:visible;display:inline;overflow:visible;enable-background:accumulate" />
  <path
     d="m 1312.4155,274.60403 a 73.094482,73.094482 0 1 1 -146.1889,0 73.094482,73.094482 0 1 1 146.1889,0 z"
     transform="matrix(-0.76959442,0,0,-0.76959442,1136.3415,536.13288)"
     id="path4022"
     style="color:#000000;fill:url(#linearGradient4058);fill-opacity:1;fill-rule:evenodd;stroke:#6fdf6f;stroke-width:0;stroke-linecap:round;stroke-linejoin:miter;stroke-miterlimit:4;stroke-opacity:0.73799127;stroke-dasharray:none;stroke-dashoffset:0;marker:none;visibility:visible;display:inline;overflow:visible;enable-background:accumulate" />
  <path
     d="m 1312.4155,274.60403 a 73.094482,73.094482 0 1 1 -146.1889,0 73.094482,73.094482 0 1 1 146.1889,0 z"
     transform="matrix(0.65041912,0,0,-0.65041912,-623.51118,503.40686)"
     id="path4024"
     style="color:#000000;fill:url(#linearGradient4060);fill-opacity:1;fill-rule:evenodd;stroke:#6fdf6f;stroke-width:0;stroke-linecap:round;stroke-linejoin:miter;stroke-miterlimit:4;stroke-opacity:0.73799127;stroke-dasharray:none;stroke-dashoffset:0;marker:none;visibility:visible;display:inline;overflow:visible;enable-background:accumulate" />
  <path
     d="m 1312.4155,274.60403 a 73.094482,73.094482 0 1 1 -146.1889,0 73.094482,73.094482 0 1 1 146.1889,0 z"
     transform="matrix(-0.5630239,0,0,0.5630239,880.33432,170.19051)"
     id="path4026"
     style="color:#000000;fill:#ffff00;fill-opacity:1;fill-rule:evenodd;stroke:#6fdf6f;stroke-width:0;stroke-linecap:round;stroke-linejoin:miter;stroke-miterlimit:4;stroke-opacity:0.73799127;stroke-dasharray:none;stroke-dashoffset:0;marker:none;visibility:visible;display:inline;overflow:visible;enable-background:accumulate" />
  <path
     d="m 1312.4155,274.60403 a 73.094482,73.094482 0 1 1 -146.1889,0 73.094482,73.094482 0 1 1 146.1889,0 z"
     transform="matrix(-0.5630239,0,0,0.5630239,880.33432,170.19051)"
     id="path4028"
     style="color:#000000;fill:url(#radialGradient4062);fill-opacity:1;fill-rule:evenodd;stroke:#6fdf6f;stroke-width:0;stroke-linecap:round;stroke-linejoin:miter;stroke-miterlimit:4;stroke-opacity:0.73799127;stroke-dasharray:none;stroke-dashoffset:0;marker:none;visibility:visible;display:inline;overflow:visible;enable-background:accumulate" />
  <path
     d="m 1312.4155,274.60403 a 73.094482,73.094482 0 1 1 -146.1889,0 73.094482,73.094482 0 1 1 146.1889,0 z"
     transform="translate(-1056.7541,230.19511)"
     id="path4030"
     style="color:#000000;fill:url(#linearGradient4064);fill-opacity:1;fill-rule:evenodd;stroke:#6fdf6f;stroke-width:0;stroke-linecap:round;stroke-linejoin:miter;stroke-miterlimit:4;stroke-opacity:0.73799127;stroke-dasharray:none;stroke-dashoffset:0;marker:none;visibility:visible;display:inline;overflow:visible;enable-background:accumulate" />
  <path
     d="m 1312.4155,274.60403 a 73.094482,73.094482 0 1 1 -146.1889,0 73.094482,73.094482 0 1 1 146.1889,0 z"
     transform="matrix(0.90465976,0,0,0.90465976,-938.59688,256.37592)"
     id="path4032"
     style="color:#000000;fill:url(#linearGradient4066);fill-opacity:1;fill-rule:evenodd;stroke:#6fdf6f;stroke-width:0;stroke-linecap:round;stroke-linejoin:miter;stroke-miterlimit:4;stroke-opacity:0.73799127;stroke-dasharray:none;stroke-dashoffset:0;marker:none;visibility:visible;display:inline;overflow:visible;enable-background:accumulate" />
  <path
     d="m 1312.4155,274.60403 a 73.094482,73.094482 0 1 1 -146.1889,0 73.094482,73.094482 0 1 1 146.1889,0 z"
     transform="matrix(-0.76959442,0,0,-0.76959442,1136.3415,716.13288)"
     id="path4034"
     style="color:#000000;fill:url(#linearGradient4068);fill-opacity:1;fill-rule:evenodd;stroke:#6fdf6f;stroke-width:0;stroke-linecap:round;stroke-linejoin:miter;stroke-miterlimit:4;stroke-opacity:0.73799127;stroke-dasharray:none;stroke-dashoffset:0;marker:none;visibility:visible;display:inline;overflow:visible;enable-background:accumulate" />
  <path
     d="m 1312.4155,274.60403 a 73.094482,73.094482 0 1 1 -146.1889,0 73.094482,73.094482 0 1 1 146.1889,0 z"
     transform="matrix(0.65041912,0,0,-0.65041912,-623.51118,683.40686)"
     id="path4036"
     style="color:#000000;fill:url(#linearGradient4070);fill-opacity:1;fill-rule:evenodd;stroke:#6fdf6f;stroke-width:0;stroke-linecap:round;stroke-linejoin:miter;stroke-miterlimit:4;stroke-opacity:0.73799127;stroke-dasharray:none;stroke-dashoffset:0;marker:none;visibility:visible;display:inline;overflow:visible;enable-background:accumulate" />
  <path
     d="m 1312.4155,274.60403 a 73.094482,73.094482 0 1 1 -146.1889,0 73.094482,73.094482 0 1 1 146.1889,0 z"
     transform="matrix(-0.5630239,0,0,0.5630239,880.33432,350.19051)"
     id="path4038"
     style="color:#000000;fill:#ffff00;fill-opacity:1;fill-rule:evenodd;stroke:#6fdf6f;stroke-width:0;stroke-linecap:round;stroke-linejoin:miter;stroke-miterlimit:4;stroke-opacity:0.73799127;stroke-dasharray:none;stroke-dashoffset:0;marker:none;visibility:visible;display:inline;overflow:visible;enable-background:accumulate" />
  <path
     d="m 1312.4155,274.60403 a 73.094482,73.094482 0 1 1 -146.1889,0 73.094482,73.094482 0 1 1 146.1889,0 z"
     transform="matrix(-0.5630239,0,0,0.5630239,880.33432,350.19051)"
     id="path4040"
     style="color:#000000;fill:url(#radialGradient4072);fill-opacity:1;fill-rule:evenodd;stroke:#6fdf6f;stroke-width:0;stroke-linecap:round;stroke-linejoin:miter;stroke-miterlimit:4;stroke-opacity:0.73799127;stroke-dasharray:none;stroke-dashoffset:0;marker:none;visibility:visible;display:inline;overflow:visible;enable-background:accumulate" />
  <path
     d="m 1312.4155,274.60403 a 73.094482,73.094482 0 1 1 -146.1889,0 73.094482,73.094482 0 1 1 146.1889,0 z"
     transform="translate(-1056.7541,410.19511)"
     id="path4042"
     style="color:#000000;fill:url(#linearGradient4074);fill-opacity:1;fill-rule:evenodd;stroke:#6fdf6f;stroke-width:0;stroke-linecap:round;stroke-linejoin:miter;stroke-miterlimit:4;stroke-opacity:0.73799127;stroke-dasharray:none;stroke-dashoffset:0;marker:none;visibility:visible;display:inline;overflow:visible;enable-background:accumulate" />
  <path
     d="m 1312.4155,274.60403 a 73.094482,73.094482 0 1 1 -146.1889,0 73.094482,73.094482 0 1 1 146.1889,0 z"
     transform="matrix(0.90465976,0,0,0.90465976,-938.59688,436.37592)"
     id="path4044"
     style="color:#000000;fill:url(#linearGradient4076);fill-opacity:1;fill-rule:evenodd;stroke:#6fdf6f;stroke-width:0;stroke-linecap:round;stroke-linejoin:miter;stroke-miterlimit:4;stroke-opacity:0.73799127;stroke-dasharray:none;stroke-dashoffset:0;marker:none;visibility:visible;display:inline;overflow:visible;enable-background:accumulate" />
  <path
     d="m 1312.4155,274.60403 a 73.094482,73.094482 0 1 1 -146.1889,0 73.094482,73.094482 0 1 1 146.1889,0 z"
     transform="matrix(-0.76959442,0,0,-0.76959442,1136.3415,896.13288)"
     id="path4046"
     style="color:#000000;fill:url(#linearGradient4078);fill-opacity:1;fill-rule:evenodd;stroke:#6fdf6f;stroke-width:0;stroke-linecap:round;stroke-linejoin:miter;stroke-miterlimit:4;stroke-opacity:0.73799127;stroke-dasharray:none;stroke-dashoffset:0;marker:none;visibility:visible;display:inline;overflow:visible;enable-background:accumulate" />
  <path
     d="m 1312.4155,274.60403 a 73.094482,73.094482 0 1 1 -146.1889,0 73.094482,73.094482 0 1 1 146.1889,0 z"
     transform="matrix(0.65041912,0,0,-0.65041912,-623.51118,863.40686)"
     id="path4048"
     style="color:#000000;fill:url(#linearGradient4080);fill-opacity:1;fill-rule:evenodd;stroke:#6fdf6f;stroke-width:0;stroke-linecap:round;stroke-linejoin:miter;stroke-miterlimit:4;stroke-opacity:0.73799127;stroke-dasharray:none;stroke-dashoffset:0;marker:none;visibility:visible;display:inline;overflow:visible;enable-background:accumulate" />
  <path
     d="m 1312.4155,274.60403 a 73.094482,73.094482 0 1 1 -146.1889,0 73.094482,73.094482 0 1 1 146.1889,0 z"
     transform="matrix(-0.5630239,0,0,0.5630239,880.33432,530.19051)"
     id="path4050"
     style="color:#000000;fill:#808000;fill-opacity:1;fill-rule:evenodd;stroke:#6fdf6f;stroke-width:0;stroke-linecap:round;stroke-linejoin:miter;stroke-miterlimit:4;stroke-opacity:0.73799127;stroke-dasharray:none;stroke-dashoffset:0;marker:none;visibility:visible;display:inline;overflow:visible;enable-background:accumulate" />
  <path
     d="m 1312.4155,274.60403 a 73.094482,73.094482 0 1 1 -146.1889,0 73.094482,73.094482 0 1 1 146.1889,0 z"
     transform="matrix(-0.5630239,0,0,0.5630239,880.33432,530.19051)"
     id="path4052"
     style="color:#000000;fill:url(#radialGradient4082);fill-opacity:1;fill-rule:evenodd;stroke:#6fdf6f;stroke-width:0;stroke-linecap:round;stroke-linejoin:miter;stroke-miterlimit:4;stroke-opacity:0.73799127;stroke-dasharray:none;stroke-dashoffset:0;marker:none;visibility:visible;display:inline;overflow:visible;enable-background:accumulate" />
</svg>
