<?xml version="1.0" encoding="UTF-8"?>
<!DOCTYPE svg PUBLIC "-//W3C//DTD SVG 1.1//EN" "http://www.w3.org/Graphics/SVG/1.1/DTD/svg11.dtd">
<svg version="1.1" xmlns="http://www.w3.org/2000/svg" xmlns:xlink="http://www.w3.org/1999/xlink" x="0" y="0" width="261" height="112" viewBox="0, 0, 261, 112">
  <g id="Layer_7">
    <path d="M52.124,70.083 L40.038,75.749 L40.038,11.089 L52.124,5.424 z" fill="#FAA426"/>
    <path d="M16.998,50.972 C16.998,42.819 25.986,35.954 38.225,33.872 L38.225,26.661 C19.588,28.88 5.519,38.919 5.519,50.972 C5.519,63.415 20.509,73.714 40.038,75.48 L40.038,68.346 C26.881,66.663 16.998,59.525 16.998,50.972" fill="#C0C0C0"/>
    <path d="M81.434,46.367 L79.847,29.822 L74.15,33.171 C68.671,29.928 61.708,27.619 53.937,26.676 L53.937,33.899 C58.462,34.683 62.53,36.126 65.862,38.046 L59.678,41.681 z" fill="#C0C0C0"/>
    <path d="M98.092,52.524 C98.511,54.099 99.17,55.516 100.07,56.775 C100.968,58.034 102.124,59.045 103.532,59.81 C104.941,60.574 106.62,60.957 108.569,60.957 C110.517,60.957 112.196,60.574 113.604,59.81 C115.014,59.045 116.167,58.034 117.066,56.775 C117.967,55.516 118.625,54.099 119.045,52.524 C119.466,50.952 119.675,49.355 119.675,47.737 C119.675,46.118 119.466,44.52 119.045,42.948 C118.625,41.375 117.967,39.96 117.066,38.699 C116.167,37.44 115.014,36.427 113.604,35.662 C112.196,34.898 110.517,34.516 108.569,34.516 C106.62,34.516 104.941,34.898 103.532,35.662 C102.124,36.427 100.968,37.44 100.07,38.699 C99.17,39.96 98.511,41.375 98.092,42.948 C97.671,44.52 97.462,46.118 97.462,47.737 C97.462,49.355 97.671,50.952 98.092,52.524 M94.156,41.42 C94.801,39.397 95.768,37.603 97.057,36.046 C98.345,34.488 99.95,33.245 101.868,32.314 C103.787,31.385 106.021,30.919 108.569,30.919 C111.116,30.919 113.35,31.385 115.269,32.314 C117.188,33.245 118.79,34.488 120.08,36.046 C121.368,37.603 122.336,39.397 122.98,41.42 C123.625,43.443 123.946,45.549 123.946,47.737 C123.946,49.927 123.625,52.03 122.98,54.055 C122.336,56.077 121.368,57.87 120.08,59.427 C118.79,60.987 117.188,62.223 115.269,63.137 C113.35,64.052 111.116,64.509 108.569,64.509 C106.021,64.509 103.787,64.052 101.868,63.137 C99.95,62.223 98.345,60.987 97.057,59.427 C95.768,57.87 94.801,56.077 94.156,54.055 C93.512,52.03 93.191,49.927 93.191,47.737 C93.191,45.549 93.512,43.443 94.156,41.42" fill="#000000"/>
    <path d="M144.878,48.794 C144.592,47.76 144.158,46.839 143.573,46.027 C142.99,45.218 142.239,44.575 141.325,44.096 C140.41,43.617 139.339,43.374 138.111,43.374 C136.82,43.374 135.726,43.63 134.828,44.142 C133.93,44.651 133.193,45.316 132.624,46.141 C132.055,46.965 131.643,47.902 131.388,48.951 C131.133,50.002 131.005,51.065 131.005,52.144 C131.005,53.285 131.14,54.386 131.41,55.448 C131.68,56.515 132.107,57.449 132.693,58.26 C133.277,59.067 134.033,59.721 134.963,60.216 C135.892,60.71 137.016,60.957 138.336,60.957 C139.654,60.957 140.755,60.703 141.639,60.192 C142.524,59.683 143.236,59.011 143.777,58.169 C144.316,57.33 144.704,56.371 144.945,55.291 C145.185,54.211 145.305,53.103 145.305,51.963 C145.305,50.884 145.163,49.828 144.878,48.794 M131.14,40.543 L131.14,43.69 L131.231,43.69 C131.86,42.403 132.849,41.465 134.197,40.881 C135.547,40.295 137.031,40.003 138.649,40.003 C140.447,40.003 142.014,40.331 143.348,40.991 C144.682,41.652 145.792,42.545 146.675,43.667 C147.56,44.793 148.228,46.088 148.677,47.557 C149.127,49.025 149.352,50.585 149.352,52.234 C149.352,53.882 149.135,55.441 148.699,56.909 C148.266,58.38 147.606,59.66 146.721,60.756 C145.837,61.848 144.727,62.711 143.393,63.341 C142.059,63.969 140.509,64.284 138.741,64.284 C138.17,64.284 137.534,64.224 136.828,64.106 C136.124,63.985 135.425,63.791 134.738,63.52 C134.046,63.248 133.397,62.884 132.781,62.418 C132.167,61.955 131.65,61.378 131.231,60.689 L131.14,60.689 L131.14,72.648 L127.318,72.648 L127.318,40.543 z" fill="#000000"/>
    <path d="M168.034,47.379 C167.69,46.567 167.225,45.871 166.641,45.288 C166.055,44.703 165.366,44.239 164.572,43.896 C163.777,43.549 162.9,43.374 161.941,43.374 C160.952,43.374 160.06,43.549 159.265,43.896 C158.471,44.239 157.79,44.709 157.22,45.311 C156.65,45.909 156.2,46.607 155.871,47.401 C155.541,48.193 155.346,49.04 155.286,49.941 L168.64,49.941 C168.581,49.04 168.379,48.186 168.034,47.379 M168.955,62.306 C167.217,63.627 165.029,64.284 162.391,64.284 C160.531,64.284 158.92,63.985 157.557,63.384 C156.192,62.785 155.046,61.945 154.117,60.868 C153.188,59.785 152.491,58.5 152.027,57 C151.562,55.501 151.299,53.866 151.24,52.1 C151.24,50.33 151.509,48.712 152.049,47.242 C152.589,45.774 153.345,44.499 154.319,43.421 C155.292,42.34 156.447,41.504 157.782,40.901 C159.115,40.305 160.577,40.003 162.166,40.003 C164.235,40.003 165.951,40.432 167.315,41.285 C168.678,42.137 169.774,43.228 170.597,44.544 C171.421,45.864 171.99,47.303 172.305,48.862 C172.62,50.421 172.748,51.904 172.688,53.313 L155.286,53.313 C155.256,54.333 155.376,55.299 155.646,56.212 C155.917,57.129 156.35,57.937 156.951,58.643 C157.55,59.346 158.315,59.907 159.244,60.327 C160.173,60.749 161.266,60.957 162.526,60.957 C164.144,60.957 165.471,60.582 166.504,59.835 C167.539,59.082 168.22,57.945 168.552,56.415 L172.328,56.415 C171.818,59.024 170.694,60.987 168.955,62.306" fill="#000000"/>
    <path d="M178.893,40.543 L178.893,44.23 L178.981,44.23 C180.571,41.413 183.089,40.003 186.535,40.003 C188.065,40.003 189.338,40.215 190.359,40.631 C191.377,41.052 192.202,41.638 192.831,42.388 C193.461,43.134 193.902,44.026 194.158,45.062 C194.412,46.096 194.539,47.242 194.539,48.502 L194.539,63.791 L190.719,63.791 L190.719,48.052 C190.719,46.611 190.298,45.475 189.459,44.636 C188.621,43.796 187.465,43.374 185.997,43.374 C184.828,43.374 183.815,43.557 182.962,43.915 C182.107,44.274 181.394,44.785 180.826,45.444 C180.255,46.104 179.828,46.877 179.543,47.76 C179.259,48.644 179.117,49.612 179.117,50.659 L179.117,63.791 L175.295,63.791 L175.295,40.543 z" fill="#000000"/>
    <path d="M204.027,63.791 L199.755,63.791 L199.755,31.685 L204.027,31.685 z" fill="#000000"/>
    <path d="M221.25,60.192 C221.727,60.192 222.329,60.156 223.046,60.081 C223.765,60.004 224.533,59.826 225.341,59.54 C226.151,59.254 226.953,58.843 227.747,58.304 C228.542,57.765 229.256,57.03 229.882,56.1 C230.516,55.172 231.027,54.009 231.435,52.615 C231.84,51.222 232.04,49.535 232.04,47.556 C232.04,45.64 231.854,43.922 231.48,42.408 C231.104,40.896 230.49,39.607 229.634,38.542 C228.78,37.478 227.681,36.668 226.331,36.115 C224.984,35.558 223.317,35.28 221.338,35.28 L214.145,35.28 L214.145,60.192 z M220.889,31.685 C225.833,31.685 229.643,32.943 232.311,35.463 C234.979,37.979 236.314,41.818 236.314,46.971 C236.314,49.671 236.013,52.06 235.412,54.143 C234.812,56.226 233.885,57.982 232.626,59.405 C231.364,60.828 229.764,61.918 227.816,62.667 C225.862,63.415 223.559,63.791 220.889,63.791 L209.872,63.791 L209.872,31.685 z" fill="#000000"/>
    <path d="M238.032,35.106 C238.19,35.106 238.341,35.099 238.482,35.09 C238.626,35.08 238.751,35.05 238.862,35.002 C238.972,34.954 239.059,34.877 239.127,34.779 C239.19,34.679 239.223,34.54 239.223,34.361 C239.223,34.21 239.193,34.087 239.136,33.997 C239.08,33.907 239,33.838 238.909,33.79 C238.815,33.742 238.707,33.709 238.588,33.693 C238.464,33.673 238.345,33.666 238.229,33.666 L237.297,33.666 L237.297,35.106 z M238.342,33.096 C238.884,33.096 239.279,33.202 239.541,33.418 C239.803,33.632 239.93,33.955 239.93,34.391 C239.93,34.799 239.813,35.096 239.587,35.286 C239.358,35.479 239.075,35.589 238.737,35.626 L240.033,37.625 L239.274,37.625 L238.043,35.675 L237.297,35.675 L237.297,37.625 L236.593,37.625 L236.593,33.096 z M235.146,36.666 C235.308,37.069 235.531,37.421 235.821,37.718 C236.107,38.016 236.444,38.249 236.837,38.417 C237.227,38.587 237.646,38.669 238.104,38.669 C238.556,38.669 238.972,38.587 239.358,38.417 C239.748,38.249 240.082,38.016 240.369,37.718 C240.654,37.421 240.879,37.069 241.041,36.666 C241.206,36.262 241.285,35.822 241.285,35.343 C241.285,34.88 241.206,34.449 241.041,34.048 C240.879,33.648 240.654,33.299 240.369,33.006 C240.082,32.715 239.748,32.481 239.358,32.314 C238.972,32.144 238.556,32.059 238.104,32.059 C237.646,32.059 237.227,32.144 236.837,32.314 C236.444,32.481 236.107,32.715 235.821,33.006 C235.531,33.299 235.308,33.648 235.146,34.048 C234.983,34.449 234.904,34.88 234.904,35.343 C234.904,35.822 234.983,36.262 235.146,36.666 M234.509,33.821 C234.716,33.352 234.997,32.944 235.35,32.598 C235.707,32.253 236.126,31.981 236.597,31.785 C237.069,31.587 237.574,31.488 238.104,31.488 C238.636,31.488 239.138,31.587 239.605,31.785 C240.076,31.981 240.49,32.253 240.837,32.598 C241.195,32.944 241.472,33.352 241.681,33.821 C241.89,34.29 241.992,34.799 241.992,35.343 C241.992,35.904 241.89,36.421 241.681,36.893 C241.472,37.367 241.195,37.777 240.837,38.127 C240.49,38.475 240.076,38.747 239.605,38.941 C239.138,39.132 238.636,39.231 238.104,39.231 C237.574,39.231 237.069,39.132 236.597,38.941 C236.126,38.747 235.707,38.475 235.35,38.127 C234.997,37.777 234.716,37.367 234.509,36.893 C234.3,36.421 234.197,35.904 234.197,35.343 C234.197,34.799 234.3,34.29 234.509,33.821" fill="#000000"/>
  </g>
  <g id="Layer_2">
    <path d="M118.211,83.043 L121.271,83.043 Q120.956,80.523 119.763,78.588 Q118.571,76.653 116.793,75.325 Q115.016,73.998 112.833,73.323 Q110.651,72.648 108.356,72.648 Q104.576,72.648 101.718,74.02 Q98.861,75.393 96.971,77.71 Q95.081,80.028 94.136,83.043 Q93.191,86.058 93.191,89.388 Q93.191,92.718 94.136,95.733 Q95.081,98.748 96.971,101.043 Q98.861,103.338 101.718,104.71 Q104.576,106.083 108.356,106.083 Q111.191,106.083 113.508,105.183 Q115.826,104.283 117.536,102.618 Q119.246,100.953 120.326,98.568 Q121.406,96.183 121.721,93.213 L118.661,93.213 Q118.436,95.373 117.626,97.24 Q116.816,99.108 115.511,100.503 Q114.206,101.898 112.406,102.708 Q110.606,103.518 108.356,103.518 Q105.161,103.518 102.866,102.303 Q100.571,101.088 99.108,99.085 Q97.646,97.083 96.948,94.54 Q96.251,91.998 96.251,89.388 Q96.251,86.733 96.948,84.213 Q97.646,81.693 99.108,79.69 Q100.571,77.688 102.866,76.473 Q105.161,75.258 108.356,75.258 Q110.111,75.258 111.708,75.775 Q113.306,76.293 114.633,77.283 Q115.961,78.273 116.883,79.735 Q117.806,81.198 118.211,83.043 z" fill="#C0C0C0"/>
    <path d="M135.671,83.943 Q137.696,83.943 139.226,84.798 Q140.756,85.653 141.768,87.048 Q142.781,88.443 143.298,90.22 Q143.816,91.998 143.816,93.843 Q143.816,95.688 143.298,97.465 Q142.781,99.243 141.768,100.638 Q140.756,102.033 139.226,102.888 Q137.696,103.743 135.671,103.743 Q133.646,103.743 132.116,102.888 Q130.586,102.033 129.573,100.638 Q128.561,99.243 128.043,97.465 Q127.526,95.688 127.526,93.843 Q127.526,91.998 128.043,90.22 Q128.561,88.443 129.573,87.048 Q130.586,85.653 132.116,84.798 Q133.646,83.943 135.671,83.943 z M135.671,81.558 Q133.016,81.558 130.968,82.548 Q128.921,83.538 127.526,85.203 Q126.131,86.868 125.411,89.095 Q124.691,91.323 124.691,93.843 Q124.691,96.363 125.411,98.59 Q126.131,100.818 127.526,102.483 Q128.921,104.148 130.968,105.115 Q133.016,106.083 135.671,106.083 Q138.326,106.083 140.373,105.115 Q142.421,104.148 143.816,102.483 Q145.211,100.818 145.931,98.59 Q146.651,96.363 146.651,93.843 Q146.651,91.323 145.931,89.095 Q145.211,86.868 143.816,85.203 Q142.421,83.538 140.373,82.548 Q138.326,81.558 135.671,81.558 z" fill="#C0C0C0"/>
    <path d="M150.836,82.233 L150.836,105.453 L153.671,105.453 L153.671,91.908 Q153.716,90.198 154.233,88.735 Q154.751,87.273 155.673,86.215 Q156.596,85.158 157.923,84.55 Q159.251,83.943 160.961,83.943 Q162.671,83.943 163.818,84.483 Q164.966,85.023 165.641,85.968 Q166.316,86.913 166.586,88.195 Q166.856,89.478 166.856,90.963 L166.856,105.453 L169.691,105.453 L169.691,90.513 Q169.691,88.443 169.286,86.778 Q168.881,85.113 167.891,83.965 Q166.901,82.818 165.258,82.188 Q163.616,81.558 161.186,81.558 Q158.711,81.558 156.641,82.84 Q154.571,84.123 153.761,86.238 L153.671,86.238 L153.671,82.233 z" fill="#C0C0C0"/>
    <path d="M175.001,82.233 L175.001,105.453 L177.836,105.453 L177.836,91.908 Q177.881,90.198 178.398,88.735 Q178.916,87.273 179.838,86.215 Q180.761,85.158 182.088,84.55 Q183.416,83.943 185.126,83.943 Q186.836,83.943 187.983,84.483 Q189.131,85.023 189.806,85.968 Q190.481,86.913 190.751,88.195 Q191.021,89.478 191.021,90.963 L191.021,105.453 L193.856,105.453 L193.856,90.513 Q193.856,88.443 193.451,86.778 Q193.046,85.113 192.056,83.965 Q191.066,82.818 189.423,82.188 Q187.781,81.558 185.351,81.558 Q182.876,81.558 180.806,82.84 Q178.736,84.123 177.926,86.238 L177.836,86.238 L177.836,82.233 z" fill="#C0C0C0"/>
    <path d="M215.906,92.223 L200.876,92.223 Q201.056,90.648 201.618,89.14 Q202.181,87.633 203.126,86.485 Q204.071,85.338 205.421,84.64 Q206.771,83.943 208.526,83.943 Q210.236,83.943 211.586,84.64 Q212.936,85.338 213.881,86.485 Q214.826,87.633 215.343,89.118 Q215.861,90.603 215.906,92.223 z M200.876,94.608 L218.741,94.608 Q218.831,92.178 218.291,89.815 Q217.751,87.453 216.513,85.63 Q215.276,83.808 213.296,82.683 Q211.316,81.558 208.526,81.558 Q205.781,81.558 203.778,82.615 Q201.776,83.673 200.516,85.405 Q199.256,87.138 198.648,89.343 Q198.041,91.548 198.041,93.843 Q198.041,96.318 198.648,98.545 Q199.256,100.773 200.516,102.46 Q201.776,104.148 203.778,105.115 Q205.781,106.083 208.526,106.083 Q212.936,106.083 215.343,103.923 Q217.751,101.763 218.651,97.803 L215.816,97.803 Q215.141,100.503 213.386,102.123 Q211.631,103.743 208.526,103.743 Q206.501,103.743 205.061,102.888 Q203.621,102.033 202.676,100.728 Q201.731,99.423 201.303,97.78 Q200.876,96.138 200.876,94.608 z" fill="#C0C0C0"/>
    <path d="M238.946,89.523 L241.781,89.523 Q241.286,85.518 238.698,83.538 Q236.111,81.558 232.376,81.558 Q229.721,81.558 227.673,82.548 Q225.626,83.538 224.231,85.203 Q222.836,86.868 222.116,89.095 Q221.396,91.323 221.396,93.843 Q221.396,96.363 222.116,98.59 Q222.836,100.818 224.231,102.483 Q225.626,104.148 227.673,105.115 Q229.721,106.083 232.376,106.083 Q236.336,106.083 238.856,103.72 Q241.376,101.358 241.961,97.128 L239.126,97.128 Q238.991,98.568 238.406,99.783 Q237.821,100.998 236.921,101.875 Q236.021,102.753 234.851,103.248 Q233.681,103.743 232.376,103.743 Q230.351,103.743 228.821,102.888 Q227.291,102.033 226.278,100.638 Q225.266,99.243 224.748,97.465 Q224.231,95.688 224.231,93.843 Q224.231,91.998 224.748,90.22 Q225.266,88.443 226.278,87.048 Q227.291,85.653 228.821,84.798 Q230.351,83.943 232.376,83.943 Q235.211,83.943 236.786,85.428 Q238.361,86.913 238.946,89.523 z" fill="#C0C0C0"/>
    <path d="M250.421,82.233 L250.421,75.258 L247.586,75.258 L247.586,82.233 L243.536,82.233 L243.536,84.618 L247.586,84.618 L247.586,100.503 Q247.541,103.473 248.666,104.575 Q249.791,105.678 252.626,105.678 Q253.256,105.678 253.886,105.633 Q254.516,105.588 255.146,105.588 L255.146,103.203 Q253.931,103.338 252.716,103.338 Q251.186,103.248 250.803,102.46 Q250.421,101.673 250.421,100.278 L250.421,84.618 L255.146,84.618 L255.146,82.233 z" fill="#C0C0C0"/>
  </g>
</svg>
